<svg width="359" height="290" xmlns="http://www.w3.org/2000/svg"><path fill="#6c7eed" d="M256.539 158.126v-.226h.19v-.225h.191v-.225h.208v-.216h.191v-.343h.208v-.225h.191v-.216h.19v-.343h.209v-.216h.19v-.225h.209v-.333h.19v-.226h.209v-.225h.19v-.333h.191v-.226h.208v-.225h.19v-.333h.209v-.226h.19v-.225h.191v-.226h.208v-.333h.191v-.225h.208v-.226h.191v-.333h.19v-.225h.209v-.216h.19v-.343h.209v-.225h.19v-.216h.208v-.343h.191v-.215h.19v-.226h.209v-.333h.19v-.225h.209v-.226h.19v-.225h.191v-.333h.208v-.226h.191v-.225h.208v-.333h.19v-.226h.192v-.225h.208v-.333h.19v-.226h.208v-.225h.191v-.333h.208v-.226h.191v-.216h.19v-.342h.209v-.216h.19v-.226h.209v-.225h.19v-.333h.191v-.226h.208v-.225h.191v-.333h.208v-.226h.19v-.225h.192v-.333h.208v-.226h.19v-.225h.208v-.333h.191v-.226h.208v-.225h.191v-.333h.19v-.226h.209v-.225h.19v-.216h.209v-.343h.19v-.215h.191v-.226h.208v-.333h.19v-.225h.209v-.226h.19v-.333h.191v-.225h.209v-.226h.19v-.333h.208v-.225h.191v-.226h.19v-.333h.209v-.225h.19v-.226h.209v-.225h.19v-.333h.209v-.226h.19v-.215h.191v-.343h.208v-.216h.19v-.225h.209v-.343h.19v-.216h.191v-.225h.208v-.333h.191v-.226h.208v-.225h.191v-.334h.19v-.225h.209v-.225h.19v-.226h.209v-.333h.19v-.225h.208v-.226h.191v-.333h.191v-.225h.208v-.216h.19v-.343h.209v-.225h.19v-.216h.191v-.343h.208v-.216h.191v-.225h.208v-.333h.19v-.226h.192v-.225h.208v-.225h.19v-.334h.209v-.225h.19v-.225h.208v-.334h.191v-.225h.19v-.225h.209v-.334h.19v-.225h.209v-.225h.19v-.334h.191v-.225h.208v-.216h.191v-.343h.208v-.225h.19v-.216h.192v-.225h.208v-.333h.19v-.226h.209v-.225h.19v-.333h.208v-.226h.191v-.225h.19v-.333h.209v-.226h.19v-.225h.209v-.333h.19v-.226h.191v-.225h.208v-.333h.191v-.226h.208v-.225h.19v-.216h.192v-.343h.208v-.215h.19v-.226h.208v-.333h.191v-.225h.208v-.226h.19v-.333h.192v-.225h.208v-.226h.19v-.333h.209v-.225h.19v-.226h.191v-.333h.208v-.225h.19v-.226h.209v-.225h.19v-.333h.191v-.226h.208v-.215h.191v-.343h.208v-.226h.191v-.215h.19v-.343h.209v-.216h.19v-.225h.209v-.334h.19v-.225h.209v-.225h.19v-.334h.19v-.225h.21v-.225h.19v-.226h.208v-.333h.19v-.225h.191v-.226h.208v-.333h.191v-.225h.208v-.226h.191v-.333h.19v-.226h.209v-.215h.19v-.343h.209v-.216h.19v-.225h.208v-.343h.191v-.216h.19v-.225h.21v-.226h.19v-.333h.208v-.225h.19v-.226h.191v-.333h.208v-.225h.191v-.226h.208v-.333h.19v-.225h.192v-.226h.208v-.333h.19v-.225h.209v-.216h.19v-.343h.208v-.225h.191v-.216h.19v-.225h.209v-.333h.19v-.226h.209v-.225h.19v-.333h.191v-.226h.208v-.225h.191v-.333h.208v-.226h.19v-.225h.192v-.333h.208v-.226h.19v-.225h.209v-.333h.19v-.226h.208v-.225h.191v-.216h.19v-.343h.209v-.215h.19v-.226h.209v-.343h.19v-.216h.191v-.225h.208v-.225h.191v-.226h.208v-.333h.19v-.225h.192v-.226h.208v-.215h.19v-.343h.208v-.226h.191v-.333h.19v-.225h.209v-.334h.19v-.225h.209v-.333h.19v-.226h.209v-.333h.19v-.333h.191v-.333h.208V92.7h.19v-.333h.209v-.334h.19V91.7h.191v-.343h.209v-.333h.19v-.441h.208v-.45h.191v-.452h.19v-.44h.209v-.677h.19v-.45h.209v-.893h.19v-.666h.209V84.88h.19V36.114h-.19v-.667h-.209v-.45h-.19v-.334h-.208v-.333h-.191v-.333h-.208v-.226h-.19v-.225h-.192v-.225h-.208v-.226h-.19v-.225h-.209v-.216h-.19v-.225h-.191v-.118h-.208v-.215h-.19v-.118h-.209v-.225h-.19v-.108h-.191v-.108h-.208v-.225h-.191v-.118h-.208v-.108h-.191v-.117h-.208v-.108h-.19v-.108h-.192v-.118h-.208v-.107h-.19v-.118h-.208v-.108h-.191v-.108h-.399v-.117h-.19v-.108h-.209v-.118h-.381v-.107h-.208v-.108h-.4v-.118h-.19v-.108h-.399v-.117h-.399v-.108h-.398v-.118h-.382v-.107h-.399v-.108h-.399v-.118h-.398v-.108h-.59v-.117h-.59V28.4h-.606v-.108h-.78v-.118h-1.388v-.107h-75.775v.107h-1.005v.118h-.78v.108h-.59v.108h-.607v.117h-.59v.108h-.399v.118h-.398v.108h-.382v.107h-.399v.118h-.399v.108H213v.117h-.4v.108h-.19v.118h-.399v.108h-.19v.107h-.4v.118h-.207v.108h-.191v.117h-.19v.108h-.4v.108h-.208v.118h-.19v.107h-.191v.118h-.208v.108h-.191v.108h-.208v.117h-.19v.108h-.192v.118h-.208v.107h-.19v.118h-.208v.216h-.191v.225h-.19v.118h-.209v.107h-.19v.226h-.209v.225h-.19v.216h-.209v.117h-.19v.226h-.191v.225h-.208v.333h-.19v.226h-.209v.215h-.19v.343h-.191v.334h-.209v.44h-.19V22.59h-.208v-2.577h-.191v-1.343h-.19v-1h-.209v-.9h-.19v-.785h-.209v-.666h-.19v-.559h-.209V14.2h-.19v-.558h-.191v-.451h-.208v-.45h-.19v-.442h-.209v-.333h-.19v-.45h-.191v-.334h-.208v-.343h-.191v-.333h-.208v-.333h-.191v-.334h-.19v-.225h-.209v-.333h-.19v-.226h-.209V8.83h-.19v-.333h-.208V8.27h-.191v-.225h-.19V7.82h-.209v-.216h-.19V7.38h-.209v-.118h-.19v-.216h-.191v-.225h-.208v-.118h-.191v-.225h-.208v-.216h-.191v-.117h-.19v-.226h-.209v-.108h-.19v-.107h-.209v-.226h-.19v-.117h-.208v-.108h-.191v-.108h-.19V4.92h-.209v-.118h-.19v-.108h-.209v-.117h-.19v-.108h-.191V4.36h-.208v-.118H195v-.107h-.208v-.118h-.19V3.91h-.192v-.108h-.208v-.117h-.398v-.108h-.191V3.46h-.191v-.107h-.208v-.108h-.399v-.118h-.19v-.108h-.4v-.117h-.19v-.108h-.399v-.118h-.399v-.107h-.399V2.46h-.398v-.118h-.382v-.108h-.399v-.117h-.607v-.108h-.381v-.108h-.607v-.117h-.59v-.108h-.59v-.118h-.589V1.45h-.607v-.107h-.78v-.118h-.797v-.108h-.4V1h.99V.892h.797V.774h1.196V.666h.989V.56h1.179V.44h1.196V.333h1.37V.216h1.595V.108h2.376V0h124.257v.108h3.763v.108h2.358v.117h1.994v.108h1.578v.118h1.387v.107h1.387v.108h1.18v.118h.988V1h.988v.117h.988v.108h.798v.118h.798v.107h.78v.108h.798v.118h.78v.108h.607V1.9h.59v.108h.589v.108h.59v.117h.606v.108h.382v.118h.399v.108h.607v.107h.381v.118h.399v.108h.399v.117h.19v.108h.4v.118h.398v.108h.19v.107h.4v.118h.208v.108h.19v.117h.4v.108h.19v.108h.208v.118h.19v.107h.4v.118h.19v.108h.208v.108h.191v.117h.208v.108h.19v.118h.192v.107h.208v.118h.19v.216h.209v.117h.19v.108h.191v.118h.208v.107h.19v.226h.209v.108h.19v.225h.209v.108h.19v.118h.191v.225h.208v.225h.191v.108h.208v.226h.19v.225h.192v.216h.208v.117h.19v.226h.208v.215h.191v.343h.19v.216h.209v.225h.19v.226h.209v.333h.19v.343h.209v.215h.19v.343h.191v.334h.208v.45h.191v.441h.208v.334h.19v.45h.191v.559h.209v.45h.19v.56h.208v.666h.191v.676h.19v.784h.209v1h.19v1.342h.209v2.127h.19v64.975h-.19v2.01h-.208v1.234h-.191v1.117h-.208v.892h-.19v.784h-.192v.676h-.208v.667h-.19v.666h-.209v.568h-.19v.559h-.191v.559h-.208v.44h-.19v.451h-.209v.56h-.19v.45h-.191v.44h-.208v.334h-.191v.45h-.208v.452h-.191v.333h-.208v.45h-.19v.334h-.192v.333h-.208v.333h-.19v.451h-.208v.333h-.191v.226h-.19v.333h-.209v.343h-.19v.333h-.209v.333h-.19v.226h-.191v.333h-.208v.225h-.191v.334h-.208v.225h-.19v.333h-.209v.226h-.19v.333h-.191v.225h-.209v.226h-.19v.333h-.208v.225h-.191v.226h-.19v.225h-.209v.216h-.19v.225h-.209v.333h-.19v.226h-.191v.225h-.208v.333h-.191v.226h-.208v.225h-.19v.333h-.192v.226h-.208v.225h-.19v.333h-.208v.226h-.191v.225h-.208v.333h-.191v.226h-.19v.225h-.209v.333h-.19v.226h-.209v.215h-.19v.343h-.191v.226h-.208v.215h-.19v.343h-.209v.216h-.19v.225h-.191v.334h-.209v.225h-.19v.225h-.208v.334h-.191v.225h-.208v.225h-.191v.334h-.19v.225h-.209v.225h-.19v.334h-.209v.225h-.19v.225h-.191v.334h-.208v.225h-.19v.225h-.209v.334h-.19v.225h-.191v.333h-.209v.226h-.19v.225h-.208v.333h-.191v.226h-.208v.215h-.19v.343h-.192v.216h-.208v.225h-.19v.343h-.209v.216h-.19v.225h-.191v.333h-.208v.226h-.19v.225h-.209v.334h-.19v.225h-.191v.225h-.208v.334h-.191v.225h-.208v.225h-.191v.334h-.208v.225h-.19v.225h-.192v.334h-.208v.225h-.19v.225h-.208v.334h-.191v.225h-.19v.216h-.209v.343h-.19v.215h-.209v.226h-.19v.343h-.191v.215h-.208v.226h-.191v.333h-.208v.225h-.19v.226h-.192v.333h-.208v.225h-.19v.226h-.209v.333h-.19v.225h-.208v.226h-.191v.333h-.19v.225h-.209v.333h-.19v.226h-.209v.225h-.19v.333h-.191v.226h-.208v.225h-.191v.333h-.208v.226h-.19v.215h-.192v.343h-.208v.226h-.19v.216h-.208v.343h-.191v.215h-.208v.226h-.191v.333h-.19v.225h-.209v.226h-.19v.333h-.209v.225h-.19v.226h-.191v.333h-.208v.225h-.19v.226h-.209v.333h-.19v.225h-.192v.226h-.208v.333h-.19v.225h-.208v.226h-.191v.333h-.208v.225h-.191v.226h-.19v.333h-.209v.225h-.19v.216h-.209v.343h-.19v.215h-.191v.226h-.208v.333h-.19v.225h-.209v.226h-.19v.333h-.191v.225h-.209v.226h-.19v.333h-.208v.225h-.191v.226h-.208v.333h-.19v.225h-.192v.334h-.208v.225h-.19v.225h-.208v.334h-.191v.225h-.191v.225h-.208v.334h-.19v.225h-.209v.225h-.19v.334h-.191v.225h-.208v.216h-.191v.343h-.208v.225h-.191v.216h-.208v.343h-.19v.215h-.192v.226h-.208v.333h-.19v.225h-.208v.226h-.191v.333h-.19v.225h-.209v.226h-.19v.333h-.209v.225h-.19v.226h-.191v.333h-.208v.225h-.191v.226h-.208v.333h-.19v.225h-.192v.226h-.208v.333h-.19v.225h-.209v.216h-.19v.343h-.208v.225h-.191v.216h-.19v.343h-.209v.216h-.19v.225h-.209v.333h-.19v.226h-.191v.225h-.208v.333h-.191v.226h-.208v.333h-.19v.225h-.192v.226h-.208v.333h-.19v.225h-.208v.226h-.191v.333h-.208v.225h-.191v.226h-.19v.333h-.209v.225h-.19v.226h-.209v.333h-.19v.225h-.191v.226h-.208v.333h-.19v.225h-.209v.216h-.19v.343h-.191v.216h-.209v.225h-.19v.343h-.208v.216h-.191v.225h-.208v.333h-.19v.226h-.192v.225h-.208v.333h-.19v.226h-.209v.225h-.19v.333h-.191v.226h-.208v.225h-.19v.333h-.209v.226h-.19v.225h-.191v.333h-.208v.226h-.191v.225h-.208v.333h-.191v.226h-.208v.215h-.19v.343h-.192v.216h-.208v.225h-.19v.343h-.208v.216h-.191v.225h-.19v.333h-.209v.226h-.19v.333h-.209v.226h-.19v.225h-.191v.333h-.208v.226h-.191v.225h-.208v.333h-.191v.226h-.19v.225h-.209v.333h-.19v.226h-.209v.225h-.19v.333h-.208v.226h-.191v.225h-.19v.333h-.209v.226h-.19v.225h-.209v.333h-.19v.226h-.191v.215h-.208v.343h-.191v.216h-.208v.225h-.19v.343h-.192v.216h-.208v.225h-.19v.333h-.208v.226h-.191v.225h-.208v.333h-.191v.226h-.19v.225h-.209v.333h-.19v.226h-.209v.225h-.19v.333h-.191v.226h-.208v.225h-.19v.333h-.21v.226h-.19v.225h-.19v.334h-.209v.225h-.19v.216h-.208v.343h-.191v.215h-.208v.343h-.191v.226h-.19v.215h-.209v.343h-.19v.216h-.209v.225h-.19v.333h-.191v.226h-.208v.225h-.19v.333h-.21v.226h-.19v.225h-.19v.333h-.209v.226h-.19v.225h-.208v.333h-.191v.226h-.208v.225h-.19v.333h-.192v.226h-.208v.225h-.19v.333h-.209v.226h-.19v.215h-.191v.343h-.208v.226h-.19v.215h-.209v.343h-.19v.216h-.191v.225h-.208v.334h-.191v.225h-.208v.225h-.191v.334h-.19v.225h-.209v.225h-.19v.334h-.209v.225h-.19v.225h-.208v.334h-.191v.225h-.19v.226h-.209v.333h-.19v.225h-.209v.226h-.19v.333h-.191v.225h-.208v.216h-.191v.343h-.208v.225h-.191v.333h-.19v.226h-.209v.215h-.19v.343h-.209v.216h-.19v.225h-.208v.343h-.191v.216h-.19v.225h-.209v.334h-.19v.225h-.209v.225h-.19v.334h-.191v.225h-.208v.225h-.191v.334h-.208v.225h-.19v.225h-.192v.334h-.208v.225h-.19v.225h-.208v.334h-.191v.225h-.208v.225h-.191v.334h-.19v.225h-.209v.216h-.19v.343h-.209v.225h-.19v.216h-.191v.343h-.208v.215h-.191v.226h-.208v.333h-.19v.225h-.192v.226h-.208v.333h-.19v.225h-.208v.226h-.191v.333h-.208v.225h-.191v.226h-.19v.333h-.209v.225h-.19v.226h-.209v.333h-.19v.225h-.191v.334h-.208v.225h-.19v.225h-.209v.334h-.19v.225h-.191v.225h-.209v.334h-.19v.225h-.208v.216h-.191v.343h-.208v.215h-.19v.226h-.192v.343h-.208v.215h-.19v.226h-.209v.333h-.19v.225h-.191v.226h-.208v.333h-.19v.225h-.209v.226h-.19v.333h-.191v.225h-.208v.226h-.191v.333h-.208v.225h-.191v.226h-.19v.333h-.209v.225h-.19v.226h-.209v.333h-.19v.225H268v.216h-.191v.343h-.191v.216h-.208v.225h-.19v.343h-.209v.216h-.19v.225h-.191v.333h-.208v.226h-.191v.225h-.208v.333h-.19v.226h-.192v.225h-.208v.333h-.19v.226h-.209v.333h-.19v.225h-.208v.226h-.191v.333h-.19v.225h-.209v.226h-.19v.333h-.209v.225h-.19v.226h-.191v.333h-.208v.225h-.191v.216h-.208v.343h-.19v.225h-.192v.216h-.208v.343h-.19v.215h-.208v.226h-.191v.333h-.208v.225h-.191v.226h-.19v.333h-.209v.225h-.19v.226h-.209v.333h-.19v.225h-.191v.226h-.208v.333h-.191v.226h-.208v.225h-.19v.333h-.191v.226h-.209v.225h-.19v.333h-.208v.226h-.191v.225h-.208v.333h-.19v.226h-.192v.215h-.208v.343h-.19v.216h-.209v.225h-.19v.333h-.191v.226h-.208v.225h-.19v.333h-.209v.226h-.19v.225h-.191v.333h-.208v.226h-.191v.333h-.208v.225h-.191v.226h-.19v.333h-.209v.225h-.19v.226h-.209v.333h-.19v.225h-.208v.226h-.191v.333h-.191v.225h-.208v.226h-.19v.333h-.209v.225h-.19v.216h-.191v.343h-.208v.225h-.191v.216h-.208v.343h-.191v.216h-.19v.225h-.209v.333h-.19v.226h-.209v.225h-.19v.333h-.208v.226h-.191v.225h-.19v.333h-.209v.226h-.19v.225h-.209v.333h-.19v.226h-.191v.225h-.208v.333h-.191v.226h-.208v.225h-.19v.333h-.192v.226h-.208v.215h-.19v.343h-.209v.226h-.19v.215h-.208v.343h-.191v.216h-.19v.225h-.209v.334h-.19v.225h-.209v.343h-.19v.216h-.191v.225h-.208v.333h-.191v.226h-.208v.225h-.19v.333h-.192v.226h-.208v.225h-.19v.333h-.209v.226h-.19v.225h-.208v.333h-.191v.226h-.19v.225h-.209v.333h-.19v.226h-.209v.225h-.19v.333h-.191v.226h-.208v.215h-.191v.343h-.208v.216h-.19v.225h-.192v.343h-.208v.216h-.19v.225h-.208v.334h-.191v.225h-.19v.225h-.209v.334h-.19v.225h-.209v.225h-.19v.334h-.209v.225h-.19v.225h-.191v.334h-.208v.333h-.19v.343h-.209v.333h-.19v.666h-.191v1.794h.19v.558h.191v.334h.208v.225h.19v.333h.209v.226h.19v.107h.191v.226h.208v.117h.191v.108h.208v.226h.191v.107h.208v.118h.19v.108h.192v.108h.398v.117h.208v.108h.191v.118h.399v.108h.19v.117h.4v.108h.398v.108h.4v.117h.589v.108h.59v.118h.589v.107h.798v.108h1.387v.118h97.744v.108h2.168v.117h1.196v.108h.989v.108h.797v.118h.59v.107h.59v.118h.398v.108h.399v.117h.19v.108h.4v.108h.19v.118h.208v.107h.191v.118h.208v.108h.19v.108h.192v.117h.208v.226h.19v.215h.208v.226h.191v.225h.19v.225h.209v.451h.19v.441h.209v.451h.19v.784h.209v1.117h.19v15.769h-.19v1.117h-.208v.784h-.191v.44h-.208v.452h-.191v.333h-.208v.343h-.19v.216h-.192v.117h-.208v.226h-.19v.107h-.208v.108h-.191v.226h-.19v.117h-.4v.108h-.208v.108h-.19v.117h-.4v.108h-.19v.118h-.399v.108h-.59v.117h-.606v.108h-.78v.108h-.798v.117h-1.18v.108h-1.976v.118H202.127v.108h-9.503v-.108h-3.364v-.118h-.988v-.108h-.798v-.117h-.78v-.108h-.797v-.108h-.798v-.117h-.59v-.108h-.59v-.118h-.398v-.108h-.59v-.117h-.398v-.108h-.4v-.108h-.398v-.117h-.399v-.226h.399v-.108h.59v-.107h.398v-.118h.4v-.108h.589v-.117h.399v-.108h.398v-.108h.4v-.118h.398v-.107h.19v-.118h.4v-.108h.398v-.117h.4v-.108h.19v-.108h.399v-.118h.399v-.107h.19v-.118h.4v-.108h.19v-.108h.399v-.117h.19v-.108h.4v-.118h.207v-.107h.191v-.108h.399v-.118h.19v-.108h.209v-.117h.398v-.108h.191v-.118h.19v-.107h.209v-.108h.19v-.118h.4v-.108h.19v-.117h.208v-.108h.191v-.108h.208v-.117h.19v-.108h.209v-.118h.19v-.108h.192v-.108h.208v-.117h.19v-.108h.208v-.118h.191v-.107h.19v-.118H195v-.108h.19v-.108h.209v-.225h.19v-.118h.191v-.107h.208v-.108h.191v-.118h.208v-.225h.19v-.108h.192v-.108h.208v-.117h.19v-.226h.208v-.108h.191v-.225h.208v-.108h.191v-.225h.19v-.118h.209v-.215h.19v-.118h.209v-.225h.19v-.108h.191v-.226h.208v-.225h.191v-.216h.208v-.117h.19v-.226h.192v-.225h.208v-.216h.19v-.225h.208v-.225h.191v-.226h.208v-.333h.19v-.225h.192v-.226h.208v-.333h.19v-.225h.209v-.334h.19v-.333h.191v-.333h.208v-.343h.19v-.333h.209v-.451h.19v-.333h.191v-.441h.209v-.569h.19v-.44h.208v-.677h.191v-.666h.208v-.784h.19v-1.118h.192v-2.009h.208v-42.16h.19v-.225h.209v-.226h.19v-.225h.191v-.226h.208v-.225h.19v-.216h.209v-.225h.19v-.333h.191v-.226h.208v-.225h.191v-.333h.208v-.226h.191v-.225h.208v-.333h.19v-.226h.192v-.225h.208v-.333h.19v-.226h.208v-.225h.191v-.333h.19v-.226h.209v-.225h.19v-.216h.209v-.343h.19v-.215h.191v-.226h.208v-.333h.191v-.225h.208v-.226h.19v-.333h.192v-.225h.208v-.226h.19v-.333h.209v-.225h.19v-.226h.208v-.333h.191v-.225h.19v-.226h.209v-.225h.19v-.333h.209v-.226h.19v-.215h.191v-.343h.208v-.226h.191v-.215h.208v-.343h.19v-.216h.192v-.225h.208v-.334h.19v-.225h.208v-.225h.191v-.334h.208v-.225h.191v-.225h.19v-.226h.209v-.333h.19v-.225h.209v-.226h.19v-.333h.191v-.225h.208v-.226h.19v-.333h.209v-.225h.19v-.216h.192v-.343h.208v-.216h.19v-.225h.208v-.343h.191v-.216h.208v-.225h.191v-.225h.19v-.334h.209v-.225h.19v-.225h.209v-.334h.19v-.225h.191v-.225h.208v-.334h.19v-.225h.209v-.225h.19v-.334h.191v-.225h.209v-.225h.19v-.334h.208v-.225h.191v-.216h.208v-.225h.19v-.333h.192v-.226h.208v-.225h.19v-.333h.209v-.226h.19v-.225h.191v-.333h.208v-.226h.19v-.225h.209v-.333h.19v-.226h.191v-.225h.208v-.333h.191v-.226h.208v-.225h.191v-.216h.19v-.343h.209v-.215h.19v-.226h.209v-.343h.19v-.215h.208v-.226h.191v-.333h.19v-.225h.209v-.226h.19v-.333h.209v-.225h.19v-.226h.191v-.333h.208v-.225h.191v-.226h.208v-.225h.19v-.333h.192v-.226h.208v-.225h.19v-.333h.209v-.226h.19v-.215h.208v-.343h.191v-.216h.19v-.225h.209v-.334h.19v-.225h.209v-.226h.19v-.333h.191v-.225h.208v-.226h.191v-.225h.208v-.333h.19v-.226h.192v-.225h.208v-.333h.19v-.226h.208v-.225h.191v-.333h.208v-.226h.191v-.215h.19v-.343h.209v-.226h.19v-.215h.209v-.343h.19v-.216h.191v-.225h.208v-.226h.19v-.333h.209v-.225h.19v-.226h.191v-.333h.209v-.225h.19v-.226h.208v-.333h.191v-.225h.208v-.226h.19v-.333h.192v-.225h.208v-.226h.19v-.333h.209v-.225h.19v-.216h.191v-.225h.208v-.333h.19v-.226h.209v-.225h.19v-.333h.191v-.226h.208v-.225h.191v-.333h.208v-.226h.191v-.225h.208v-.334h.19v-.225h.192v-.225h.208v-.334h.19v-.225h.208v-.225h.191v-.216h.19v-.343h.209v-.225h.19v-.216h.209v-.343h.19v-.216h.191v-.225h.208v-.333h.191v-.226h.208v-.225h.191v-.333h.19v-.226h.209v-.225h.19v-.333h.209v-.226h.19v-.225h.208v-.225h.191v-.334h.19v-.225h.209v-.225h.19v-.334h.209v-.225h.19v-.216h.191v-.343h.208v-.215h.191v-.226h.208v-.343h.19v-.215h.192v-.226h.208v-.333h.19v-.225h.209v-.226h.19v-.225h.208v-.333h.191v-.226h.19v-.225h.209v-.333h.19v-.226h.209v-.225h.19v-.333h.191v-.226h.208v-.225h.191v-.333h.208v-.226h.19v-.215h.192v-.343h.208v-.216h.19v-.225h.208v-.226h.191v-.333h.208v-.225h.191v-.226h.19v-.333h.209v-.225h.19v-.226h.209v-.333h.19v-.225h.191v-.226h.208v-.333h.19v-.225h.209v-.226h.19v-.333h.192v-.225h.208v-.216h.19v-.225h.208v-.343h.191v-.216h.208v-.225h.19v-.334h.192v-.225h.208v-.225h.19v-.334h.209v-.225h.19v-.225h.191v-.334h.208v-.225h.19v-.225h.209v-.108z"/><path fill="#30dde8" d="M2.476 14.53v-.667h.19v-.558h.209v-.45h.19v-.452h.209v-.44h.19v-.451h.191v-.45h.208v-.334h.19v-.333h.209v-.333h.19v-.343h.191v-.216h.209v-.225h.19v-.343h.208V8.72h.191v-.226h.19V8.27h.209v-.225h.19v-.108h.209V7.71h.19v-.226h.209v-.108h.19v-.225h.191v-.108h.208V6.82h.19v-.118h.209v-.107h.19v-.118h.191V6.26h.208v-.117h.191v-.108h.208v-.117h.191V5.81h.19v-.108h.209v-.118h.19v-.107h.209v-.118h.19v-.108h.191v-.107h.208v-.118h.19v-.108h.209v-.117h.19v-.108h.209v-.118h.381v-.107h.208V4.36h.191v-.118h.208v-.108h.382v-.117h.208v-.108h.19v-.108h.4v-.117h.19v-.108h.399v-.118h.208v-.107h.399v-.108h.19v-.118h.4v-.107h.398V2.9h.19v-.108h.4v-.117h.399v-.108h.381v-.108h.399v-.117h.399v-.108h.398v-.118h.4v-.108h.589v-.107h.399v-.118h.398v-.108h.59v-.117h.59V1.45h.59v-.108h.606v-.117h.78v-.108h.59V.999h.797V.892h.989V.774h.797V.666h.989V.558h1.179V.441h1.196V.333h1.578V.216h2.185V.108h3.954V0h128.8v.108h4.161v.108h2.376v.117h1.977v.108h1.577v.117h1.596v.108h1.179v.108h1.196v.118h.989v.107h.988v.118h1.387v.108h.78v.117h.798v.108h.78v.108h.607v.117h.59v.108h.59v.118h.589v.107h.607v.108h.381v.118h.607v.108h.4v.117h.38v.108h.4v.108h.398v.117h.399V2.9h.19v.118h.4v.107h.19v.118h.4v.108h.207v.107h.19v.118h.4v.108h.19V3.8h.209v.108h.19v.108h.208v.117h.191v.108H195v.118h.19v.215h.209v.118h.19V4.8h.191v.117h.208v.108h.191v.118h.208v.107h.19v.226h.192v.107h.208v.118h.19v.108h.208v.225h.191v.108h.208v.225h.191v.108h.19v.225h.209v.226h.19v.117h.209v.216h.19v.225h.191v.226h.208v.107h.191v.226h.208v.333h.19v.225h.192v.225h.208v.226h.19v.225h.208v.333h.191v.226h.208v.333h.19v.333h.192v.333h.208v.343h.19v.333h.209v.333h.19v.45h.191v.442h.208v.45h.19v.45h.209v.442h.19v.558h.191v.676h.209v.559h.19v.783h.208v.784h.191v1h.208v1.234h.19v2.009h.192v58.92h-.191v2.568h-.19v.784h-.209v.783h-.19v.559h-.209v.45h-.19v.334h-.209v.333h-.19v.225h-.191v.225h-.208v.108h-.19v.226h-.209v.117h-.19v.108h-.191v.108h-.208v.117h-.191v.108h-.208v.118h-.191v.107h-.19v.108h-.4v.118h-.398v.107h-.4v.118h-.398v.108h-.399v.117h-.78v.108h-.798v.108h-.988v.117H194.6v.108h-2.185v.118H168.09v-.118h-2.775v-.108h-1.578v-.117h-.988v-.108h-.988v-.108h-.798v-.117h-.59v-.108h-.398v-.118h-.4v-.107h-.398v-.118h-.382v-.108h-.208v-.107h-.19v-.118h-.208v-.108h-.191v-.117h-.191v-.108h-.208v-.108h-.19v-.117h-.209v-.108h-.19v-.226h-.209v-.107h-.19v-.226h-.191v-.333h-.208v-.343h-.191v-.44h-.208v-.451h-.19v-1.235h-.192v-.774h-.208V36.446h-.19v-.901h-.208v-.441h-.191v-.343h-.19v-.333h-.209v-.333h-.19v-.225h-.209v-.334h-.19v-.225h-.209v-.225h-.19v-.226h-.191v-.107h-.208v-.226h-.19v-.225h-.209v-.108h-.19v-.225h-.191v-.226h-.208v-.107h-.191v-.108h-.208v-.118h-.191v-.107h-.19v-.118h-.209v-.108h-.19v-.117h-.209v-.108h-.19v-.108h-.209v-.117h-.19v-.108h-.191V30.4h-.208v-.108h-.19v-.107h-.209v-.118h-.19v-.108h-.4v-.117h-.19v-.108h-.399v-.108h-.19v-.117h-.4v-.108h-.208v-.118h-.381v-.107h-.399v-.118h-.399v-.108h-.399v-.108h-.398v-.117h-.59v-.108h-.59v-.117h-.589v-.108h-.607v-.108h-.78v-.118h-1.197v-.107H64.795v.107h-.78v.118h-.798v.108h-.59v.108h-.589v.117h-.607v.108h-.381v.117h-.607v.108h-.399v.108h-.381v.118h-.4v.107h-.207v.118h-.382v.108h-.208v.117h-.399v.108h-.381v.108h-.208v.117h-.399v.108h-.19v.118h-.209v.107h-.19v.108h-.191v.118h-.208v.108H55.9v.117h-.208v.108h-.19v.108h-.192v.117h-.208v.108h-.19v.118h-.208v.107h-.191v.118h-.19v.108h-.21v.225h-.19v.225h-.208v.108h-.19v.225h-.191v.108h-.208v.226h-.191v.225h-.208v.225h-.191v.226h-.208v.215h-.19v.226h-.192v.333h-.208v.343h-.19v.333h-.208v.333h-.191v.558h-.19v1.01h-.209v44.048h.208v2.234h.19v1.01h.192v.89h.208v.451h.19v.559h.208v.333h.191v.45h.19v.334h.209v.333h.19v.333h.209v.225h.19v.333h.209v.226h.19v.333h.191v.225h.208v.226h.19v.225h.21v.225h.19v.216h.19v.225h.209v.118h.19v.225h.208v.216h.191v.117h.19v.225h.209v.108h.19v.226h.209v.107h.19v.226h.191v.107h.208v.118h.191v.225h.208v.226h.19v.108h.209v.107h.19v.118h.191v.108h.209v.225h.19v.108h.208v.117h.191v.108h.19v.118h.209v.107h.19v.108h.209v.118h.19v.108h.191v.117h.208v.108h.191v.117h.208v.108h.19v.108h.209v.118h.19v.107h.191v.118h.208v.108h.191v.107h.208v.118h.191v.108h.19v.225h.209v.108h.19v.117h.209v.108h.19v.118h.191v.108h.208v.117h.19v.216h.209v.117h.19v.108h.209v.118h.19v.107h.191v.108h.208v.118h.191v.225h.208v.108h.19v.108h.192v.117h.208v.108h.19v.117h.209v.108h.19v.226h.191v.107h.208v.118h.19v.108h.209v.117h.19v.108h.209v.108h.19v.225h.191v.118h.208v.107h.191v.108h.208v.118h.19v.108h.192v.117h.208v.216h.19v.117h.208v.108h.191v.118h.191v.107h.208v.226h.19v.107h.209v.118h.19v.108h.191v.117h.208v.108h.191v.108h.208v.225h.19v.118h.209v.108h.19v.107h.191v.118h.209v.108h.19v.117h.208v.226h.191v.107h.19v.108h.209v.118h.19v.108h.209v.117h.19v.108h.191v.225h.208v.108h.191v.118h.208v.107h.19v.108h.209v.118h.19v.107h.191v.226h.209v.117h.19v.108h.208v.108h.191v.117h.19v.108h.209v.118h.19v.215h.209v.118h.19v.108h.191v.117h.208v.108h.191v.108h.208v.117h.19v.226h.209v.107h.19v.108h.191v.118h.208v.108h.191v.225h.208v.117h.191v.108h.19v.108h.209v.118h.19v.107h.209v.118h.19v.215h.191v.118h.208v.108h.19v.117h.209v.108h.19v.108h.209v.117h.19v.226h.191v.108h.208v.117h.191v.108h.208v.108h.19v.117h.192v.108h.208v.225h.19v.108h.209v.118h.19v.107h.191v.118h.208v.108h.19v.108h.209v.225h.19v.117h.191v.108h.208v.118h.191v.108h.208v.107h.191v.118h.208v.225h.19v.108h.192v.108h.208v.117h.19v.108h.208v.118h.191v.107h.19v.226h.209v.108h.19v.117h.209v.108h.19v.118h.191v.107h.208v.108h.191v.225h.208v.118h.19v.108h.209v.107h.19v.118h.191v.108h.209v.117h.19v.108h.208v.108h.191v.118h.19v.107h.209v.118h.19v.215h.209v.118h.19v.108h.191v.117h.208v.108h.191v.118h.208v.107h.19v.226h.209v.108h.19v.117h.191v.108h.208v.108h.191v.117h.208v.108h.191v.225h.19v.108h.209v.118h.19v.107h.209v.118h.19v.108h.191v.117h.208v.216h.19v.117h.21v.108h.19v.118h.208v.108h.19v.107h.191v.118h.208v.225h.191v.108h.208v.108h.191v.117h.19v.108h.209v.118h.19v.107h.209v.226h.19v.108h.191v.117h.208v.108h.19v.117h.209v.108h.19v.108h.209v.225h.19v.118h.191v.108h.208v.107h.191v.118h.208v.225h.19v.108h.192v.118h.208v.107h.19v.108h.209v.118h.19v.108h.191v.225h.208v.108h.19v.117h.209v.108h.19v.118h.191v.107h.208v.108h.191v.225h.208v.118h.191v.108h.208v.117h.19v.108h.192v.108h.208v.118h.19v.225h.208v.108h.191v.107h.19v.118h.209v.108h.19v.117h.209v.108h.19v.225h.191v.108h.208v.118h.191v.108h.208v.107h.19v.118h.209v.108h.19v.225h.191v.118h.209v.107h.19v.108h.208v.118h.191v.107h.19v.118h.209v.216h.19v.117h.209v.108h.19v.117h.191v.108h.208v.226h.191v.107h.208v.118h.19v.108h.209v.117h.19v.108h.191v.108h.208v.225h.191v.118h.208v.107h.191v.108h.19v.118h.209v.108h.19v.117h.209v.216h.19v.117h.191v.108h.208v.118h.191v.107h.208v.118h.19v.108h.209v.225h.19v.108h.191v.117h.208v.108h.191v.108h.208v.117h.19v.108h.192v.226h.208v.107h.19v.118h.209v.108h.19v.117h.191v.108h.208v.118h.19v.215h.209v.118h.19v.107h.191v.118h.209v.108h.19v.108h.208v.117h.191v.226h.208v.107h.19v.108h.192v.118h.208v.107h.19v.118h.208v.108h.191v.225h.191v.108h.208v.117h.19v.108h.209v.118h.19v.215h.191v.118h.208v.108h.191v.117h.208v.108h.191v.108h.208v.117h.19v.226h.192v.107h.208v.108h.19v.118h.208v.108h.191v.117h.19v.108h.209v.225h.19v.108h.209v.118h.19v.107h.191v.118h.208v.108h.191v.107h.208v.226h.19v.117h.209v.108h.19v.108h.191v.117h.209v.108h.19v.118h.208v.225h.191v.108h.19v.108h.209v.117h.19v.108h.209v.118h.19v.107h.191v.226h.208v.107h.191v.118h.208v.108h.19v.108h.209v.117h.19v.108h.191v.225h.208v.118h.191v.108h.208v.107h.191v.118h.19v.108h.209v.117h.19v.108h.209v.108h.19v.117h.191v.108h.208v.118h.19v.215h.209v.118h.19v.108h.191v.117h.209v.108h.19v.108h.208v.117h.191v.226h.208v.107h.191v.118h.19v.108h.209v.108h.19v.117h.209v.108h.19v.225h.191v.108h.208v.118h.19v.107h.209v.118h.19v.108h.191v.107h.208v.226h.191v.117h.208v.108h.191v.118h.208v.107h.19v.108h.192v.118h.208v.225h.19v.108h.208v.108h.191v.117h.191v.108h.208v.118h.19v.107h.209v.226h.19v.107h.191v.118h.208v.108h.191v.117h.208v.108h.191v.108h.208v.225h.19v.118h.192v.108h.208V146h.19v.118h.208v.225h.191v.108h.19v.108h.209v.117h.19v.108h.209v.118h.19v.107h.191v.226h.208v.108h.191v.117h.208v.108h.19v.117h.209v.108h.19v.108h.191v.225h.209v.118h.19v.108h.208v.107h.191v.118h.19v.108h.209v.117h.19v.226h.209v.107h.19v.108h.191v.118h.208v.108h.191v.117h.208v.108h.19v.225h.209v.108h.19v.118h.191v.107h.208v.108h.191v.118h.208v.107h.191v.226h.19v.108h.209v.117h.19v.108h.209v.118h.19v.107h.191v.118h.208v.215h.19v.118h.209v.108h.19v.117h.191v.108h.209v.108h.19v.117h.208v.226h.191v.108h.208v.107h.19v.118h.192v.108h.208v.225h.19v.118h.209v.107h.19v.108h.191v.118h.208v.107h.19v.118h.209v.216h.19v.117h.191v.108h.209v.117h.19v.108h.208v.108h.191v.118h.208v.225h.19v.108h.192v.117h.208v.108h.19v.108h.208v.117h.191v.108h.191v.225h.208v.108h.19v.118h.209v.108h.19v.117h.191v.108h.208v.108h.191v.225h.208v.118h.191v.107h.208v.118h.19v.108h.192v.107h.208v.118h.19v.225h.208v.108h.191v.108h.19v.117h.209v.108h.19v.118h.209v.108h.19v.225h.191v.108h.208v.117h.191v.108h.208v.108h.19v.225h.209v.118h.19v.108h.191v.117h.209v.108h.19v.108h.208v.117h.191v.225h.19v.108h.209v.108h.19v.118h.209v.107h.19v.118h.191v.108h.208v.225h.191v.108h.208v.117h.19v.108h.192v.118h.208v.108h.19v.107h.208v.226h.191v.117h.208v.108h.191v.108h.19v.117h.209v.108h.19v.118h.209v.215h.19V163h.191v.108h.208v.117h.19v.108h.209v.117h.19v.108h.191v.226h.209v.107h.19v.118h.208v.108h.191v.107h.208v.118h.19v.108h.192v.225h.208v.108h.19v.117h.209v.108h.19v.118h.191v.108h.208v.117h.19v.216h.209v.117h.19v.108h.191v.118h.208v.107h.191v.108h.208v.118h.191v.107h.208v.118h.19v.108h.192v.108h.208v.117h.19v.225h.208v.108h.191v.108h.19v.118h.209v.107h.19v.118h.209v.108h.19v.225h.191v.108h.208v.117h.191v.108h.208v.118h.191v.107h.208v.108h.19v.226h.191v.117h.209v.108h.19v.108h.208v.117h.191v.108h.19v.118h.209v.225h.19v.108h.209v.107h.19v.118h.191v.108h.208v.117h.191v.108h.208v.226h.19v.107h.192v.118h.208v.108h.19v.107h.209v.118h.19v.108h.208v.225h.191v.118h.19v.107h.209v.108h.19v.118h.209v.225h.19v.108h.191v.108h.208v.117h.191v.108h.208v.118h.19v.107h.192v.226h.208v.107h.19v.118h.208v.108h.191v.117h.208v.108h.191v.108h.19v.225h.209v.118h.19v.108h.209v.107h.19v.118h.191v.108h.208v.117h.19v.216h.209v.117h.19v.108h.191v.118h.209v.107h.19v.118h.208v.108h.191v.225h.208v.108h.19v.117h.192v.108h.208v.108h.19v.118h.209v.107h.19v.226h.191v.107h.208v.118h.19v.108h.209v.117h.19v.108h.191v.108h.208v.117h.191v.108h.208v.118h.191v.108h.208v.225h.19v.108h.192v.117h.208v.108h.19v.118h.208v.107h.191v.108h.19v.118h.209v.107h.19v.118h.209v.108h.19v.225h.191v.108h.208v.118h.191v.107h.208v.118h.19v.108h.209v.107h.19v.118h.192v.225h.208v.108h.19v.108h.208v.117h.191v.108h.19v.118H195v.107h.19v.108h.209v.118h.19v.108h.191v.225h.208v.118h.191v.107h.208v.226h.19v.107h.192v.118h.208v.108h.19v.108h.208v.117h.191v.225h.208v.108h.191v.108h.19v.225h.209v.118h.19v.108h.209v.225h.19v.108h.191v.117h.208v.226h.191v.107h.208v.226h.19v.108h.192v.225h.208v.225h.19v.108h.208v.225h.191v.226h.208v.225h.19v.225h.192v.216h.208v.343h.19v.215h.209v.343h.19v.333h.191v.451h.208v.44h.19v.56h.209v.558h.19v.558h.191v.676h.209v1.45h.19v.451h.208v1h.191v1.46h.208v1.9h.19v4.027h.192v66.74h-.191v1.567h-.19v1h-.209v.783h-.19v.676h-.209v.558h-.19v.559h-.209v.45h-.19v.441h-.191v.333h-.208v.451h-.19v.333h-.209v.343h-.19v.333h-.191v.333h-.208v.226h-.191v.333h-.208v.333h-.191v.225h-.19v.226h-.209v.225h-.19v.333h-.209v.225h-.19v.226h-.208v.215h-.191v.118h-.19v.225h-.209v.226h-.19v.215h-.209v.225h-.19v.118h-.191v.216h-.208v.117h-.191v.225h-.208v.216h-.191v.118h-.19v.225h-.209v.108h-.19v.117h-.209v.216h-.19v.117h-.208v.108h-.191v.225h-.19v.108h-.209v.118h-.19v.108h-.209v.225h-.19v.108h-.191v.117h-.208v.108H195v.118h-.208v.107h-.19v.108h-.192v.225h-.208v.118h-.19v.108h-.208v.117h-.191v.108h-.191v.108h-.208v.117h-.19v.108h-.4v.118h-.208v.108h-.19v.107h-.191v.118h-.208v.108h-.191v.117h-.208v.108h-.382v.108h-.208v.117h-.19v.108h-.208v.118h-.382v.107h-.208v.118h-.19v.108h-.4v.108h-.208v.117h-.381v.108h-.208v.117h-.399v.108h-.19v.108h-.4v.118h-.19v.107h-.4v.118h-.398v.108h-.19v.108h-.4v.117h-.398v.108h-.4v.117h-.398v.108h-.381v.118h-.4v.108h-.398v.107h-.399v.118h-.399v.108h-.398v.117h-.59v.108h-.399v.108h-.59v.117h-.589v.108h-.59v.118h-.606v.107h-.78v.108h-.59v.118h-.798v.108h-.798v.117h-.78v.108h-.797v.117h-.989v.108h-.988v.108h-1.197v.118h-1.578v.107h-1.976v.118H36.514v-.118h-2.185v-.107h-1.578v-.118h-1.387v-.108h-1.196v-.108h-.989v-.117h-.988v-.108h-.78v-.117h-.798v-.108h-.798v-.118h-.78v-.108h-.607v-.107h-.59v-.118h-.589v-.108h-.59v-.117h-.589v-.108h-.399v-.108h-.59v-.117h-.398v-.108h-.607v-.118h-.382v-.107h-.398v-.108h-.4v-.118h-.398v-.108h-.399v-.117h-.381v-.108h-.4v-.117h-.207v-.108h-.399v-.108h-.381v-.118h-.209v-.107h-.398v-.118h-.191v-.108h-.399v-.108h-.19v-.117h-.4v-.108h-.19v-.117h-.399v-.108h-.208v-.108h-.19v-.118h-.4v-.107h-.19v-.118h-.208v-.108h-.191v-.117h-.208v-.108h-.382v-.108h-.208v-.117h-.19v-.108h-.209v-.118h-.19v-.107h-.191v-.108h-.208v-.118h-.191v-.108h-.208v-.117h-.19v-.108h-.209v-.108h-.19v-.117h-.191v-.108h-.208v-.118h-.191v-.107h-.208v-.226h-.191v-.107h-.19v-.118h-.209v-.108h-.19v-.117h-.209v-.216h-.19v-.117h-.191v-.108h-.208v-.226h-.19v-.107h-.209v-.226h-.19v-.117h-.191v-.216h-.209v-.117h-.19v-.226H6.03v-.107H5.84v-.226h-.208v-.225h-.19v-.225H5.25v-.108h-.208v-.226h-.19v-.225h-.209v-.215h-.19v-.226h-.191v-.343h-.208v-.215h-.19v-.226h-.209v-.225h-.19v-.333h-.191v-.333h-.208v-.226h-.191v-.342h-.208v-.334h-.191v-.44h-.208v-.343h-.19v-.441h-.192v-.45h-.208v-.452h-.19v-.44H1.28v-.559h-.191v-.558h-.19v-.676H.69v-.784H.5v-1H.29v-1.342h-.19v-67.19h.19v-1.234H.5v-.784H.69v-.559h.208v-.44h.19v-.344h.192v-.333h.208v-.225h.19v-.225h.208v-.216h.191v-.117h.19v-.108h.209v-.118h.19v-.108h.209v-.107h.19v-.118h.209v-.108h.19v-.117h.4v-.108h.19v-.108h.399v-.117h.59v-.108h.589v-.118h.797v-.107h.989v-.118h1.196v-.108h2.567v-.108H39.67v.108h2.375v.108h1.388v.118h.797v.107h.78v.118h.59v.108H46v.117h.399v.108h.399v.108h.19v.117h.208v.108h.191v.118h.208v.107h.19v.108h.192v.226h.208v.117h.19v.216h.209v.343h.19v.333h.191v.45h.208v.667h.19v1.009h.209v52.435h.19v1.225h.209v.558h.19v.333h.191v.343h.208v.333h.191v.334h.208v.225h.19v.225h.192v.216h.208v.225h.19v.225h.208v.226h.191v.108h.19v.225h.209v.118h.19v.215h.209v.118h.19v.107h.209v.226h.19v.108h.191v.117h.208v.108h.19v.117h.21v.108h.19v.118h.19v.108h.209v.107h.19v.118h.208v.108h.191v.117h.19v.108h.209v.108h.399v.117h.19v.108h.191v.118h.4v.107h.207v.108h.399v.118h.381v.108h.4v.117h.207v.108h.382v.117h.607v.108h.381v.108h.399v.118h.607v.107h.59v.118h.589v.108h.988v.107h1.578v.118h75.394v-.118h1.387v-.107h.988v-.108h.59v-.118h.59v-.107h.606v-.118h.382v-.108h.607v-.108h.381v-.117h.399v-.108h.399v-.117h.399v-.108h.19v-.118h.4v-.108h.207v-.107h.382v-.118h.208v-.108h.399v-.117h.19v-.108h.191v-.108h.208v-.117h.19v-.108h.4v-.118h.19v-.107h.209v-.108h.19v-.118h.208v-.108h.191v-.225h.208v-.117h.19v-.108h.192v-.108h.208v-.118h.19v-.225h.209v-.108h.19v-.225h.191v-.108h.208v-.225h.19v-.108h.209v-.225h.19v-.226h.191v-.225h.209v-.225h.19v-.226h.208v-.333h.191v-.333h.208v-.333h.19v-.333h.192v-.45h.208v-.785h.19v-49.075h-.19v-1.46h-.208v-.89h-.191v-.56h-.19v-.558h-.209v-.45h-.19v-.334h-.209v-.333h-.19v-.343h-.209v-.333h-.19v-.333h-.191v-.225h-.208v-.333h-.19v-.226h-.209v-.225h-.19v-.225h-.191v-.333h-.208v-.226h-.191v-.215h-.208v-.118h-.191v-.225h-.19v-.216h-.209v-.225h-.19v-.225h-.209v-.118h-.19v-.216h-.209v-.117h-.19v-.225h-.191v-.216h-.208v-.118h-.19v-.225h-.209v-.108h-.19v-.225h-.191v-.108h-.208v-.225h-.191v-.118h-.208v-.107h-.191v-.226h-.19v-.108h-.209v-.117h-.19v-.216h-.209v-.117h-.19v-.108h-.191v-.225h-.208v-.108h-.19v-.118h-.209v-.225h-.19v-.108h-.209v-.108h-.19v-.117h-.191v-.225h-.208v-.108h-.191v-.118h-.208v-.108h-.19v-.107h-.192v-.226h-.208v-.117h-.19v-.108h-.209v-.108h-.19v-.117h-.191v-.108h-.208v-.118h-.19v-.215h-.209v-.118h-.19v-.108h-.209v-.117h-.19v-.108h-.191v-.118h-.208v-.107h-.191v-.226h-.208v-.107h-.19v-.118h-.192v-.108h-.208v-.107h-.19v-.118h-.208v-.108h-.191v-.225h-.191v-.108h-.208v-.118h-.19v-.107h-.209v-.118h-.19v-.108h-.209v-.117h-.19v-.216h-.191v-.117h-.208v-.108h-.191v-.118h-.208v-.107h-.19v-.108h-.192v-.118h-.208v-.225h-.19v-.108h-.208v-.108h-.191v-.117h-.19v-.108h-.209v-.118h-.19v-.107h-.209v-.226h-.19v-.107h-.209v-.118h-.19v-.108h-.191v-.117h-.208v-.108h-.19v-.108h-.209v-.225h-.19v-.118h-.191v-.108h-.209v-.107h-.19v-.118h-.208v-.108h-.191v-.117h-.19v-.216h-.209v-.117h-.19v-.108h-.209v-.118h-.19v-.107h-.209v-.118h-.19v-.108h-.191v-.225h-.208v-.108h-.19v-.117h-.209v-.108h-.19v-.108h-.191v-.118h-.208v-.107h-.191v-.226h-.208v-.107h-.191v-.118h-.19v-.108h-.209v-.117h-.19v-.108h-.209v-.118h-.19v-.215h-.191v-.118h-.208v-.108h-.19v-.117h-.209v-.108h-.19v-.108h-.209v-.117h-.19v-.226h-.191v-.107h-.208v-.108h-.191v-.118h-.208v-.107h-.19v-.118h-.192v-.108h-.208v-.225h-.19v-.108h-.209v-.118h-.19v-.107h-.191v-.118h-.208v-.108h-.19v-.107h-.209v-.226h-.19v-.117h-.209v-.108h-.19v-.108h-.191v-.117h-.208v-.108h-.191v-.118h-.208v-.225h-.19v-.108h-.192v-.108h-.208v-.117h-.19v-.108h-.208v-.118h-.191v-.107h-.19v-.226h-.209v-.107h-.19v-.118h-.209v-.108h-.19v-.108h-.209v-.117h-.19v-.108h-.191v-.225h-.208v-.108h-.19v-.118h-.209v-.107h-.19v-.118h-.192v-.108h-.208v-.117h-.19v-.216h-.208v-.117h-.191v-.108h-.19v-.118h-.209v-.107h-.19v-.108h-.209v-.118h-.19v-.225h-.209v-.108h-.19v-.108h-.191v-.117h-.208v-.108h-.19v-.118h-.209v-.107h-.19v-.226h-.191v-.107h-.208v-.118h-.191v-.108h-.208v-.117h-.191v-.108h-.19v-.108h-.209v-.225h-.19v-.118h-.209v-.108h-.19v-.107h-.191v-.118h-.208v-.108h-.191v-.117h-.208v-.226h-.19v-.107h-.209v-.108h-.19v-.118h-.191v-.107h-.208v-.118h-.191v-.216h-.208v-.117h-.191v-.108h-.19v-.118h-.209v-.107h-.19v-.108h-.209v-.118h-.19v-.225h-.191v-.108h-.208v-.117h-.19v-.108h-.209v-.108h-.19v-.117h-.209v-.108h-.19v-.226h-.191v-.107h-.208v-.118h-.191v-.108h-.208v-.117h-.19v-.108h-.192v-.108h-.208v-.225h-.19v-.118h-.209v-.107h-.19v-.118h-.191v-.108h-.208v-.108h-.19v-.117h-.209v-.225h-.19v-.108h-.209v-.108h-.19v-.118h-.191v-.107h-.208v-.118h-.191v-.108h-.208v-.225h-.19v-.108h-.192v-.117h-.208v-.108h-.19v-.108h-.208v-.117h-.191v-.108h-.19v-.226h-.209v-.117h-.19v-.108h-.209v-.108h-.19v-.117h-.209v-.108h-.19v-.118h-.191v-.215h-.208v-.118h-.19v-.107h-.209v-.118h-.19v-.108h-.191v-.108h-.209v-.117h-.19v-.225h-.208v-.108h-.191v-.118h-.19v-.108h-.209v-.107h-.19v-.118h-.209v-.108h-.19v-.225h-.191v-.108h-.208v-.117h-.191v-.108h-.208v-.118h-.19v-.107h-.209v-.108h-.19v-.226h-.191v-.117h-.208v-.108h-.191v-.118h-.208v-.107h-.191v-.108h-.19v-.118h-.209v-.225h-.19v-.108h-.209v-.108h-.19v-.117h-.191v-.108h-.208v-.117h-.19v-.108h-.21v-.225h-.19v-.108h-.208v-.118h-.19v-.108h-.191v-.117h-.208v-.108h-.191v-.108h-.208v-.225h-.191v-.118h-.19v-.107h-.209v-.108h-.19v-.118h-.209v-.108h-.19v-.117h-.191v-.216h-.208v-.117h-.19v-.108h-.209v-.118h-.19v-.107h-.209v-.108h-.19v-.118h-.191v-.225h-.208v-.108h-.191v-.117h-.208v-.108h-.19v-.108h-.192v-.117h-.208v-.108h-.19v-.226h-.209v-.107h-.19v-.118h-.191v-.108h-.208v-.117h-.19v-.108h-.209v-.108h-.19v-.225h-.209v-.118h-.19v-.107h-.191v-.118h-.208v-.108h-.191v-.108h-.208v-.117h-.19v-.225h-.192v-.108h-.208v-.108h-.19v-.118h-.208v-.107h-.191v-.118h-.19v-.108h-.209v-.225h-.19v-.108h-.209v-.117h-.19v-.108h-.209v-.118h-.19v-.107h-.191v-.108h-.208v-.226h-.19v-.117h-.209v-.108h-.19v-.108h-.191v-.117h-.209v-.108h-.19v-.118h-.208v-.215H83.4v-.118h-.19v-.107h-.209v-.118h-.19v-.108h-.209v-.117h-.19v-.108h-.191v-.226h-.208v-.107h-.191v-.118h-.208v-.108h-.19v-.107h-.209v-.118h-.19v-.108h-.191v-.225h-.208v-.108h-.191v-.117h-.208v-.108h-.191v-.118h-.19v-.108h-.209v-.107h-.19v-.226h-.209v-.117h-.19v-.108h-.191v-.118h-.208v-.107h-.19v-.108h-.209v-.118h-.19v-.225h-.209v-.108h-.19v-.108h-.191v-.117h-.208v-.108h-.191v-.117h-.208v-.108h-.19v-.226h-.192v-.107h-.208v-.118h-.19v-.108h-.209v-.117h-.19v-.108h-.191v-.108h-.208v-.225h-.19V146h-.209v-.107h-.19v-.108h-.209v-.118h-.19v-.108h-.191v-.117h-.208v-.216h-.191v-.117H73.5V145h-.19v-.118h-.192v-.107h-.208v-.118h-.19v-.108h-.209v-.225h-.19v-.108h-.191v-.117h-.208v-.108h-.19v-.108h-.209v-.117h-.19v-.108h-.209v-.226h-.19v-.107h-.191v-.118h-.208v-.108h-.191v-.117h-.208v-.108h-.19v-.225h-.192v-.108h-.208v-.118h-.19v-.107h-.208v-.118h-.191v-.108h-.19v-.108h-.209v-.225h-.19v-.117h-.209v-.108h-.19v-.108h-.191v-.118h-.208v-.107h-.191v-.118h-.208v-.225h-.19v-.108h-.209v-.108h-.19v-.117h-.191v-.108h-.209v-.118h-.19v-.108h-.208v-.225h-.191v-.108h-.19v-.117h-.209v-.108h-.19v-.108h-.209v-.117h-.19v-.108h-.191v-.225h-.208v-.108h-.191v-.118h-.208v-.108h-.19v-.117h-.209v-.108h-.19v-.117h-.191v-.216h-.208v-.118h-.191v-.107h-.208v-.118h-.191v-.108h-.19v-.107h-.209v-.118h-.19v-.225h-.209v-.108h-.19v-.108h-.191v-.117h-.208v-.108h-.19v-.118h-.209v-.108h-.19v-.225h-.209v-.108h-.19v-.117h-.191v-.108h-.208v-.118h-.191v-.107h-.208v-.108h-.19v-.225h-.192v-.118h-.208v-.108h-.19v-.108h-.209v-.117h-.19v-.108h-.191v-.117h-.208v-.226h-.19v-.108h-.209v-.107h-.19v-.118h-.209v-.108h-.19v-.117h-.191v-.108h-.208v-.225H55.9v-.108h-.208v-.118h-.19v-.107h-.192v-.108h-.208v-.118h-.19v-.108h-.208v-.225h-.191v-.118h-.19v-.107h-.21v-.108h-.19v-.118h-.208v-.107h-.19v-.118h-.191v-.215h-.208v-.118h-.191v-.108h-.208v-.117h-.191v-.108h-.208v-.108h-.19v-.118h-.192v-.225h-.208v-.108h-.19v-.107h-.208v-.118h-.191v-.108h-.19v-.117h-.209v-.108h-.19v-.225h-.209v-.108h-.19v-.118h-.191v-.108h-.208v-.117h-.191v-.108h-.208v-.108h-.19v-.225h-.209v-.118h-.19v-.107h-.191v-.108h-.209v-.118h-.19v-.107h-.208v-.118h-.191v-.225h-.19v-.108h-.209v-.108h-.19v-.117h-.209v-.108h-.19v-.118h-.191v-.108h-.208v-.225h-.191v-.108h-.208v-.117h-.19v-.108H45.6v-.108h-.19v-.117h-.191v-.108h-.208v-.225h-.191v-.118h-.208v-.108h-.191v-.108h-.19v-.117h-.209v-.108h-.19v-.117h-.209v-.216h-.19v-.118h-.191v-.107h-.208v-.118h-.19v-.108h-.209v-.107h-.19v-.118h-.209v-.225h-.19v-.108h-.191v-.118h-.208v-.107h-.191v-.108h-.208v-.118h-.19v-.108h-.192v-.225h-.208v-.108h-.19v-.117h-.209v-.108h-.19v-.118h-.191v-.107h-.208v-.108h-.19v-.225h-.209v-.118h-.19v-.108h-.209v-.108h-.19v-.117h-.191v-.108h-.208v-.118h-.191v-.225h-.208v-.108h-.19v-.107h-.192v-.118h-.208v-.108h-.19v-.117h-.208v-.108h-.191v-.225h-.191v-.108h-.208v-.118h-.19v-.108h-.209v-.107h-.19v-.118h-.191v-.108h-.208v-.225h-.191v-.118h-.208v-.107h-.19v-.108h-.209v-.118h-.19v-.107h-.191v-.118h-.209v-.216h-.19v-.117h-.208v-.108h-.191v-.117h-.19v-.108h-.209v-.108h-.19v-.118h-.209v-.225h-.19v-.108h-.191v-.117h-.208v-.108h-.191v-.108h-.208v-.117h-.19v-.108h-.209v-.225h-.19v-.108h-.191v-.118h-.208v-.108h-.191v-.117h-.208v-.108h-.191v-.108h-.19v-.225h-.209v-.118h-.19v-.107h-.209v-.118h-.19v-.108h-.191v-.107h-.208v-.226h-.191v-.117h-.208v-.108H28v-.108h-.209v-.117h-.19v-.108h-.191v-.118h-.208v-.215h-.191v-.118h-.208v-.108h-.191v-.117h-.19v-.108h-.209v-.118h-.19v-.107h-.209v-.226h-.19v-.107h-.191v-.118h-.208v-.108h-.19v-.108h-.209v-.117h-.19v-.108h-.209v-.225h-.19v-.108h-.191v-.118h-.208v-.107h-.191v-.118h-.208v-.108h-.19v-.107h-.192v-.226h-.208v-.117h-.19v-.108h-.209v-.118h-.19v-.108h-.191v-.107h-.208v-.118h-.19v-.225h-.209v-.108h-.19v-.108h-.191v-.117h-.208v-.108h-.191v-.118h-.208v-.107h-.191v-.226h-.208v-.108h-.19v-.117h-.192v-.108h-.208v-.117h-.19v-.108h-.208v-.108h-.191v-.225h-.19v-.118h-.209v-.108h-.19v-.107h-.209v-.118h-.19v-.108h-.191v-.117h-.208v-.216h-.191v-.117h-.208v-.108h-.19v-.118h-.209v-.108h-.19v-.117h-.191v-.108h-.209v-.108h-.19v-.225h-.208v-.118h-.191v-.107h-.19v-.108h-.209v-.118h-.19v-.107h-.209v-.118h-.19v-.108h-.191v-.225h-.208v-.108h-.191v-.117h-.208v-.108h-.19v-.118h-.209v-.108h-.19v-.107h-.191v-.226h-.208v-.117h-.191v-.108h-.208v-.108h-.191v-.117h-.19v-.108h-.209v-.118h-.19v-.215h-.209v-.118h-.19v-.108h-.191v-.117h-.208v-.108h-.191v-.108h-.208v-.225h-.19v-.118h-.209v-.107h-.19v-.118h-.191v-.108h-.208v-.225h-.191v-.108h-.208v-.117h-.191v-.108h-.19v-.225h-.209v-.108h-.19v-.118h-.209v-.215h-.19v-.118h-.191v-.108h-.208v-.225h-.19v-.118h-.209v-.107h-.19v-.226h-.191v-.108h-.209v-.225h-.19v-.108H6.03v-.225H5.84v-.118h-.208v-.215h-.19v-.118H5.25v-.225h-.208v-.225h-.19v-.216h-.209v-.117h-.19v-.226h-.191v-.215h-.208v-.226h-.19v-.333h-.209v-.225h-.19v-.343h-.191v-.44h-.208v-.452h-.191v-.44h-.208v-.559h-.191v-.568h-.208v-.666h-.19v-.784h-.192v-1.01h-.208v-1.224h-.19v-2.018H1.28V19.78h.208v-1.675h.19v-1.117h.208v-1.01h.191v-.773h.19v-.677h.209z"/></svg>