<svg xmlns="http://www.w3.org/2000/svg" height="900px" width="900px" viewBox="0 0 459 520">
    <g id="s2-logo-full">
    <path class="two" fill="#D2741C"
        d="m273.64 273.41v-0.23h0.11v-0.23h0.11v-0.23h0.12v-0.22h0.11v-0.35h0.12v-0.23h0.11v-0.22h0.11v-0.35h0.12v-0.22h0.11v-0.23h0.12v-0.34h0.11v-0.23h0.12v-0.23h0.11v-0.34h0.11v-0.23h0.12v-0.23h0.11v-0.34h0.12v-0.23h0.11v-0.23h0.11v-0.23h0.12v-0.34h0.11v-0.23h0.12v-0.23h0.11v-0.34h0.11v-0.23h0.12v-0.22h0.11v-0.35h0.12v-0.23h0.11v-0.22h0.12v-0.35h0.11v-0.22h0.11v-0.23h0.12v-0.34h0.11v-0.23h0.12v-0.23h0.11v-0.23h0.11v-0.34h0.12v-0.23h0.11v-0.23h0.12v-0.34h0.11v-0.23h0.11v-0.23h0.12v-0.34h0.11v-0.23h0.12v-0.23h0.11v-0.34h0.12v-0.23h0.11v-0.22h0.11v-0.35h0.12v-0.22h0.11v-0.23h0.12v-0.23h0.11v-0.34h0.11v-0.23h0.12v-0.23h0.11v-0.34h0.12v-0.23h0.11v-0.23h0.11v-0.34h0.12v-0.23h0.11v-0.23h0.12v-0.34h0.11v-0.23h0.12v-0.23h0.11v-0.34h0.11v-0.23h0.12v-0.23h0.11v-0.22h0.12v-0.35h0.11v-0.22h0.11v-0.23h0.12v-0.34h0.11v-0.23h0.12v-0.23h0.11v-0.34h0.11v-0.23h0.12v-0.23h0.11v-0.34h0.12v-0.23h0.11v-0.23h0.11v-0.34h0.12v-0.23h0.11v-0.23h0.12v-0.23h0.11v-0.34h0.12v-0.23h0.11v-0.22h0.11v-0.35h0.12v-0.22h0.11v-0.23h0.12v-0.35h0.11v-0.22h0.11v-0.23h0.12v-0.34h0.11v-0.23h0.12v-0.23h0.11v-0.34h0.11v-0.23h0.12v-0.23h0.11v-0.23h0.12v-0.34h0.11v-0.23h0.12v-0.23h0.11v-0.34h0.11v-0.23h0.12v-0.22h0.11v-0.35h0.12v-0.23h0.11v-0.22h0.11v-0.35h0.12v-0.22h0.11v-0.23h0.12v-0.34h0.11v-0.23h0.11v-0.23h0.12v-0.23h0.11v-0.34h0.12v-0.23h0.11v-0.23h0.12v-0.34h0.11v-0.23h0.11v-0.23h0.12v-0.34h0.11v-0.23h0.12v-0.23h0.11v-0.34h0.11v-0.23h0.12v-0.22h0.11v-0.35h0.12v-0.23h0.11v-0.22h0.11v-0.23h0.12v-0.34h0.11v-0.23h0.12v-0.23h0.11v-0.34h0.12v-0.23h0.11v-0.23h0.11v-0.34h0.12v-0.23h0.11v-0.23h0.12v-0.34h0.11v-0.23h0.11v-0.23h0.12v-0.34h0.11v-0.23h0.12v-0.23h0.11v-0.22h0.11v-0.35h0.12v-0.22h0.11v-0.23h0.12v-0.34h0.11v-0.23h0.12v-0.23h0.11v-0.34h0.11v-0.23h0.12v-0.23h0.11v-0.34h0.12v-0.23h0.11v-0.23h0.11v-0.34h0.12v-0.23h0.11v-0.23h0.12v-0.23h0.11v-0.34h0.11v-0.23h0.12v-0.22h0.11v-0.35h0.12v-0.23h0.11v-0.22h0.11v-0.35h0.12v-0.22h0.11v-0.23h0.12v-0.34h0.11v-0.23h0.12v-0.23h0.11v-0.34h0.11v-0.23h0.12v-0.23h0.11v-0.23h0.12v-0.34h0.11v-0.23h0.11v-0.23h0.12v-0.34h0.11v-0.23h0.12v-0.23h0.11v-0.34h0.11v-0.23h0.12v-0.22h0.11v-0.35h0.12v-0.22h0.11v-0.23h0.12v-0.35h0.11v-0.22h0.11v-0.23h0.12v-0.23h0.11v-0.34h0.12v-0.23h0.11v-0.23h0.11v-0.34h0.12v-0.23h0.11v-0.23h0.12v-0.34h0.11v-0.23h0.11v-0.23h0.12v-0.34h0.11v-0.23h0.12v-0.22h0.11v-0.35h0.12v-0.23h0.11v-0.22h0.11v-0.23h0.12v-0.34h0.11v-0.23h0.12v-0.23h0.11v-0.34h0.11v-0.23h0.12v-0.23h0.11v-0.34h0.12v-0.23h0.11v-0.23h0.11v-0.34h0.12v-0.23h0.11v-0.23h0.12v-0.34h0.11v-0.23h0.12v-0.23h0.11v-0.22h0.11v-0.35h0.12v-0.22h0.11v-0.23h0.12v-0.35h0.11v-0.22h0.11v-0.23h0.12v-0.23h0.11v-0.23h0.12v-0.34h0.11v-0.23h0.11v-0.23h0.12v-0.22h0.11v-0.35h0.12v-0.23h0.11v-0.34h0.11v-0.23h0.12v-0.34h0.11v-0.23h0.12v-0.34h0.11v-0.23h0.12v-0.34h0.11v-0.34h0.11v-0.34h0.12v-0.35h0.11v-0.34h0.12v-0.34h0.11v-0.34h0.11v-0.35h0.12v-0.34h0.11v-0.45h0.12v-0.46h0.11v-0.46h0.11v-0.45h0.12v-0.69h0.11v-0.46h0.12v-0.91h0.11v-0.68h0.12v-1.71h0.11v-49.76h-0.11v-0.68h-0.12v-0.46h-0.11v-0.34h-0.12v-0.34h-0.11v-0.34h-0.12v-0.23h-0.11v-0.23h-0.11v-0.23h-0.12v-0.23h-0.11v-0.23h-0.12v-0.22h-0.11v-0.23h-0.11v-0.12h-0.12v-0.22h-0.11v-0.12h-0.12v-0.23h-0.11v-0.11h-0.11v-0.11h-0.12v-0.23h-0.11v-0.12h-0.12v-0.11h-0.11v-0.12h-0.12v-0.11h-0.11v-0.11h-0.11v-0.12h-0.12v-0.11h-0.11v-0.12h-0.12v-0.11h-0.11v-0.11h-0.23v-0.12h-0.11v-0.11h-0.12v-0.12h-0.22v-0.11h-0.12v-0.11h-0.23v-0.12h-0.11v-0.11h-0.23v-0.12h-0.23v-0.11h-0.23v-0.12h-0.22v-0.11h-0.23v-0.11h-0.23v-0.12h-0.23v-0.11h-0.34v-0.12h-0.34v-0.11h-0.35v-0.11h-0.45v-0.12h-0.8v-0.11h-43.7v0.11h-0.58v0.12h-0.45v0.11h-0.34v0.11h-0.35v0.12h-0.34v0.11h-0.23v0.12h-0.23v0.11h-0.22v0.11h-0.23v0.12h-0.23v0.11h-0.23v0.12h-0.23v0.11h-0.11v0.12h-0.23v0.11h-0.11v0.11h-0.23v0.12h-0.12v0.11h-0.11v0.12h-0.11v0.11h-0.23v0.11h-0.12v0.12h-0.11v0.11h-0.11v0.12h-0.12v0.11h-0.11v0.11h-0.12v0.12h-0.11v0.11h-0.11v0.12h-0.12v0.11h-0.11v0.12h-0.12v0.22h-0.11v0.23h-0.11v0.12h-0.12v0.11h-0.11v0.23h-0.12v0.23h-0.11v0.22h-0.12v0.12h-0.11v0.23h-0.11v0.23h-0.12v0.34h-0.11v0.23h-0.12v0.22h-0.11v0.35h-0.11v0.34h-0.12v0.45h-0.11v-13h-0.12v-2.63h-0.11v-1.37h-0.11v-1.02h-0.12v-0.92h-0.11v-0.8h-0.12v-0.68h-0.11v-0.57h-0.12v-0.57h-0.11v-0.57h-0.11v-0.46h-0.12v-0.46h-0.11v-0.45h-0.12v-0.34h-0.11v-0.46h-0.11v-0.34h-0.12v-0.35h-0.11v-0.34h-0.12v-0.34h-0.11v-0.34h-0.11v-0.23h-0.12v-0.34h-0.11v-0.23h-0.12v-0.23h-0.11v-0.34h-0.12v-0.23h-0.11v-0.23h-0.11v-0.23h-0.12v-0.22h-0.11v-0.23h-0.12v-0.12h-0.11v-0.22h-0.11v-0.23h-0.12v-0.12h-0.11v-0.23h-0.12v-0.22h-0.11v-0.12h-0.11v-0.23h-0.12v-0.11h-0.11v-0.11h-0.12v-0.23h-0.11v-0.12h-0.12v-0.11h-0.11v-0.11h-0.11v-0.23h-0.12v-0.12h-0.11v-0.11h-0.12v-0.12h-0.11v-0.11h-0.11v-0.11h-0.12v-0.12h-0.11v-0.11h-0.12v-0.12h-0.11v-0.11h-0.11v-0.11h-0.12v-0.12h-0.23v-0.11h-0.11v-0.12h-0.11v-0.11h-0.12v-0.11h-0.23v-0.12h-0.11v-0.11h-0.23v-0.12h-0.11v-0.11h-0.23v-0.12h-0.23v-0.11h-0.23v-0.11h-0.23v-0.12h-0.22v-0.11h-0.23v-0.12h-0.35v-0.11h-0.22v-0.11h-0.35v-0.12h-0.34v-0.11h-0.34v-0.12h-0.34v-0.11h-0.35v-0.11h-0.45v-0.12h-0.46v-0.11h-0.23v-0.12h0.57v-0.11h0.46v-0.12h0.69v-0.11h0.57v-0.11h0.68v-0.12h0.69v-0.11h0.79v-0.12h0.92v-0.11h1.37v-0.11h71.66v0.11h2.17v0.11h1.36v0.12h1.15v0.11h0.91v0.12h0.8v0.11h0.8v0.11h0.68v0.12h0.57v0.11h0.57v0.12h0.57v0.11h0.46v0.12h0.46v0.11h0.45v0.11h0.46v0.12h0.45v0.11h0.35v0.12h0.34v0.11h0.34v0.11h0.34v0.12h0.35v0.11h0.22v0.12h0.23v0.11h0.35v0.11h0.22v0.12h0.23v0.11h0.23v0.12h0.11v0.11h0.23v0.12h0.23v0.11h0.11v0.11h0.23v0.12h0.12v0.11h0.11v0.12h0.23v0.11h0.11v0.11h0.12v0.12h0.11v0.11h0.23v0.12h0.11v0.11h0.12v0.11h0.11v0.12h0.12v0.11h0.11v0.12h0.11v0.11h0.12v0.12h0.11v0.22h0.12v0.12h0.11v0.11h0.11v0.12h0.12v0.11h0.11v0.23h0.12v0.11h0.11v0.23h0.12v0.11h0.11v0.12h0.11v0.23h0.12v0.23h0.11v0.11h0.12v0.23h0.11v0.23h0.11v0.22h0.12v0.12h0.11v0.23h0.12v0.22h0.11v0.35h0.11v0.22h0.12v0.23h0.11v0.23h0.12v0.34h0.11v0.35h0.12v0.22h0.11v0.35h0.11v0.34h0.12v0.46h0.11v0.45h0.12v0.34h0.11v0.46h0.11v0.57h0.12v0.46h0.11v0.57h0.12v0.68h0.11v0.69h0.11v0.8h0.12v1.02h0.11v1.37h0.12v2.17h0.11v66.3h-0.11v2.05h-0.12v1.26h-0.11v1.14h-0.12v0.91h-0.11v0.8h-0.11v0.69h-0.12v0.68h-0.11v0.68h-0.12v0.58h-0.11v0.57h-0.11v0.57h-0.12v0.45h-0.11v0.46h-0.12v0.57h-0.11v0.46h-0.11v0.45h-0.12v0.34h-0.11v0.46h-0.12v0.46h-0.11v0.34h-0.12v0.46h-0.11v0.34h-0.11v0.34h-0.12v0.34h-0.11v0.46h-0.12v0.34h-0.11v0.23h-0.11v0.34h-0.12v0.35h-0.11v0.34h-0.12v0.34h-0.11v0.23h-0.11v0.34h-0.12v0.23h-0.11v0.34h-0.12v0.23h-0.11v0.34h-0.12v0.23h-0.11v0.34h-0.11v0.23h-0.12v0.23h-0.11v0.34h-0.12v0.23h-0.11v0.23h-0.11v0.23h-0.12v0.22h-0.11v0.23h-0.12v0.34h-0.11v0.23h-0.11v0.23h-0.12v0.34h-0.11v0.23h-0.12v0.23h-0.11v0.34h-0.11v0.23h-0.12v0.23h-0.11v0.34h-0.12v0.23h-0.11v0.23h-0.12v0.34h-0.11v0.23h-0.11v0.23h-0.12v0.34h-0.11v0.23h-0.12v0.22h-0.11v0.35h-0.11v0.23h-0.12v0.22h-0.11v0.35h-0.12v0.22h-0.11v0.23h-0.11v0.34h-0.12v0.23h-0.11v0.23h-0.12v0.34h-0.11v0.23h-0.12v0.23h-0.11v0.34h-0.11v0.23h-0.12v0.23h-0.11v0.34h-0.12v0.23h-0.11v0.23h-0.11v0.34h-0.12v0.23h-0.11v0.23h-0.12v0.34h-0.11v0.23h-0.11v0.34h-0.12v0.23h-0.11v0.23h-0.12v0.34h-0.11v0.23h-0.12v0.22h-0.11v0.35h-0.11v0.22h-0.12v0.23h-0.11v0.35h-0.12v0.22h-0.11v0.23h-0.11v0.34h-0.12v0.23h-0.11v0.23h-0.12v0.34h-0.11v0.23h-0.11v0.23h-0.12v0.34h-0.11v0.23h-0.12v0.23h-0.11v0.34h-0.12v0.23h-0.11v0.23h-0.11v0.34h-0.12v0.23h-0.11v0.23h-0.12v0.34h-0.11v0.23h-0.11v0.22h-0.12v0.35h-0.11v0.22h-0.12v0.23h-0.11v0.35h-0.11v0.22h-0.12v0.23h-0.11v0.34h-0.12v0.23h-0.11v0.23h-0.11v0.34h-0.12v0.23h-0.11v0.23h-0.12v0.34h-0.11v0.23h-0.12v0.23h-0.11v0.34h-0.11v0.23h-0.12v0.34h-0.11v0.23h-0.12v0.23h-0.11v0.34h-0.11v0.23h-0.12v0.23h-0.11v0.34h-0.12v0.23h-0.11v0.22h-0.11v0.35h-0.12v0.23h-0.11v0.22h-0.12v0.35h-0.11v0.22h-0.12v0.23h-0.11v0.34h-0.11v0.23h-0.12v0.23h-0.11v0.34h-0.12v0.23h-0.11v0.23h-0.11v0.34h-0.12v0.23h-0.11v0.23h-0.12v0.34h-0.11v0.23h-0.11v0.23h-0.12v0.34h-0.11v0.23h-0.12v0.23h-0.11v0.34h-0.12v0.23h-0.11v0.23h-0.11v0.34h-0.12v0.23h-0.11v0.22h-0.12v0.35h-0.11v0.22h-0.11v0.23h-0.12v0.34h-0.11v0.23h-0.12v0.23h-0.11v0.34h-0.11v0.23h-0.12v0.23h-0.11v0.34h-0.12v0.23h-0.11v0.23h-0.12v0.34h-0.11v0.23h-0.11v0.34h-0.12v0.23h-0.11v0.23h-0.12v0.34h-0.11v0.23h-0.11v0.23h-0.12v0.34h-0.11v0.23h-0.12v0.23h-0.11v0.34h-0.11v0.23h-0.12v0.22h-0.11v0.35h-0.12v0.23h-0.11v0.22h-0.12v0.35h-0.11v0.22h-0.11v0.23h-0.12v0.34h-0.11v0.23h-0.12v0.23h-0.11v0.34h-0.11v0.23h-0.12v0.23h-0.11v0.34h-0.12v0.23h-0.11v0.23h-0.11v0.34h-0.12v0.23h-0.11v0.23h-0.12v0.34h-0.11v0.23h-0.11v0.23h-0.12v0.34h-0.11v0.23h-0.12v0.22h-0.11v0.35h-0.12v0.23h-0.11v0.22h-0.11v0.35h-0.12v0.22h-0.11v0.23h-0.12v0.34h-0.11v0.23h-0.11v0.23h-0.12v0.34h-0.11v0.23h-0.12v0.34h-0.11v0.23h-0.11v0.23h-0.12v0.34h-0.11v0.23h-0.12v0.23h-0.11v0.34h-0.12v0.23h-0.11v0.23h-0.11v0.34h-0.12v0.23h-0.11v0.23h-0.12v0.34h-0.11v0.23h-0.11v0.23h-0.12v0.34h-0.11v0.23h-0.12v0.22h-0.11v0.35h-0.11v0.22h-0.12v0.23h-0.11v0.35h-0.12v0.22h-0.11v0.23h-0.12v0.34h-0.11v0.23h-0.11v0.23h-0.12v0.34h-0.11v0.23h-0.12v0.23h-0.11v0.34h-0.11v0.23h-0.12v0.23h-0.11v0.34h-0.12v0.23h-0.11v0.23h-0.11v0.34h-0.12v0.23h-0.11v0.23h-0.12v0.34h-0.11v0.23h-0.12v0.22h-0.11v0.35h-0.11v0.22h-0.12v0.23h-0.11v0.35h-0.12v0.22h-0.11v0.23h-0.11v0.34h-0.12v0.23h-0.11v0.34h-0.12v0.23h-0.11v0.23h-0.11v0.34h-0.12v0.23h-0.11v0.23h-0.12v0.34h-0.11v0.23h-0.11v0.23h-0.12v0.34h-0.11v0.23h-0.12v0.23h-0.11v0.34h-0.12v0.23h-0.11v0.23h-0.11v0.34h-0.12v0.23h-0.11v0.23h-0.12v0.34h-0.11v0.23h-0.11v0.22h-0.12v0.35h-0.11v0.22h-0.12v0.23h-0.11v0.35h-0.11v0.22h-0.12v0.23h-0.11v0.34h-0.12v0.23h-0.11v0.23h-0.12v0.34h-0.11v0.23h-0.11v0.23h-0.12v0.34h-0.11v0.23h-0.12v0.23h-0.11v0.34h-0.11v0.23h-0.12v0.23h-0.11v0.34h-0.12v0.23h-0.11v0.23h-0.11v0.34h-0.12v0.23h-0.11v0.22h-0.12v0.35h-0.11v0.22h-0.12v0.35h-0.11v0.23h-0.11v0.22h-0.12v0.35h-0.11v0.22h-0.12v0.23h-0.11v0.34h-0.11v0.23h-0.12v0.23h-0.11v0.34h-0.12v0.23h-0.11v0.23h-0.11v0.34h-0.12v0.23h-0.11v0.23h-0.12v0.34h-0.11v0.23h-0.12v0.23h-0.11v0.34h-0.11v0.23h-0.12v0.23h-0.11v0.34h-0.12v0.23h-0.11v0.22h-0.11v0.35h-0.12v0.23h-0.11v0.22h-0.12v0.35h-0.11v0.22h-0.11v0.23h-0.12v0.34h-0.11v0.23h-0.12v0.23h-0.11v0.34h-0.11v0.23h-0.12v0.23h-0.11v0.34h-0.12v0.23h-0.11v0.23h-0.12v0.34h-0.11v0.23h-0.11v0.23h-0.12v0.34h-0.11v0.23h-0.12v0.23h-0.11v0.34h-0.11v0.23h-0.12v0.22h-0.11v0.35h-0.12v0.23h-0.11v0.34h-0.11v0.23h-0.12v0.22h-0.11v0.35h-0.12v0.22h-0.11v0.23h-0.12v0.35h-0.11v0.22h-0.11v0.23h-0.12v0.34h-0.11v0.23h-0.12v0.23h-0.11v0.34h-0.11v0.23h-0.12v0.23h-0.11v0.34h-0.12v0.23h-0.11v0.23h-0.11v0.34h-0.12v0.23h-0.11v0.23h-0.12v0.34h-0.11v0.23h-0.12v0.23h-0.11v0.34h-0.11v0.23h-0.12v0.22h-0.11v0.35h-0.12v0.23h-0.11v0.22h-0.11v0.35h-0.12v0.22h-0.11v0.23h-0.12v0.34h-0.11v0.23h-0.11v0.23h-0.12v0.34h-0.11v0.23h-0.12v0.23h-0.11v0.34h-0.12v0.23h-0.11v0.23h-0.11v0.34h-0.12v0.23h-0.11v0.23h-0.12v0.34h-0.11v0.23h-0.11v0.34h-0.12v0.23h-0.11v0.23h-0.12v0.34h-0.11v0.23h-0.11v0.23h-0.12v0.34h-0.11v0.23h-0.12v0.22h-0.11v0.35h-0.12v0.22h-0.11v0.23h-0.11v0.35h-0.12v0.22h-0.11v0.23h-0.12v0.34h-0.11v0.23h-0.11v0.23h-0.12v0.34h-0.11v0.23h-0.12v0.23h-0.11v0.34h-0.11v0.23h-0.12v0.23h-0.11v0.34h-0.12v0.23h-0.11v0.23h-0.11v0.34h-0.12v0.23h-0.11v0.23h-0.12v0.34h-0.11v0.23h-0.12v0.22h-0.11v0.35h-0.11v0.22h-0.12v0.23h-0.11v0.35h-0.12v0.22h-0.11v0.23h-0.11v0.34h-0.12v0.23h-0.11v0.23h-0.12v0.34h-0.11v0.23h-0.11v0.23h-0.12v0.34h-0.11v0.23h-0.12v0.34h-0.11v0.23h-0.12v0.23h-0.11v0.34h-0.11v0.23h-0.12v0.23h-0.11v0.34h-0.12v0.23h-0.11v0.23h-0.11v0.34h-0.12v0.23h-0.11v0.22h-0.12v0.35h-0.11v0.23h-0.11v0.22h-0.12v0.35h-0.11v0.22h-0.12v0.23h-0.11v0.34h-0.12v0.23h-0.11v0.23h-0.11v0.34h-0.12v0.23h-0.11v0.23h-0.12v0.34h-0.11v0.23h-0.11v0.23h-0.12v0.34h-0.11v0.23h-0.12v0.23h-0.11v0.34h-0.11v0.23h-0.12v0.23h-0.11v0.34h-0.12v0.23h-0.11v0.23h-0.12v0.34h-0.11v0.23h-0.11v0.22h-0.12v0.35h-0.11v0.22h-0.12v0.23h-0.11v0.34h-0.11v0.23h-0.12v0.23h-0.11v0.34h-0.12v0.23h-0.11v0.23h-0.11v0.34h-0.12v0.23h-0.11v0.34h-0.12v0.23h-0.11v0.23h-0.11v0.34h-0.12v0.23h-0.11v0.23h-0.12v0.34h-0.11v0.23h-0.12v0.23h-0.11v0.34h-0.11v0.23h-0.12v0.23h-0.11v0.34h-0.12v0.23h-0.11v0.22h-0.11v0.35h-0.12v0.23h-0.11v0.22h-0.12v0.35h-0.11v0.22h-0.11v0.23h-0.12v0.34h-0.11v0.23h-0.12v0.23h-0.11v0.34h-0.12v0.23h-0.11v0.23h-0.11v0.34h-0.12v0.23h-0.11v0.23h-0.12v0.34h-0.11v0.23h-0.11v0.23h-0.12v0.34h-0.11v0.23h-0.12v0.23h-0.11v0.34h-0.11v0.23h-0.12v0.22h-0.11v0.35h-0.12v0.23h-0.11v0.22h-0.12v0.35h-0.11v0.22h-0.11v0.23h-0.12v0.34h-0.11v0.23h-0.12v0.35h-0.11v0.22h-0.11v0.23h-0.12v0.34h-0.11v0.23h-0.12v0.23h-0.11v0.34h-0.11v0.23h-0.12v0.23h-0.11v0.34h-0.12v0.23h-0.11v0.23h-0.12v0.34h-0.11v0.23h-0.11v0.23h-0.12v0.34h-0.11v0.23h-0.12v0.23h-0.11v0.34h-0.11v0.23h-0.12v0.22h-0.11v0.35h-0.12v0.22h-0.11v0.23h-0.11v0.35h-0.12v0.22h-0.11v0.23h-0.12v0.34h-0.11v0.23h-0.11v0.23h-0.12v0.34h-0.11v0.23h-0.12v0.23h-0.11v0.34h-0.12v0.23h-0.11v0.23h-0.11v0.34h-0.12v0.34h-0.11v0.35h-0.12v0.34h-0.11v0.68h-0.11v1.83h0.11v0.57h0.11v0.34h0.12v0.23h0.11v0.34h0.12v0.23h0.11v0.11h0.11v0.23h0.12v0.12h0.11v0.11h0.12v0.23h0.11v0.11h0.12v0.12h0.11v0.11h0.11v0.11h0.23v0.12h0.12v0.11h0.11v0.12h0.23v0.11h0.11v0.12h0.23v0.11h0.23v0.11h0.23v0.12h0.34v0.11h0.34v0.12h0.34v0.11h0.46v0.11h0.8v0.12h56.37v0.11h1.25v0.12h0.69v0.11h0.57v0.11h0.46v0.12h0.34v0.11h0.34v0.12h0.23v0.11h0.23v0.12h0.11v0.11h0.23v0.11h0.11v0.12h0.12v0.11h0.11v0.12h0.12v0.11h0.11v0.11h0.11v0.12h0.12v0.23h0.11v0.22h0.12v0.23h0.11v0.23h0.11v0.23h0.12v0.46h0.11v0.45h0.12v0.46h0.11v0.8h0.12v1.14h0.11v16.09h-0.11v1.14h-0.12v0.8h-0.11v0.45h-0.12v0.46h-0.11v0.34h-0.12v0.35h-0.11v0.22h-0.11v0.12h-0.12v0.23h-0.11v0.11h-0.12v0.11h-0.11v0.23h-0.11v0.12h-0.23v0.11h-0.12v0.11h-0.11v0.12h-0.23v0.11h-0.11v0.12h-0.23v0.11h-0.34v0.12h-0.35v0.11h-0.45v0.11h-0.46v0.12h-0.68v0.11h-1.14v0.12h-82.73v0.11h-5.48v-0.11h-1.94v-0.12h-0.57v-0.11h-0.46v-0.12h-0.45v-0.11h-0.46v-0.11h-0.46v-0.12h-0.34v-0.11h-0.34v-0.12h-0.23v-0.11h-0.34v-0.12h-0.23v-0.11h-0.23v-0.11h-0.23v-0.12h-0.23v-0.23h0.23v-0.11h0.34v-0.11h0.23v-0.12h0.23v-0.11h0.34v-0.12h0.23v-0.11h0.23v-0.11h0.23v-0.12h0.23v-0.11h0.11v-0.12h0.23v-0.11h0.23v-0.12h0.23v-0.11h0.11v-0.11h0.23v-0.12h0.23v-0.11h0.11v-0.12h0.23v-0.11h0.11v-0.11h0.23v-0.12h0.11v-0.11h0.23v-0.12h0.12v-0.11h0.11v-0.11h0.23v-0.12h0.11v-0.11h0.12v-0.12h0.23v-0.11h0.11v-0.12h0.11v-0.11h0.12v-0.11h0.11v-0.12h0.23v-0.11h0.11v-0.12h0.12v-0.11h0.11v-0.11h0.12v-0.12h0.11v-0.11h0.12v-0.12h0.11v-0.11h0.11v-0.11h0.12v-0.12h0.11v-0.11h0.12v-0.12h0.11v-0.11h0.11v-0.12h0.12v-0.11h0.11v-0.11h0.12v-0.23h0.11v-0.12h0.11v-0.11h0.12v-0.11h0.11v-0.12h0.12v-0.23h0.11v-0.11h0.11v-0.11h0.12v-0.12h0.11v-0.23h0.12v-0.11h0.11v-0.23h0.12v-0.11h0.11v-0.23h0.11v-0.12h0.12v-0.22h0.11v-0.12h0.12v-0.23h0.11v-0.11h0.11v-0.23h0.12v-0.23h0.11v-0.22h0.12v-0.12h0.11v-0.23h0.11v-0.23h0.12v-0.22h0.11v-0.23h0.12v-0.23h0.11v-0.23h0.12v-0.34h0.11v-0.23h0.11v-0.23h0.12v-0.34h0.11v-0.23h0.12v-0.34h0.11v-0.34h0.11v-0.34h0.12v-0.35h0.11v-0.34h0.12v-0.46h0.11v-0.34h0.11v-0.45h0.12v-0.58h0.11v-0.45h0.12v-0.69h0.11v-0.68h0.12v-0.8h0.11v-1.14h0.11v-2.05h0.12v-43.02h0.11v-0.23h0.12v-0.23h0.11v-0.23h0.11v-0.23h0.12v-0.23h0.11v-0.22h0.12v-0.23h0.11v-0.34h0.11v-0.23h0.12v-0.23h0.11v-0.34h0.12v-0.23h0.11v-0.23h0.12v-0.34h0.11v-0.23h0.11v-0.23h0.12v-0.34h0.11v-0.23h0.12v-0.23h0.11v-0.34h0.11v-0.23h0.12v-0.23h0.11v-0.22h0.12v-0.35h0.11v-0.22h0.11v-0.23h0.12v-0.34h0.11v-0.23h0.12v-0.23h0.11v-0.34h0.11v-0.23h0.12v-0.23h0.11v-0.34h0.12v-0.23h0.11v-0.23h0.12v-0.34h0.11v-0.23h0.11v-0.23h0.12v-0.23h0.11v-0.34h0.12v-0.23h0.11v-0.22h0.11v-0.35h0.12v-0.23h0.11v-0.22h0.12v-0.35h0.11v-0.22h0.11v-0.23h0.12v-0.34h0.11v-0.23h0.12v-0.23h0.11v-0.34h0.12v-0.23h0.11v-0.23h0.11v-0.23h0.12v-0.34h0.11v-0.23h0.12v-0.23h0.11v-0.34h0.11v-0.23h0.12v-0.23h0.11v-0.34h0.12v-0.23h0.11v-0.22h0.11v-0.35h0.12v-0.22h0.11v-0.23h0.12v-0.35h0.11v-0.22h0.12v-0.23h0.11v-0.23h0.11v-0.34h0.12v-0.23h0.11v-0.23h0.12v-0.34h0.11v-0.23h0.11v-0.23h0.12v-0.34h0.11v-0.23h0.12v-0.23h0.11v-0.34h0.11v-0.23h0.12v-0.23h0.11v-0.34h0.12v-0.23h0.11v-0.22h0.12v-0.23h0.11v-0.34h0.11v-0.23h0.12v-0.23h0.11v-0.34h0.12v-0.23h0.11v-0.23h0.11v-0.34h0.12v-0.23h0.11v-0.23h0.12v-0.34h0.11v-0.23h0.11v-0.23h0.12v-0.34h0.11v-0.23h0.12v-0.23h0.11v-0.22h0.11v-0.35h0.12v-0.22h0.11v-0.23h0.12v-0.35h0.11v-0.22h0.12v-0.23h0.11v-0.34h0.11v-0.23h0.12v-0.23h0.11v-0.34h0.12v-0.23h0.11v-0.23h0.11v-0.34h0.12v-0.23h0.11v-0.23h0.12v-0.23h0.11v-0.34h0.11v-0.23h0.12v-0.23h0.11v-0.34h0.12v-0.23h0.11v-0.22h0.12v-0.35h0.11v-0.22h0.11v-0.23h0.12v-0.34h0.11v-0.23h0.12v-0.23h0.11v-0.34h0.11v-0.23h0.12v-0.23h0.11v-0.23h0.12v-0.34h0.11v-0.23h0.11v-0.23h0.12v-0.34h0.11v-0.23h0.12v-0.23h0.11v-0.34h0.12v-0.23h0.11v-0.22h0.11v-0.35h0.12v-0.23h0.11v-0.22h0.12v-0.35h0.11v-0.22h0.11v-0.23h0.12v-0.23h0.11v-0.34h0.12v-0.23h0.11v-0.23h0.11v-0.34h0.12v-0.23h0.11v-0.23h0.12v-0.34h0.11v-0.23h0.12v-0.23h0.11v-0.34h0.11v-0.23h0.12v-0.23h0.11v-0.34h0.12v-0.23h0.11v-0.22h0.11v-0.23h0.12v-0.34h0.11v-0.23h0.12v-0.23h0.11v-0.34h0.11v-0.23h0.12v-0.23h0.11v-0.34h0.12v-0.23h0.11v-0.23h0.12v-0.34h0.11v-0.23h0.11v-0.23h0.12v-0.34h0.11v-0.23h0.12v-0.23h0.11v-0.22h0.11v-0.35h0.12v-0.23h0.11v-0.22h0.12v-0.35h0.11v-0.22h0.11v-0.23h0.12v-0.34h0.11v-0.23h0.12v-0.23h0.11v-0.34h0.11v-0.23h0.12v-0.23h0.11v-0.34h0.12v-0.23h0.11v-0.23h0.12v-0.23h0.11v-0.34h0.11v-0.23h0.12v-0.23h0.11v-0.34h0.12v-0.23h0.11v-0.22h0.11v-0.35h0.12v-0.22h0.11v-0.23h0.12v-0.35h0.11v-0.22h0.11v-0.23h0.12v-0.34h0.11v-0.23h0.12v-0.23h0.11v-0.23h0.12v-0.34h0.11v-0.23h0.11v-0.23h0.12v-0.34h0.11v-0.23h0.12v-0.23h0.11v-0.34h0.11v-0.23h0.12v-0.23h0.11v-0.34h0.12v-0.23h0.11v-0.22h0.11v-0.35h0.12v-0.22h0.11v-0.23h0.12v-0.23h0.11v-0.34h0.12v-0.23h0.11v-0.23h0.11v-0.34h0.12v-0.23h0.11v-0.23h0.12v-0.34h0.11v-0.23h0.11v-0.23h0.12v-0.34h0.11v-0.23h0.12v-0.23h0.11v-0.34h0.11v-0.23h0.12v-0.22h0.11v-0.23h0.12v-0.35h0.11v-0.22h0.12v-0.23h0.11v-0.34h0.11v-0.23h0.12v-0.23h0.11v-0.34h0.12v-0.23h0.11v-0.23h0.11v-0.34h0.12v-0.23h0.11v-0.23h0.12v-0.11z">
    </path>
    <path class="the-s" fill="#333"
        d="m127.12 126.89v-0.68h0.11v-0.57h0.12v-0.46h0.11v-0.46h0.12v-0.45h0.11v-0.46h0.11v-0.46h0.12v-0.34h0.11v-0.34h0.12v-0.34h0.11v-0.35h0.11v-0.22h0.12v-0.23h0.11v-0.35h0.12v-0.22h0.11v-0.23h0.11v-0.23h0.12v-0.23h0.11v-0.11h0.12v-0.23h0.11v-0.23h0.12v-0.11h0.11v-0.23h0.11v-0.11h0.12v-0.23h0.11v-0.12h0.12v-0.11h0.11v-0.12h0.11v-0.22h0.12v-0.12h0.11v-0.11h0.12v-0.12h0.11v-0.11h0.11v-0.11h0.12v-0.12h0.11v-0.11h0.12v-0.12h0.11v-0.11h0.11v-0.11h0.12v-0.12h0.11v-0.11h0.12v-0.12h0.11v-0.11h0.12v-0.12h0.22v-0.11h0.12v-0.11h0.11v-0.12h0.12v-0.11h0.22v-0.12h0.12v-0.11h0.11v-0.11h0.23v-0.12h0.11v-0.11h0.23v-0.12h0.12v-0.11h0.23v-0.11h0.11v-0.12h0.23v-0.11h0.23v-0.12h0.11v-0.11h0.23v-0.12h0.23v-0.11h0.22v-0.11h0.23v-0.12h0.23v-0.11h0.23v-0.12h0.23v-0.11h0.34v-0.11h0.23v-0.12h0.23v-0.11h0.34v-0.12h0.34v-0.11h0.34v-0.11h0.35v-0.12h0.45v-0.11h0.34v-0.12h0.46v-0.11h0.57v-0.12h0.46v-0.11h0.57v-0.11h0.68v-0.12h0.69v-0.11h0.91v-0.12h1.26v-0.11h2.28v-0.11h74.28v0.11h2.4v0.11h1.37v0.12h1.14v0.11h0.91v0.12h0.92v0.11h0.68v0.11h0.69v0.12h0.57v0.11h0.57v0.12h0.8v0.11h0.45v0.12h0.46v0.11h0.45v0.11h0.35v0.12h0.34v0.11h0.34v0.12h0.34v0.11h0.35v0.11h0.22v0.12h0.35v0.11h0.23v0.12h0.22v0.11h0.23v0.11h0.23v0.12h0.23v0.11h0.11v0.12h0.23v0.11h0.11v0.12h0.23v0.11h0.12v0.11h0.11v0.12h0.23v0.11h0.11v0.12h0.12v0.11h0.11v0.11h0.12v0.12h0.11v0.11h0.23v0.12h0.11v0.22h0.12v0.12h0.11v0.11h0.11v0.12h0.12v0.11h0.11v0.12h0.12v0.11h0.11v0.23h0.11v0.11h0.12v0.12h0.11v0.11h0.12v0.23h0.11v0.11h0.12v0.23h0.11v0.11h0.11v0.23h0.12v0.23h0.11v0.12h0.12v0.22h0.11v0.23h0.11v0.23h0.12v0.11h0.11v0.23h0.12v0.34h0.11v0.23h0.11v0.23h0.12v0.23h0.11v0.23h0.12v0.34h0.11v0.23h0.12v0.34h0.11v0.34h0.11v0.34h0.12v0.35h0.11v0.34h0.12v0.34h0.11v0.46h0.11v0.45h0.12v0.46h0.11v0.46h0.12v0.45h0.11v0.57h0.11v0.69h0.12v0.57h0.11v0.8h0.12v0.8h0.11v1.02h0.12v1.26h0.11v2.05h0.11v60.14h-0.11v2.62h-0.11v0.8h-0.12v0.8h-0.11v0.57h-0.12v0.46h-0.11v0.34h-0.12v0.34h-0.11v0.23h-0.11v0.23h-0.12v0.11h-0.11v0.23h-0.12v0.12h-0.11v0.11h-0.11v0.11h-0.12v0.12h-0.11v0.11h-0.12v0.12h-0.11v0.11h-0.11v0.11h-0.23v0.12h-0.23v0.11h-0.23v0.12h-0.23v0.11h-0.23v0.12h-0.45v0.11h-0.46v0.11h-0.57v0.12h-1.14v0.11h-1.26v0.12h-14.03v-0.12h-1.6v-0.11h-0.91v-0.12h-0.57v-0.11h-0.57v-0.11h-0.46v-0.12h-0.34v-0.11h-0.23v-0.12h-0.23v-0.11h-0.23v-0.12h-0.22v-0.11h-0.12v-0.11h-0.11v-0.12h-0.12v-0.11h-0.11v-0.12h-0.11v-0.11h-0.12v-0.11h-0.11v-0.12h-0.12v-0.11h-0.11v-0.23h-0.12v-0.11h-0.11v-0.23h-0.11v-0.34h-0.12v-0.35h-0.11v-0.45h-0.12v-0.46h-0.11v-1.26h-0.11v-0.79h-0.12v-47.47h-0.11v-0.92h-0.12v-0.45h-0.11v-0.35h-0.11v-0.34h-0.12v-0.34h-0.11v-0.23h-0.12v-0.34h-0.11v-0.23h-0.12v-0.23h-0.11v-0.23h-0.11v-0.11h-0.12v-0.23h-0.11v-0.23h-0.12v-0.11h-0.11v-0.23h-0.11v-0.23h-0.12v-0.11h-0.11v-0.11h-0.12v-0.12h-0.11v-0.11h-0.11v-0.12h-0.12v-0.11h-0.11v-0.12h-0.12v-0.11h-0.11v-0.11h-0.12v-0.12h-0.11v-0.11h-0.11v-0.12h-0.12v-0.11h-0.11v-0.11h-0.12v-0.12h-0.11v-0.11h-0.23v-0.12h-0.11v-0.11h-0.23v-0.11h-0.11v-0.12h-0.23v-0.11h-0.12v-0.12h-0.22v-0.11h-0.23v-0.12h-0.23v-0.11h-0.23v-0.11h-0.23v-0.12h-0.34v-0.11h-0.34v-0.12h-0.34v-0.11h-0.35v-0.11h-0.45v-0.12h-0.69v-0.11h-43.82v0.11h-0.45v0.12h-0.46v0.11h-0.34v0.11h-0.34v0.12h-0.35v0.11h-0.22v0.12h-0.35v0.11h-0.23v0.11h-0.22v0.12h-0.23v0.11h-0.12v0.12h-0.22v0.11h-0.12v0.12h-0.23v0.11h-0.22v0.11h-0.12v0.12h-0.23v0.11h-0.11v0.12h-0.12v0.11h-0.11v0.11h-0.11v0.12h-0.12v0.11h-0.11v0.12h-0.12v0.11h-0.11v0.11h-0.11v0.12h-0.12v0.11h-0.11v0.12h-0.12v0.11h-0.11v0.12h-0.11v0.11h-0.12v0.23h-0.11v0.23h-0.12v0.11h-0.11v0.23h-0.11v0.11h-0.12v0.23h-0.11v0.23h-0.12v0.23h-0.11v0.23h-0.12v0.22h-0.11v0.23h-0.11v0.34h-0.12v0.35h-0.11v0.34h-0.12v0.34h-0.11v0.57h-0.11v1.03h-0.12v44.96h0.12v2.28h0.11v1.03h0.11v0.91h0.12v0.46h0.11v0.57h0.12v0.34h0.11v0.46h0.11v0.34h0.12v0.34h0.11v0.34h0.12v0.23h0.11v0.34h0.12v0.23h0.11v0.34h0.11v0.23h0.12v0.23h0.11v0.23h0.12v0.23h0.11v0.22h0.11v0.23h0.12v0.12h0.11v0.23h0.12v0.22h0.11v0.12h0.11v0.23h0.12v0.11h0.11v0.23h0.12v0.11h0.11v0.23h0.11v0.11h0.12v0.12h0.11v0.23h0.12v0.23h0.11v0.11h0.12v0.11h0.11v0.12h0.11v0.11h0.12v0.23h0.11v0.11h0.12v0.12h0.11v0.11h0.11v0.12h0.12v0.11h0.11v0.11h0.12v0.12h0.11v0.11h0.11v0.12h0.12v0.11h0.11v0.12h0.12v0.11h0.11v0.11h0.12v0.12h0.11v0.11h0.11v0.12h0.12v0.11h0.11v0.11h0.12v0.12h0.11v0.11h0.11v0.23h0.12v0.11h0.11v0.12h0.12v0.11h0.11v0.12h0.11v0.11h0.12v0.12h0.11v0.22h0.12v0.12h0.11v0.11h0.12v0.12h0.11v0.11h0.11v0.11h0.12v0.12h0.11v0.23h0.12v0.11h0.11v0.11h0.11v0.12h0.12v0.11h0.11v0.12h0.12v0.11h0.11v0.23h0.11v0.11h0.12v0.12h0.11v0.11h0.12v0.12h0.11v0.11h0.12v0.11h0.11v0.23h0.11v0.12h0.12v0.11h0.11v0.11h0.12v0.12h0.11v0.11h0.11v0.12h0.12v0.22h0.11v0.12h0.12v0.11h0.11v0.12h0.11v0.11h0.12v0.23h0.11v0.11h0.12v0.12h0.11v0.11h0.11v0.12h0.12v0.11h0.11v0.11h0.12v0.23h0.11v0.12h0.12v0.11h0.11v0.11h0.11v0.12h0.12v0.11h0.11v0.12h0.12v0.23h0.11v0.11h0.11v0.11h0.12v0.12h0.11v0.11h0.12v0.12h0.11v0.11h0.11v0.23h0.12v0.11h0.11v0.12h0.12v0.11h0.11v0.11h0.12v0.12h0.11v0.11h0.11v0.23h0.12v0.12h0.11v0.11h0.12v0.11h0.11v0.12h0.11v0.11h0.12v0.12h0.11v0.22h0.12v0.12h0.11v0.11h0.11v0.12h0.12v0.11h0.11v0.11h0.12v0.12h0.11v0.23h0.12v0.11h0.11v0.11h0.11v0.12h0.12v0.11h0.11v0.23h0.12v0.12h0.11v0.11h0.11v0.11h0.12v0.12h0.11v0.11h0.12v0.12h0.11v0.22h0.11v0.12h0.12v0.11h0.11v0.12h0.12v0.11h0.11v0.11h0.12v0.12h0.11v0.23h0.11v0.11h0.12v0.12h0.11v0.11h0.12v0.11h0.11v0.12h0.11v0.11h0.12v0.23h0.11v0.11h0.12v0.12h0.11v0.11h0.11v0.12h0.12v0.11h0.11v0.11h0.12v0.23h0.11v0.12h0.11v0.11h0.12v0.12h0.11v0.11h0.12v0.11h0.11v0.12h0.12v0.23h0.11v0.11h0.11v0.11h0.12v0.12h0.11v0.11h0.12v0.12h0.11v0.11h0.11v0.23h0.12v0.11h0.11v0.12h0.12v0.11h0.11v0.12h0.11v0.11h0.12v0.11h0.11v0.23h0.12v0.12h0.11v0.11h0.12v0.11h0.11v0.12h0.11v0.11h0.12v0.12h0.11v0.11h0.12v0.11h0.11v0.12h0.11v0.11h0.12v0.12h0.11v0.22h0.12v0.12h0.11v0.11h0.11v0.12h0.12v0.11h0.11v0.12h0.12v0.11h0.11v0.23h0.12v0.11h0.11v0.12h0.11v0.11h0.12v0.11h0.11v0.12h0.12v0.11h0.11v0.23h0.11v0.11h0.12v0.12h0.11v0.11h0.12v0.12h0.11v0.11h0.11v0.12h0.12v0.22h0.11v0.12h0.12v0.11h0.11v0.12h0.12v0.11h0.11v0.11h0.11v0.12h0.12v0.23h0.11v0.11h0.12v0.11h0.11v0.12h0.11v0.11h0.12v0.12h0.11v0.11h0.12v0.23h0.11v0.11h0.11v0.12h0.12v0.11h0.11v0.12h0.12v0.11h0.11v0.11h0.12v0.23h0.11v0.12h0.11v0.11h0.12v0.11h0.11v0.12h0.12v0.23h0.11v0.11h0.11v0.12h0.12v0.11h0.11v0.11h0.12v0.12h0.11v0.11h0.11v0.23h0.12v0.11h0.11v0.12h0.12v0.11h0.11v0.12h0.11v0.11h0.12v0.11h0.11v0.23h0.12v0.12h0.11v0.11h0.12v0.12h0.11v0.11h0.11v0.11h0.12v0.12h0.11v0.23h0.12v0.11h0.11v0.11h0.11v0.12h0.12v0.11h0.11v0.12h0.12v0.11h0.11v0.23h0.11v0.11h0.12v0.12h0.11v0.11h0.12v0.11h0.11v0.12h0.12v0.11h0.11v0.23h0.11v0.12h0.12v0.11h0.11v0.11h0.12v0.12h0.11v0.11h0.11v0.12h0.12v0.22h0.11v0.12h0.12v0.11h0.11v0.12h0.11v0.11h0.12v0.23h0.11v0.11h0.12v0.12h0.11v0.11h0.12v0.12h0.11v0.11h0.11v0.11h0.12v0.23h0.11v0.12h0.12v0.11h0.11v0.11h0.11v0.12h0.12v0.11h0.11v0.12h0.12v0.22h0.11v0.12h0.11v0.11h0.12v0.12h0.11v0.11h0.12v0.12h0.11v0.11h0.12v0.23h0.11v0.11h0.11v0.12h0.12v0.11h0.11v0.11h0.12v0.12h0.11v0.11h0.11v0.23h0.12v0.11h0.11v0.12h0.12v0.11h0.11v0.12h0.11v0.11h0.12v0.12h0.11v0.22h0.12v0.12h0.11v0.11h0.11v0.12h0.12v0.11h0.11v0.11h0.12v0.12h0.11v0.23h0.12v0.11h0.11v0.11h0.11v0.12h0.12v0.11h0.11v0.12h0.12v0.11h0.11v0.23h0.11v0.11h0.12v0.12h0.11v0.11h0.12v0.12h0.11v0.22h0.11v0.12h0.12v0.11h0.11v0.12h0.12v0.11h0.11v0.11h0.12v0.12h0.11v0.23h0.11v0.11h0.12v0.11h0.11v0.12h0.12v0.11h0.11v0.12h0.11v0.11h0.12v0.23h0.11v0.11h0.12v0.12h0.11v0.11h0.11v0.12h0.12v0.11h0.11v0.11h0.12v0.23h0.11v0.12h0.12v0.11h0.11v0.11h0.11v0.12h0.12v0.11h0.11v0.12h0.12v0.23h0.11v0.11h0.11v0.11h0.12v0.12h0.11v0.11h0.12v0.12h0.11v0.11h0.11v0.23h0.12v0.11h0.11v0.12h0.12v0.11h0.11v0.11h0.12v0.12h0.11v0.11h0.11v0.23h0.12v0.12h0.11v0.11h0.12v0.11h0.11v0.12h0.11v0.11h0.12v0.12h0.11v0.11h0.12v0.11h0.11v0.12h0.11v0.11h0.12v0.12h0.11v0.22h0.12v0.12h0.11v0.11h0.11v0.12h0.12v0.11h0.11v0.11h0.12v0.12h0.11v0.23h0.12v0.11h0.11v0.12h0.11v0.11h0.12v0.11h0.11v0.12h0.12v0.11h0.11v0.23h0.11v0.11h0.12v0.12h0.11v0.11h0.12v0.12h0.11v0.11h0.11v0.11h0.12v0.23h0.11v0.12h0.12v0.11h0.11v0.12h0.12v0.11h0.11v0.11h0.11v0.12h0.12v0.23h0.11v0.11h0.12v0.11h0.11v0.12h0.11v0.11h0.12v0.12h0.11v0.11h0.12v0.23h0.11v0.11h0.11v0.12h0.12v0.11h0.11v0.12h0.12v0.11h0.11v0.11h0.12v0.23h0.11v0.12h0.11v0.11h0.12v0.11h0.11v0.12h0.12v0.23h0.11v0.11h0.11v0.11h0.12v0.12h0.11v0.11h0.12v0.12h0.11v0.11h0.11v0.23h0.12v0.11h0.11v0.12h0.12v0.11h0.11v0.12h0.12v0.11h0.11v0.11h0.11v0.23h0.12v0.12h0.11v0.11h0.12v0.11h0.11v0.12h0.11v0.11h0.12v0.12h0.11v0.23h0.12v0.11h0.11v0.11h0.11v0.12h0.12v0.11h0.11v0.12h0.12v0.11h0.11v0.23h0.12v0.11h0.11v0.12h0.11v0.11h0.12v0.11h0.11v0.12h0.12v0.11h0.11v0.23h0.11v0.11h0.12v0.12h0.11v0.11h0.12v0.12h0.11v0.11h0.11v0.12h0.12v0.22h0.11v0.12h0.12v0.11h0.11v0.12h0.11v0.11h0.12v0.11h0.11v0.12h0.12v0.23h0.11v0.11h0.12v0.11h0.11v0.12h0.11v0.11h0.12v0.23h0.11v0.12h0.12v0.11h0.11v0.11h0.11v0.12h0.12v0.11h0.11v0.12h0.12v0.22h0.11v0.12h0.11v0.11h0.12v0.12h0.11v0.11h0.12v0.11h0.11v0.12h0.12v0.23h0.11v0.11h0.11v0.12h0.12v0.11h0.11v0.11h0.12v0.12h0.11v0.11h0.11v0.23h0.12v0.11h0.11v0.12h0.12v0.11h0.11v0.12h0.11v0.11h0.12v0.11h0.11v0.23h0.12v0.12h0.11v0.11h0.12v0.12h0.11v0.11h0.11v0.11h0.12v0.12h0.11v0.23h0.12v0.11h0.11v0.11h0.11v0.12h0.12v0.11h0.11v0.12h0.12v0.11h0.11v0.23h0.11v0.11h0.12v0.12h0.11v0.11h0.12v0.11h0.11v0.23h0.12v0.12h0.11v0.11h0.11v0.12h0.12v0.11h0.11v0.11h0.12v0.12h0.11v0.23h0.11v0.11h0.12v0.11h0.11v0.12h0.12v0.11h0.11v0.12h0.11v0.11h0.12v0.23h0.11v0.11h0.12v0.12h0.11v0.11h0.11v0.12h0.12v0.11h0.11v0.11h0.12v0.23h0.11v0.12h0.12v0.11h0.11v0.11h0.11v0.12h0.12v0.11h0.11v0.12h0.12v0.22h0.11v0.12h0.11v0.11h0.12v0.12h0.11v0.11h0.12v0.12h0.11v0.11h0.11v0.23h0.12v0.11h0.11v0.12h0.12v0.11h0.11v0.11h0.12v0.12h0.11v0.11h0.11v0.23h0.12v0.11h0.11v0.12h0.12v0.11h0.11v0.12h0.11v0.11h0.12v0.12h0.11v0.22h0.12v0.12h0.11v0.11h0.11v0.12h0.12v0.11h0.11v0.11h0.12v0.12h0.11v0.11h0.12v0.12h0.11v0.11h0.11v0.11h0.12v0.12h0.11v0.23h0.12v0.11h0.11v0.11h0.11v0.12h0.12v0.11h0.11v0.12h0.12v0.11h0.11v0.23h0.11v0.11h0.12v0.12h0.11v0.11h0.12v0.12h0.11v0.11h0.12v0.11h0.11v0.23h0.11v0.12h0.12v0.11h0.11v0.11h0.12v0.12h0.11v0.11h0.11v0.12h0.12v0.23h0.11v0.11h0.12v0.11h0.11v0.12h0.11v0.11h0.12v0.12h0.11v0.11h0.12v0.23h0.11v0.11h0.11v0.12h0.12v0.11h0.11v0.11h0.12v0.12h0.11v0.11h0.12v0.23h0.11v0.12h0.11v0.11h0.12v0.11h0.11v0.12h0.12v0.23h0.11v0.11h0.11v0.11h0.12v0.12h0.11v0.11h0.12v0.12h0.11v0.11h0.11v0.23h0.12v0.11h0.11v0.12h0.12v0.11h0.11v0.12h0.12v0.11h0.11v0.11h0.11v0.23h0.12v0.12h0.11v0.11h0.12v0.11h0.11v0.12h0.11v0.11h0.12v0.12h0.11v0.22h0.12v0.12h0.11v0.11h0.11v0.12h0.12v0.11h0.11v0.12h0.12v0.11h0.11v0.23h0.12v0.11h0.11v0.12h0.11v0.11h0.12v0.11h0.11v0.12h0.12v0.11h0.11v0.23h0.11v0.11h0.12v0.12h0.11v0.11h0.12v0.12h0.11v0.11h0.11v0.11h0.12v0.12h0.11v0.11h0.12v0.12h0.11v0.11h0.12v0.23h0.11v0.11h0.11v0.12h0.12v0.11h0.11v0.12h0.12v0.11h0.11v0.11h0.11v0.12h0.12v0.11h0.11v0.12h0.12v0.11h0.11v0.23h0.11v0.11h0.12v0.12h0.11v0.11h0.12v0.12h0.11v0.11h0.12v0.11h0.11v0.12h0.11v0.23h0.12v0.11h0.11v0.11h0.12v0.12h0.11v0.11h0.11v0.12h0.12v0.11h0.11v0.11h0.12v0.12h0.11v0.11h0.11v0.23h0.12v0.12h0.11v0.11h0.12v0.23h0.11v0.11h0.11v0.12h0.12v0.11h0.11v0.11h0.12v0.12h0.11v0.23h0.12v0.11h0.11v0.11h0.11v0.23h0.12v0.12h0.11v0.11h0.12v0.23h0.11v0.11h0.11v0.12h0.12v0.23h0.11v0.11h0.12v0.23h0.11v0.11h0.11v0.23h0.12v0.23h0.11v0.11h0.12v0.23h0.11v0.23h0.12v0.23h0.11v0.23h0.11v0.22h0.12v0.35h0.11v0.22h0.12v0.35h0.11v0.34h0.11v0.46h0.12v0.45h0.11v0.57h0.12v0.57h0.11v0.57h0.11v0.69h0.12v1.48h0.11v0.46h0.12v1.02h0.11v1.49h0.12v1.94h0.11v4.11h0.11v68.12h-0.11v1.6h-0.11v1.02h-0.12v0.8h-0.11v0.69h-0.12v0.57h-0.11v0.57h-0.12v0.46h-0.11v0.45h-0.11v0.34h-0.12v0.46h-0.11v0.34h-0.12v0.35h-0.11v0.34h-0.11v0.34h-0.12v0.23h-0.11v0.34h-0.12v0.34h-0.11v0.23h-0.11v0.23h-0.12v0.23h-0.11v0.34h-0.12v0.23h-0.11v0.23h-0.12v0.22h-0.11v0.12h-0.11v0.23h-0.12v0.23h-0.11v0.22h-0.12v0.23h-0.11v0.12h-0.11v0.22h-0.12v0.12h-0.11v0.23h-0.12v0.22h-0.11v0.12h-0.11v0.23h-0.12v0.11h-0.11v0.12h-0.12v0.22h-0.11v0.12h-0.12v0.11h-0.11v0.23h-0.11v0.11h-0.12v0.12h-0.11v0.11h-0.12v0.23h-0.11v0.11h-0.11v0.12h-0.12v0.11h-0.11v0.12h-0.12v0.11h-0.11v0.11h-0.11v0.23h-0.12v0.12h-0.11v0.11h-0.12v0.12h-0.11v0.11h-0.11v0.11h-0.12v0.12h-0.11v0.11h-0.23v0.12h-0.12v0.11h-0.11v0.11h-0.11v0.12h-0.12v0.11h-0.11v0.12h-0.12v0.11h-0.22v0.11h-0.12v0.12h-0.11v0.11h-0.12v0.12h-0.22v0.11h-0.12v0.12h-0.11v0.11h-0.23v0.11h-0.12v0.12h-0.22v0.11h-0.12v0.12h-0.23v0.11h-0.11v0.11h-0.23v0.12h-0.11v0.11h-0.23v0.12h-0.23v0.11h-0.11v0.11h-0.23v0.12h-0.23v0.11h-0.23v0.12h-0.23v0.11h-0.22v0.12h-0.23v0.11h-0.23v0.11h-0.23v0.12h-0.23v0.11h-0.23v0.12h-0.34v0.11h-0.23v0.11h-0.34v0.12h-0.34v0.11h-0.34v0.12h-0.35v0.11h-0.45v0.11h-0.34v0.12h-0.46v0.11h-0.46v0.12h-0.45v0.11h-0.46v0.12h-0.57v0.11h-0.57v0.11h-0.69v0.12h-0.91v0.11h-1.14v0.12h-75.65v-0.12h-1.26v-0.11h-0.91v-0.12h-0.8v-0.11h-0.69v-0.11h-0.57v-0.12h-0.57v-0.11h-0.45v-0.12h-0.46v-0.11h-0.46v-0.12h-0.45v-0.11h-0.35v-0.11h-0.34v-0.12h-0.34v-0.11h-0.34v-0.12h-0.34v-0.11h-0.23v-0.11h-0.34v-0.12h-0.23v-0.11h-0.35v-0.12h-0.22v-0.11h-0.23v-0.11h-0.23v-0.12h-0.23v-0.11h-0.23v-0.12h-0.22v-0.11h-0.23v-0.12h-0.12v-0.11h-0.23v-0.11h-0.22v-0.12h-0.12v-0.11h-0.23v-0.12h-0.11v-0.11h-0.23v-0.11h-0.11v-0.12h-0.23v-0.11h-0.11v-0.12h-0.23v-0.11h-0.12v-0.11h-0.11v-0.12h-0.23v-0.11h-0.11v-0.12h-0.12v-0.11h-0.11v-0.12h-0.12v-0.11h-0.22v-0.11h-0.12v-0.12h-0.11v-0.11h-0.12v-0.12h-0.11v-0.11h-0.11v-0.11h-0.12v-0.12h-0.11v-0.11h-0.12v-0.12h-0.11v-0.11h-0.12v-0.11h-0.11v-0.12h-0.11v-0.11h-0.12v-0.12h-0.11v-0.11h-0.12v-0.23h-0.11v-0.11h-0.11v-0.12h-0.12v-0.11h-0.11v-0.12h-0.12v-0.22h-0.11v-0.12h-0.11v-0.11h-0.12v-0.23h-0.11v-0.11h-0.12v-0.23h-0.11v-0.12h-0.11v-0.22h-0.12v-0.12h-0.11v-0.23h-0.12v-0.11h-0.11v-0.23h-0.12v-0.23h-0.11v-0.23h-0.11v-0.11h-0.12v-0.23h-0.11v-0.23h-0.12v-0.22h-0.11v-0.23h-0.11v-0.35h-0.12v-0.22h-0.11v-0.23h-0.12v-0.23h-0.11v-0.34h-0.11v-0.34h-0.12v-0.23h-0.11v-0.35h-0.12v-0.34h-0.11v-0.45h-0.12v-0.35h-0.11v-0.45h-0.11v-0.46h-0.12v-0.46h-0.11v-0.45h-0.12v-0.57h-0.11v-0.57h-0.11v-0.69h-0.12v-0.8h-0.11v-1.02h-0.12v-1.37h-0.11v-68.58h0.11v-1.26h0.12v-0.8h0.11v-0.57h0.12v-0.45h0.11v-0.35h0.11v-0.34h0.12v-0.23h0.11v-0.23h0.12v-0.22h0.11v-0.12h0.11v-0.11h0.12v-0.12h0.11v-0.11h0.12v-0.11h0.11v-0.12h0.12v-0.11h0.11v-0.12h0.23v-0.11h0.11v-0.11h0.23v-0.12h0.34v-0.11h0.34v-0.12h0.46v-0.11h0.57v-0.12h0.69v-0.11h1.48v-0.11h16.43v0.11h1.37v0.11h0.8v0.12h0.46v0.11h0.45v0.12h0.34v0.11h0.23v0.12h0.23v0.11h0.23v0.11h0.11v0.12h0.12v0.11h0.11v0.12h0.12v0.11h0.11v0.11h0.11v0.23h0.12v0.12h0.11v0.22h0.12v0.35h0.11v0.34h0.11v0.46h0.12v0.68h0.11v1.03h0.12v53.52h0.11v1.25h0.12v0.57h0.11v0.34h0.11v0.35h0.12v0.34h0.11v0.34h0.12v0.23h0.11v0.23h0.11v0.22h0.12v0.23h0.11v0.23h0.12v0.23h0.11v0.11h0.11v0.23h0.12v0.12h0.11v0.22h0.12v0.12h0.11v0.11h0.12v0.23h0.11v0.11h0.11v0.12h0.12v0.11h0.11v0.12h0.12v0.11h0.11v0.12h0.11v0.11h0.12v0.11h0.11v0.12h0.12v0.11h0.11v0.12h0.11v0.11h0.12v0.11h0.23v0.12h0.11v0.11h0.11v0.12h0.23v0.11h0.12v0.11h0.23v0.12h0.22v0.11h0.23v0.12h0.12v0.11h0.22v0.12h0.35v0.11h0.22v0.11h0.23v0.12h0.35v0.11h0.34v0.12h0.34v0.11h0.57v0.11h0.91v0.12h43.48v-0.12h0.8v-0.11h0.57v-0.11h0.34v-0.12h0.34v-0.11h0.35v-0.12h0.22v-0.11h0.35v-0.11h0.22v-0.12h0.23v-0.11h0.23v-0.12h0.23v-0.11h0.11v-0.12h0.23v-0.11h0.12v-0.11h0.22v-0.12h0.12v-0.11h0.23v-0.12h0.11v-0.11h0.11v-0.11h0.12v-0.12h0.11v-0.11h0.23v-0.12h0.11v-0.11h0.12v-0.11h0.11v-0.12h0.12v-0.11h0.11v-0.23h0.12v-0.12h0.11v-0.11h0.11v-0.11h0.12v-0.12h0.11v-0.23h0.12v-0.11h0.11v-0.23h0.11v-0.11h0.12v-0.23h0.11v-0.11h0.12v-0.23h0.11v-0.23h0.11v-0.23h0.12v-0.23h0.11v-0.23h0.12v-0.34h0.11v-0.34h0.12v-0.34h0.11v-0.34h0.11v-0.46h0.12v-0.8h0.11v-50.09h-0.11v-1.49h-0.12v-0.91h-0.11v-0.57h-0.11v-0.57h-0.12v-0.46h-0.11v-0.34h-0.12v-0.34h-0.11v-0.35h-0.12v-0.34h-0.11v-0.34h-0.11v-0.23h-0.12v-0.34h-0.11v-0.23h-0.12v-0.23h-0.11v-0.23h-0.11v-0.34h-0.12v-0.23h-0.11v-0.22h-0.12v-0.12h-0.11v-0.23h-0.11v-0.22h-0.12v-0.23h-0.11v-0.23h-0.12v-0.12h-0.11v-0.22h-0.12v-0.12h-0.11v-0.23h-0.11v-0.22h-0.12v-0.12h-0.11v-0.23h-0.12v-0.11h-0.11v-0.23h-0.11v-0.11h-0.12v-0.23h-0.11v-0.12h-0.12v-0.11h-0.11v-0.23h-0.11v-0.11h-0.12v-0.12h-0.11v-0.22h-0.12v-0.12h-0.11v-0.11h-0.11v-0.23h-0.12v-0.11h-0.11v-0.12h-0.12v-0.23h-0.11v-0.11h-0.12v-0.11h-0.11v-0.12h-0.11v-0.23h-0.12v-0.11h-0.11v-0.12h-0.12v-0.11h-0.11v-0.11h-0.11v-0.23h-0.12v-0.12h-0.11v-0.11h-0.12v-0.11h-0.11v-0.12h-0.11v-0.11h-0.12v-0.12h-0.11v-0.22h-0.12v-0.12h-0.11v-0.11h-0.12v-0.12h-0.11v-0.11h-0.11v-0.12h-0.12v-0.11h-0.11v-0.23h-0.12v-0.11h-0.11v-0.12h-0.11v-0.11h-0.12v-0.11h-0.11v-0.12h-0.12v-0.11h-0.11v-0.23h-0.11v-0.11h-0.12v-0.12h-0.11v-0.11h-0.12v-0.12h-0.11v-0.11h-0.12v-0.12h-0.11v-0.22h-0.11v-0.12h-0.12v-0.11h-0.11v-0.12h-0.12v-0.11h-0.11v-0.11h-0.11v-0.12h-0.12v-0.23h-0.11v-0.11h-0.12v-0.11h-0.11v-0.12h-0.11v-0.11h-0.12v-0.12h-0.11v-0.11h-0.12v-0.23h-0.11v-0.11h-0.12v-0.12h-0.11v-0.11h-0.11v-0.12h-0.12v-0.11h-0.11v-0.11h-0.12v-0.23h-0.11v-0.12h-0.11v-0.11h-0.12v-0.11h-0.11v-0.12h-0.12v-0.11h-0.11v-0.12h-0.11v-0.22h-0.12v-0.12h-0.11v-0.11h-0.12v-0.12h-0.11v-0.11h-0.12v-0.12h-0.11v-0.11h-0.11v-0.23h-0.12v-0.11h-0.11v-0.12h-0.12v-0.11h-0.11v-0.11h-0.11v-0.12h-0.12v-0.11h-0.11v-0.23h-0.12v-0.11h-0.11v-0.12h-0.11v-0.11h-0.12v-0.12h-0.11v-0.11h-0.12v-0.12h-0.11v-0.22h-0.11v-0.12h-0.12v-0.11h-0.11v-0.12h-0.12v-0.11h-0.11v-0.11h-0.12v-0.12h-0.11v-0.23h-0.11v-0.11h-0.12v-0.11h-0.11v-0.12h-0.12v-0.11h-0.11v-0.12h-0.11v-0.11h-0.12v-0.23h-0.11v-0.11h-0.12v-0.12h-0.11v-0.11h-0.11v-0.12h-0.12v-0.11h-0.11v-0.11h-0.12v-0.23h-0.11v-0.12h-0.12v-0.11h-0.11v-0.11h-0.11v-0.12h-0.12v-0.11h-0.11v-0.12h-0.12v-0.23h-0.11v-0.11h-0.11v-0.11h-0.12v-0.12h-0.11v-0.11h-0.12v-0.12h-0.11v-0.11h-0.11v-0.23h-0.12v-0.11h-0.11v-0.12h-0.12v-0.11h-0.11v-0.11h-0.12v-0.12h-0.11v-0.11h-0.11v-0.23h-0.12v-0.11h-0.11v-0.12h-0.12v-0.11h-0.11v-0.12h-0.11v-0.11h-0.12v-0.12h-0.11v-0.22h-0.12v-0.12h-0.11v-0.11h-0.11v-0.12h-0.12v-0.11h-0.11v-0.11h-0.12v-0.12h-0.11v-0.23h-0.12v-0.11h-0.11v-0.11h-0.11v-0.12h-0.12v-0.11h-0.11v-0.12h-0.12v-0.11h-0.11v-0.23h-0.11v-0.11h-0.12v-0.12h-0.11v-0.11h-0.12v-0.12h-0.11v-0.11h-0.11v-0.11h-0.12v-0.23h-0.11v-0.12h-0.12v-0.11h-0.11v-0.11h-0.11v-0.12h-0.12v-0.11h-0.11v-0.12h-0.12v-0.23h-0.11v-0.11h-0.12v-0.11h-0.11v-0.12h-0.11v-0.11h-0.12v-0.12h-0.11v-0.22h-0.12v-0.12h-0.11v-0.11h-0.11v-0.12h-0.12v-0.11h-0.11v-0.11h-0.12v-0.12h-0.11v-0.23h-0.11v-0.11h-0.12v-0.12h-0.11v-0.11h-0.12v-0.11h-0.11v-0.12h-0.12v-0.11h-0.11v-0.23h-0.11v-0.11h-0.12v-0.12h-0.11v-0.11h-0.12v-0.12h-0.11v-0.11h-0.11v-0.11h-0.12v-0.23h-0.11v-0.12h-0.12v-0.11h-0.11v-0.12h-0.11v-0.11h-0.12v-0.11h-0.11v-0.12h-0.12v-0.23h-0.11v-0.11h-0.12v-0.11h-0.11v-0.12h-0.11v-0.11h-0.12v-0.12h-0.11v-0.11h-0.12v-0.23h-0.11v-0.11h-0.11v-0.12h-0.12v-0.11h-0.11v-0.11h-0.12v-0.12h-0.11v-0.11h-0.11v-0.23h-0.12v-0.12h-0.11v-0.11h-0.12v-0.11h-0.11v-0.12h-0.12v-0.11h-0.11v-0.12h-0.11v-0.22h-0.12v-0.12h-0.11v-0.11h-0.12v-0.12h-0.11v-0.11h-0.11v-0.11h-0.12v-0.12h-0.11v-0.23h-0.12v-0.11h-0.11v-0.12h-0.11v-0.11h-0.12v-0.11h-0.11v-0.12h-0.12v-0.11h-0.11v-0.23h-0.11v-0.11h-0.12v-0.12h-0.11v-0.11h-0.12v-0.12h-0.11v-0.11h-0.12v-0.11h-0.11v-0.23h-0.11v-0.12h-0.12v-0.11h-0.11v-0.12h-0.12v-0.11h-0.11v-0.11h-0.11v-0.12h-0.12v-0.23h-0.11v-0.11h-0.12v-0.11h-0.11v-0.12h-0.11v-0.11h-0.12v-0.12h-0.11v-0.11h-0.12v-0.23h-0.11v-0.11h-0.12v-0.12h-0.11v-0.11h-0.11v-0.12h-0.12v-0.11h-0.11v-0.11h-0.12v-0.23h-0.11v-0.12h-0.11v-0.11h-0.12v-0.11h-0.11v-0.12h-0.12v-0.11h-0.11v-0.12h-0.11v-0.22h-0.12v-0.12h-0.11v-0.11h-0.12v-0.12h-0.11v-0.11h-0.12v-0.11h-0.11v-0.12h-0.11v-0.23h-0.12v-0.11h-0.11v-0.12h-0.12v-0.11h-0.11v-0.11h-0.11v-0.12h-0.12v-0.11h-0.11v-0.23h-0.12v-0.11h-0.11v-0.12h-0.11v-0.11h-0.12v-0.12h-0.11v-0.11h-0.12v-0.11h-0.11v-0.23h-0.12v-0.12h-0.11v-0.11h-0.11v-0.12h-0.12v-0.11h-0.11v-0.11h-0.12v-0.12h-0.11v-0.23h-0.11v-0.11h-0.12v-0.11h-0.11v-0.12h-0.12v-0.11h-0.11v-0.12h-0.11v-0.11h-0.12v-0.23h-0.11v-0.11h-0.12v-0.12h-0.11v-0.11h-0.12v-0.12h-0.11v-0.11h-0.11v-0.11h-0.12v-0.23h-0.11v-0.12h-0.12v-0.11h-0.11v-0.11h-0.11v-0.12h-0.12v-0.11h-0.11v-0.12h-0.12v-0.22h-0.11v-0.12h-0.11v-0.11h-0.12v-0.12h-0.11v-0.11h-0.12v-0.12h-0.11v-0.11h-0.11v-0.23h-0.12v-0.11h-0.11v-0.12h-0.12v-0.11h-0.11v-0.11h-0.12v-0.12h-0.11v-0.11h-0.11v-0.23h-0.12v-0.11h-0.11v-0.12h-0.12v-0.11h-0.11v-0.12h-0.11v-0.11h-0.12v-0.11h-0.11v-0.23h-0.12v-0.12h-0.11v-0.11h-0.11v-0.12h-0.12v-0.11h-0.11v-0.11h-0.12v-0.12h-0.11v-0.23h-0.12v-0.11h-0.11v-0.11h-0.11v-0.12h-0.12v-0.11h-0.11v-0.12h-0.12v-0.11h-0.11v-0.23h-0.11v-0.11h-0.12v-0.12h-0.11v-0.11h-0.12v-0.12h-0.11v-0.11h-0.11v-0.11h-0.12v-0.23h-0.11v-0.12h-0.12v-0.11h-0.11v-0.11h-0.12v-0.12h-0.11v-0.11h-0.11v-0.12h-0.12v-0.22h-0.11v-0.12h-0.12v-0.11h-0.11v-0.12h-0.11v-0.11h-0.12v-0.12h-0.11v-0.11h-0.12v-0.23h-0.11v-0.11h-0.11v-0.12h-0.12v-0.11h-0.11v-0.11h-0.12v-0.12h-0.11v-0.11h-0.12v-0.23h-0.11v-0.11h-0.11v-0.12h-0.12v-0.11h-0.11v-0.12h-0.12v-0.11h-0.11v-0.23h-0.11v-0.11h-0.12v-0.12h-0.11v-0.11h-0.12v-0.12h-0.11v-0.11h-0.11v-0.11h-0.12v-0.23h-0.11v-0.12h-0.12v-0.11h-0.11v-0.11h-0.11v-0.12h-0.12v-0.11h-0.11v-0.12h-0.12v-0.23h-0.11v-0.11h-0.12v-0.11h-0.11v-0.12h-0.11v-0.11h-0.12v-0.12h-0.11v-0.11h-0.12v-0.23h-0.11v-0.11h-0.11v-0.12h-0.12v-0.11h-0.11v-0.11h-0.12v-0.12h-0.11v-0.11h-0.11v-0.23h-0.12v-0.11h-0.11v-0.12h-0.12v-0.11h-0.11v-0.12h-0.12v-0.11h-0.11v-0.12h-0.11v-0.22h-0.12v-0.12h-0.11v-0.11h-0.12v-0.12h-0.11v-0.11h-0.11v-0.11h-0.12v-0.12h-0.11v-0.23h-0.12v-0.11h-0.11v-0.11h-0.11v-0.12h-0.12v-0.11h-0.11v-0.12h-0.12v-0.11h-0.11v-0.23h-0.12v-0.11h-0.11v-0.12h-0.11v-0.11h-0.12v-0.12h-0.11v-0.11h-0.12v-0.11h-0.11v-0.23h-0.11v-0.12h-0.12v-0.11h-0.11v-0.11h-0.12v-0.12h-0.11v-0.11h-0.11v-0.12h-0.12v-0.23h-0.11v-0.11h-0.12v-0.11h-0.11v-0.12h-0.12v-0.11h-0.11v-0.12h-0.11v-0.11h-0.12v-0.23h-0.11v-0.11h-0.12v-0.12h-0.11v-0.11h-0.11v-0.11h-0.12v-0.12h-0.11v-0.11h-0.12v-0.23h-0.11v-0.12h-0.11v-0.11h-0.12v-0.11h-0.11v-0.12h-0.12v-0.11h-0.11v-0.12h-0.11v-0.22h-0.12v-0.12h-0.11v-0.11h-0.12v-0.12h-0.11v-0.11h-0.12v-0.11h-0.11v-0.12h-0.11v-0.23h-0.12v-0.11h-0.11v-0.11h-0.12v-0.12h-0.11v-0.11h-0.11v-0.12h-0.12v-0.11h-0.11v-0.23h-0.12v-0.11h-0.11v-0.12h-0.11v-0.11h-0.12v-0.12h-0.11v-0.11h-0.12v-0.11h-0.11v-0.23h-0.12v-0.12h-0.11v-0.11h-0.11v-0.11h-0.12v-0.12h-0.11v-0.11h-0.12v-0.12h-0.11v-0.23h-0.11v-0.11h-0.12v-0.11h-0.11v-0.12h-0.12v-0.11h-0.11v-0.12h-0.11v-0.11h-0.12v-0.23h-0.11v-0.11h-0.12v-0.12h-0.11v-0.11h-0.12v-0.11h-0.11v-0.12h-0.11v-0.11h-0.12v-0.23h-0.11v-0.12h-0.12v-0.11h-0.11v-0.11h-0.11v-0.12h-0.12v-0.11h-0.11v-0.12h-0.12v-0.22h-0.11v-0.12h-0.11v-0.11h-0.12v-0.12h-0.11v-0.11h-0.12v-0.11h-0.11v-0.12h-0.12v-0.23h-0.11v-0.11h-0.11v-0.12h-0.12v-0.11h-0.11v-0.11h-0.12v-0.12h-0.11v-0.11h-0.11v-0.23h-0.12v-0.11h-0.11v-0.12h-0.12v-0.11h-0.11v-0.12h-0.11v-0.11h-0.12v-0.11h-0.11v-0.23h-0.12v-0.12h-0.11v-0.11h-0.12v-0.11h-0.11v-0.12h-0.11v-0.11h-0.12v-0.12h-0.11v-0.23h-0.12v-0.11h-0.11v-0.11h-0.11v-0.12h-0.12v-0.11h-0.11v-0.12h-0.12v-0.11h-0.11v-0.23h-0.11v-0.11h-0.12v-0.12h-0.11v-0.11h-0.12v-0.11h-0.11v-0.12h-0.11v-0.11h-0.12v-0.23h-0.11v-0.12h-0.12v-0.11h-0.11v-0.11h-0.12v-0.12h-0.11v-0.11h-0.11v-0.12h-0.12v-0.22h-0.11v-0.12h-0.12v-0.11h-0.11v-0.12h-0.11v-0.11h-0.12v-0.11h-0.11v-0.12h-0.12v-0.23h-0.11v-0.11h-0.11v-0.12h-0.12v-0.11h-0.11v-0.11h-0.12v-0.12h-0.11v-0.11h-0.12v-0.23h-0.11v-0.11h-0.11v-0.12h-0.12v-0.11h-0.11v-0.12h-0.12v-0.11h-0.11v-0.11h-0.11v-0.23h-0.12v-0.12h-0.11v-0.11h-0.12v-0.12h-0.11v-0.11h-0.11v-0.11h-0.12v-0.23h-0.11v-0.12h-0.12v-0.11h-0.11v-0.11h-0.12v-0.12h-0.11v-0.11h-0.11v-0.12h-0.12v-0.22h-0.11v-0.12h-0.12v-0.11h-0.11v-0.12h-0.11v-0.11h-0.12v-0.12h-0.11v-0.11h-0.12v-0.23h-0.11v-0.11h-0.11v-0.12h-0.12v-0.11h-0.11v-0.11h-0.12v-0.12h-0.11v-0.11h-0.12v-0.23h-0.11v-0.11h-0.11v-0.12h-0.12v-0.11h-0.11v-0.12h-0.12v-0.11h-0.11v-0.11h-0.11v-0.23h-0.12v-0.12h-0.11v-0.11h-0.12v-0.12h-0.11v-0.11h-0.11v-0.11h-0.12v-0.12h-0.11v-0.23h-0.12v-0.11h-0.11v-0.11h-0.11v-0.12h-0.12v-0.11h-0.11v-0.12h-0.12v-0.11h-0.11v-0.23h-0.12v-0.11h-0.11v-0.12h-0.11v-0.11h-0.12v-0.12h-0.11v-0.11h-0.12v-0.11h-0.11v-0.23h-0.11v-0.12h-0.12v-0.11h-0.11v-0.11h-0.12v-0.12h-0.11v-0.11h-0.11v-0.12h-0.12v-0.22h-0.11v-0.12h-0.12v-0.11h-0.11v-0.12h-0.12v-0.11h-0.11v-0.12h-0.11v-0.11h-0.12v-0.11h-0.11v-0.23h-0.12v-0.12h-0.11v-0.11h-0.11v-0.11h-0.12v-0.12h-0.11v-0.11h-0.12v-0.12h-0.11v-0.11h-0.11v-0.23h-0.12v-0.11h-0.11v-0.12h-0.12v-0.11h-0.11v-0.12h-0.12v-0.11h-0.11v-0.11h-0.11v-0.23h-0.12v-0.12h-0.11v-0.11h-0.12v-0.11h-0.11v-0.12h-0.11v-0.11h-0.12v-0.12h-0.11v-0.22h-0.12v-0.12h-0.11v-0.11h-0.11v-0.12h-0.12v-0.11h-0.11v-0.11h-0.12v-0.23h-0.11v-0.12h-0.12v-0.11h-0.11v-0.12h-0.11v-0.11h-0.12v-0.23h-0.11v-0.11h-0.12v-0.12h-0.11v-0.11h-0.11v-0.23h-0.12v-0.11h-0.11v-0.12h-0.12v-0.22h-0.11v-0.12h-0.11v-0.11h-0.12v-0.23h-0.11v-0.12h-0.12v-0.11h-0.11v-0.23h-0.11v-0.11h-0.12v-0.23h-0.11v-0.11h-0.12v-0.23h-0.11v-0.12h-0.12v-0.22h-0.11v-0.12h-0.11v-0.23h-0.12v-0.23h-0.11v-0.22h-0.12v-0.12h-0.11v-0.23h-0.11v-0.22h-0.12v-0.23h-0.11v-0.34h-0.12v-0.23h-0.11v-0.35h-0.11v-0.45h-0.12v-0.46h-0.11v-0.45h-0.12v-0.57h-0.11v-0.58h-0.12v-0.68h-0.11v-0.8h-0.11v-1.03h-0.12v-1.25h-0.11v-2.06h-0.12v-71.66h0.12v-1.71h0.11v-1.14h0.12v-1.03h0.11v-0.79h0.11v-0.69h0.12z">
    </path>
    </g>
</svg>