<svg xmlns="http://www.w3.org/2000/svg" height="900px" width="900px" viewBox="0 0 459 520"> <g fill-rule="evenodd" fill="none"><g id="s2-logo-full"><path class="encompass" fill="#333" d="m50.208 49.98c1.478-2.585 3.417-4.833 5.25-7.189 2.424-3.117 4.672-6.355 7.645-9.014 2.705-2.421 12.302-6.222 16.432-7.874 16.603-6.641 33.895-11.817 51.575-15.747 9.19-2.0412 17.95-3.747 27.27-5.1352 13.6-2.0253 27.35-3.5199 41.08-4.222 29.37-1.501 58.77-1.0004 87.98 2.5104 27.88 3.3511 55.66 9.2308 81.71 18.828 6.31 2.326 12.39 4.801 18.48 7.646 1.13 0.524 5.7 2.317 7.19 3.651 5.27 4.695 8.78 10.012 12.67 15.633 4.3 6.209 8.54 13.601 12.44 20.883 15.47 28.938 24.54 61.59 30.35 94.48 2.49 14.14 4.44 28.35 5.7 42.68 3.24 36.66 3.22 73.95-0.45 110.57-1.31 13.06-2.89 24.91-5.25 37.77-6.82 37.19-17.59 74.01-36.52 105.56-4.2 6.99-8.56 13.48-13.58 19.51-1.65 1.98-3.63 4.96-6.04 6.39-3.56 2.1-6.78 3.34-10.16 4.79-9.11 3.9-18.04 7.24-27.5 10.16-31.7 9.75-64.43 15.35-97.91 17.23-27.24 1.53-54.68 1.1-81.81-1.94-29.06-3.27-57.86-8.98-85.13-18.72-6.271-2.24-12.113-4.46-18.257-7.19-3.29-1.46-6.942-2.7-9.814-4.79-2.902-2.11-5.566-5.98-7.759-8.9-6.534-8.71-12.062-17.64-17.345-27.73-19.208-36.67-29.895-80.51-34.575-122.32-3.7668-33.66-4.7258-67.63-2.853-101.45 0.6527-11.78 1.507-22 2.8527-33.66 5.5781-48.34 19.267-101.93 45.644-141.5 0.047-0.068 0.165-0.168 0.228-0.111l0.456-0.799c5.114 4.691 9.551 10.091 14.721 14.72 0.01 0.009 1.158-1.907 1.255-2.054 0.047-0.07 0.181-0.043 0.228-0.114 0.042-0.063-0.042-0.165 0-0.228 0.047-0.071 0.181-0.043 0.228-0.114 0.043-0.063-0.042-0.165 0-0.228 0.048-0.071 0.181-0.044 0.229-0.114 0.042-0.064-0.043-0.165 0-0.229 0.047-0.07 0.181-0.043 0.228-0.114 0.042-0.063-0.042-0.165 0-0.228 0.047-0.071 0.181-0.043 0.228-0.114 0.042-0.063-0.042-0.165 0-0.228 0.047-0.071 0.181-0.044 0.228-0.114 0.042-0.064-0.042-0.165 0-0.229 0.047-0.07 0.181-0.043 0.228-0.114 0.043-0.063-0.042-0.165 0-0.228 0.048-0.071 0.181-0.043 0.229-0.114 0.042-0.063-0.043-0.165 0-0.228 0.047-0.071 0.181-0.044 0.228-0.114 0.042-0.064-0.046-0.168 0-0.228 0.082-0.11 0.26-0.119 0.342-0.229 0.046-0.061-0.043-0.166 0-0.228 0.232-0.331 0.569-0.58 0.799-0.913 0.117-0.168 0.107-0.405 0.228-0.57 0.303-0.413 0.725-0.729 1.027-1.141 0.121-0.166 0.106-0.407 0.228-0.571 0.226-0.301 0.568-0.502 0.799-0.799 0.047-0.06-0.046-0.168 0-0.228 0.345-0.448 0.797-0.807 1.141-1.255 0.047-0.061-0.047-0.169 0-0.228 0.119-0.149 0.338-0.194 0.457-0.343 0.047-0.059-0.048-0.169 0-0.228 0.119-0.149 0.337-0.194 0.456-0.342 0.048-0.06-0.049-0.17 0-0.229 0.156-0.187 0.415-0.269 0.571-0.456 0.048-0.058-0.049-0.17 0-0.228 0.572-0.679 1.126-1.393 1.825-1.94 0.537-0.419 1.199-0.649 1.826-0.913 0.105-0.044 0.239 0.048 0.343 0 0.478-0.223 0.89-0.575 1.369-0.799 0.103-0.048 0.238 0.047 0.342 0 0.327-0.148 0.586-0.423 0.913-0.57 0.439-0.198 0.93-0.261 1.369-0.457 0.251-0.111 0.434-0.347 0.685-0.456 0.629-0.274 1.31-0.415 1.94-0.685 0.175-0.075 0.282-0.267 0.456-0.342 0.105-0.045 0.237 0.042 0.343 0 0.1-0.04 0.128-0.188 0.228-0.228 0.106-0.043 0.237 0.044 0.342 0 0.362-0.151 0.666-0.42 1.027-0.571 0.106-0.044 0.237 0.042 0.343 0 0.663-0.265 1.274-0.652 1.939-0.913 0.216-0.084 0.47-0.03 0.685-0.114 0.476-0.185 0.893-0.502 1.369-0.685 0.821-0.313 1.689-0.49 2.511-0.798 0.101-0.038 0.127-0.192 0.228-0.229 0.33-0.119 0.698-0.108 1.027-0.228 0.512-0.186 0.971-0.501 1.484-0.684 0.556-0.199 1.154-0.26 1.711-0.457 0.102-0.036 0.127-0.192 0.228-0.228 2.611-0.919 5.231-1.793 7.871-2.625 0.15-0.045 0.31 0.046 0.46 0 0.47-0.147 0.9-0.423 1.37-0.57 0.14-0.046 0.31 0.045 0.46 0 0.35-0.11 0.66-0.346 1.02-0.457 0.15-0.044 0.31 0.044 0.46 0 0.24-0.073 0.44-0.269 0.68-0.342 0.15-0.044 0.31 0.044 0.46 0 0.24-0.073 0.44-0.27 0.68-0.342 0.41-0.12 0.85-0.11 1.26-0.229 1.04-0.301 2.04-0.729 3.08-1.027 0.3-0.084 0.62-0.032 0.91-0.114 0.4-0.109 0.75-0.346 1.14-0.456 0.3-0.082 0.62-0.033 0.92-0.114 0.13-0.036 0.21-0.193 0.34-0.228 0.45-0.12 0.92-0.109 1.37-0.229 0.13-0.035 0.21-0.193 0.34-0.228 0.75-0.196 1.53-0.26 2.28-0.456 0.14-0.035 0.21-0.191 0.35-0.228 1.2-0.345 2.42-0.648 3.65-0.913 0.18-0.041 0.38 0.044 0.57 0 0.62-0.148 1.2-0.423 1.82-0.571 0.19-0.044 0.39 0.043 0.57 0 0.32-0.073 0.6-0.269 0.92-0.342 0.18-0.043 0.38 0.041 0.57 0 1.68-0.378 3.33-0.884 5.02-1.255 0.56-0.124 1.15-0.11 1.71-0.229 0.17-0.035 0.29-0.191 0.46-0.228 2.08-0.459 4.17-0.877 6.27-1.255 16.35-2.947 32.98-5.239 49.64-6.39 16.59-1.147 33.13-1.309 49.75-0.913 11.15 0.265 22.35 1.114 33.44 2.282 27.32 2.876 54.34 8.293 79.87 17.231 6.02 2.105 11.89 4.317 17.58 6.846 1.54 0.685 3.06 1.4 4.68 2.168 1.46 0.696-2.35-2.643 1.48 0.571 2.4 2.013 5.61 6.897 7.42 9.471 5.69 8.128 11.06 17.538 15.74 27.501 13.49 28.66 21.78 60.26 26.71 92.43 1.7 11.12 2.99 22.42 3.87 33.66 1.88 23.88 2.29 47.84 1.37 71.78-0.61 15.9-2.04 31.68-3.99 47.47-1.37 11.1-3.41 21.98-5.71 32.86-5.65 26.87-13.7 52.97-26.47 76.91-3.84 7.21-7.78 13.65-12.21 19.97-1.24 1.77-4.95 7.22-6.62 8.44-15.32 11.27 0.31-0.21-2.62 1.14-2.24 1.04-4.44 2.02-6.73 2.97-6.51 2.71-13.58 5.3-20.66 7.53-31.73 10.02-65.41 15.57-99.16 17.23-24.2 1.2-48.6 0.71-72.69-1.94-25.3-2.78-50.36-7.73-74.28-15.29-6.951-2.19-13.4-4.52-19.973-7.19-1.707-0.69-8.738-3.3-10.27-4.45-1.709-1.28-4.929-6.1-6.276-7.98-6.035-8.45-11.663-18.16-16.546-28.53-14.42-30.64-23.037-64.74-27.843-99.05-4.332-30.93-5.678-62.49-4.564-93.68 0.534-14.95 1.465-29.88 3.195-44.73 3.857-33.12 11.069-66.32 23.393-96.656 3.712-9.139 7.905-17.903 12.666-26.473 1.647-2.965 2.92-5.847 4.907-8.331"></path><path class="two" fill="#D2741C" d="m273.64 273.41v-0.23h0.11v-0.23h0.11v-0.23h0.12v-0.22h0.11v-0.35h0.12v-0.23h0.11v-0.22h0.11v-0.35h0.12v-0.22h0.11v-0.23h0.12v-0.34h0.11v-0.23h0.12v-0.23h0.11v-0.34h0.11v-0.23h0.12v-0.23h0.11v-0.34h0.12v-0.23h0.11v-0.23h0.11v-0.23h0.12v-0.34h0.11v-0.23h0.12v-0.23h0.11v-0.34h0.11v-0.23h0.12v-0.22h0.11v-0.35h0.12v-0.23h0.11v-0.22h0.12v-0.35h0.11v-0.22h0.11v-0.23h0.12v-0.34h0.11v-0.23h0.12v-0.23h0.11v-0.23h0.11v-0.34h0.12v-0.23h0.11v-0.23h0.12v-0.34h0.11v-0.23h0.11v-0.23h0.12v-0.34h0.11v-0.23h0.12v-0.23h0.11v-0.34h0.12v-0.23h0.11v-0.22h0.11v-0.35h0.12v-0.22h0.11v-0.23h0.12v-0.23h0.11v-0.34h0.11v-0.23h0.12v-0.23h0.11v-0.34h0.12v-0.23h0.11v-0.23h0.11v-0.34h0.12v-0.23h0.11v-0.23h0.12v-0.34h0.11v-0.23h0.12v-0.23h0.11v-0.34h0.11v-0.23h0.12v-0.23h0.11v-0.22h0.12v-0.35h0.11v-0.22h0.11v-0.23h0.12v-0.34h0.11v-0.23h0.12v-0.23h0.11v-0.34h0.11v-0.23h0.12v-0.23h0.11v-0.34h0.12v-0.23h0.11v-0.23h0.11v-0.34h0.12v-0.23h0.11v-0.23h0.12v-0.23h0.11v-0.34h0.12v-0.23h0.11v-0.22h0.11v-0.35h0.12v-0.22h0.11v-0.23h0.12v-0.35h0.11v-0.22h0.11v-0.23h0.12v-0.34h0.11v-0.23h0.12v-0.23h0.11v-0.34h0.11v-0.23h0.12v-0.23h0.11v-0.23h0.12v-0.34h0.11v-0.23h0.12v-0.23h0.11v-0.34h0.11v-0.23h0.12v-0.22h0.11v-0.35h0.12v-0.23h0.11v-0.22h0.11v-0.35h0.12v-0.22h0.11v-0.23h0.12v-0.34h0.11v-0.23h0.11v-0.23h0.12v-0.23h0.11v-0.34h0.12v-0.23h0.11v-0.23h0.12v-0.34h0.11v-0.23h0.11v-0.23h0.12v-0.34h0.11v-0.23h0.12v-0.23h0.11v-0.34h0.11v-0.23h0.12v-0.22h0.11v-0.35h0.12v-0.23h0.11v-0.22h0.11v-0.23h0.12v-0.34h0.11v-0.23h0.12v-0.23h0.11v-0.34h0.12v-0.23h0.11v-0.23h0.11v-0.34h0.12v-0.23h0.11v-0.23h0.12v-0.34h0.11v-0.23h0.11v-0.23h0.12v-0.34h0.11v-0.23h0.12v-0.23h0.11v-0.22h0.11v-0.35h0.12v-0.22h0.11v-0.23h0.12v-0.34h0.11v-0.23h0.12v-0.23h0.11v-0.34h0.11v-0.23h0.12v-0.23h0.11v-0.34h0.12v-0.23h0.11v-0.23h0.11v-0.34h0.12v-0.23h0.11v-0.23h0.12v-0.23h0.11v-0.34h0.11v-0.23h0.12v-0.22h0.11v-0.35h0.12v-0.23h0.11v-0.22h0.11v-0.35h0.12v-0.22h0.11v-0.23h0.12v-0.34h0.11v-0.23h0.12v-0.23h0.11v-0.34h0.11v-0.23h0.12v-0.23h0.11v-0.23h0.12v-0.34h0.11v-0.23h0.11v-0.23h0.12v-0.34h0.11v-0.23h0.12v-0.23h0.11v-0.34h0.11v-0.23h0.12v-0.22h0.11v-0.35h0.12v-0.22h0.11v-0.23h0.12v-0.35h0.11v-0.22h0.11v-0.23h0.12v-0.23h0.11v-0.34h0.12v-0.23h0.11v-0.23h0.11v-0.34h0.12v-0.23h0.11v-0.23h0.12v-0.34h0.11v-0.23h0.11v-0.23h0.12v-0.34h0.11v-0.23h0.12v-0.22h0.11v-0.35h0.12v-0.23h0.11v-0.22h0.11v-0.23h0.12v-0.34h0.11v-0.23h0.12v-0.23h0.11v-0.34h0.11v-0.23h0.12v-0.23h0.11v-0.34h0.12v-0.23h0.11v-0.23h0.11v-0.34h0.12v-0.23h0.11v-0.23h0.12v-0.34h0.11v-0.23h0.12v-0.23h0.11v-0.22h0.11v-0.35h0.12v-0.22h0.11v-0.23h0.12v-0.35h0.11v-0.22h0.11v-0.23h0.12v-0.23h0.11v-0.23h0.12v-0.34h0.11v-0.23h0.11v-0.23h0.12v-0.22h0.11v-0.35h0.12v-0.23h0.11v-0.34h0.11v-0.23h0.12v-0.34h0.11v-0.23h0.12v-0.34h0.11v-0.23h0.12v-0.34h0.11v-0.34h0.11v-0.34h0.12v-0.35h0.11v-0.34h0.12v-0.34h0.11v-0.34h0.11v-0.35h0.12v-0.34h0.11v-0.45h0.12v-0.46h0.11v-0.46h0.11v-0.45h0.12v-0.69h0.11v-0.46h0.12v-0.91h0.11v-0.68h0.12v-1.71h0.11v-49.76h-0.11v-0.68h-0.12v-0.46h-0.11v-0.34h-0.12v-0.34h-0.11v-0.34h-0.12v-0.23h-0.11v-0.23h-0.11v-0.23h-0.12v-0.23h-0.11v-0.23h-0.12v-0.22h-0.11v-0.23h-0.11v-0.12h-0.12v-0.22h-0.11v-0.12h-0.12v-0.23h-0.11v-0.11h-0.11v-0.11h-0.12v-0.23h-0.11v-0.12h-0.12v-0.11h-0.11v-0.12h-0.12v-0.11h-0.11v-0.11h-0.11v-0.12h-0.12v-0.11h-0.11v-0.12h-0.12v-0.11h-0.11v-0.11h-0.23v-0.12h-0.11v-0.11h-0.12v-0.12h-0.22v-0.11h-0.12v-0.11h-0.23v-0.12h-0.11v-0.11h-0.23v-0.12h-0.23v-0.11h-0.23v-0.12h-0.22v-0.11h-0.23v-0.11h-0.23v-0.12h-0.23v-0.11h-0.34v-0.12h-0.34v-0.11h-0.35v-0.11h-0.45v-0.12h-0.8v-0.11h-43.7v0.11h-0.58v0.12h-0.45v0.11h-0.34v0.11h-0.35v0.12h-0.34v0.11h-0.23v0.12h-0.23v0.11h-0.22v0.11h-0.23v0.12h-0.23v0.11h-0.23v0.12h-0.23v0.11h-0.11v0.12h-0.23v0.11h-0.11v0.11h-0.23v0.12h-0.12v0.11h-0.11v0.12h-0.11v0.11h-0.23v0.11h-0.12v0.12h-0.11v0.11h-0.11v0.12h-0.12v0.11h-0.11v0.11h-0.12v0.12h-0.11v0.11h-0.11v0.12h-0.12v0.11h-0.11v0.12h-0.12v0.22h-0.11v0.23h-0.11v0.12h-0.12v0.11h-0.11v0.23h-0.12v0.23h-0.11v0.22h-0.12v0.12h-0.11v0.23h-0.11v0.23h-0.12v0.34h-0.11v0.23h-0.12v0.22h-0.11v0.35h-0.11v0.34h-0.12v0.45h-0.11v-13h-0.12v-2.63h-0.11v-1.37h-0.11v-1.02h-0.12v-0.92h-0.11v-0.8h-0.12v-0.68h-0.11v-0.57h-0.12v-0.57h-0.11v-0.57h-0.11v-0.46h-0.12v-0.46h-0.11v-0.45h-0.12v-0.34h-0.11v-0.46h-0.11v-0.34h-0.12v-0.35h-0.11v-0.34h-0.12v-0.34h-0.11v-0.34h-0.11v-0.23h-0.12v-0.34h-0.11v-0.23h-0.12v-0.23h-0.11v-0.34h-0.12v-0.23h-0.11v-0.23h-0.11v-0.23h-0.12v-0.22h-0.11v-0.23h-0.12v-0.12h-0.11v-0.22h-0.11v-0.23h-0.12v-0.12h-0.11v-0.23h-0.12v-0.22h-0.11v-0.12h-0.11v-0.23h-0.12v-0.11h-0.11v-0.11h-0.12v-0.23h-0.11v-0.12h-0.12v-0.11h-0.11v-0.11h-0.11v-0.23h-0.12v-0.12h-0.11v-0.11h-0.12v-0.12h-0.11v-0.11h-0.11v-0.11h-0.12v-0.12h-0.11v-0.11h-0.12v-0.12h-0.11v-0.11h-0.11v-0.11h-0.12v-0.12h-0.23v-0.11h-0.11v-0.12h-0.11v-0.11h-0.12v-0.11h-0.23v-0.12h-0.11v-0.11h-0.23v-0.12h-0.11v-0.11h-0.23v-0.12h-0.23v-0.11h-0.23v-0.11h-0.23v-0.12h-0.22v-0.11h-0.23v-0.12h-0.35v-0.11h-0.22v-0.11h-0.35v-0.12h-0.34v-0.11h-0.34v-0.12h-0.34v-0.11h-0.35v-0.11h-0.45v-0.12h-0.46v-0.11h-0.23v-0.12h0.57v-0.11h0.46v-0.12h0.69v-0.11h0.57v-0.11h0.68v-0.12h0.69v-0.11h0.79v-0.12h0.92v-0.11h1.37v-0.11h71.66v0.11h2.17v0.11h1.36v0.12h1.15v0.11h0.91v0.12h0.8v0.11h0.8v0.11h0.68v0.12h0.57v0.11h0.57v0.12h0.57v0.11h0.46v0.12h0.46v0.11h0.45v0.11h0.46v0.12h0.45v0.11h0.35v0.12h0.34v0.11h0.34v0.11h0.34v0.12h0.35v0.11h0.22v0.12h0.23v0.11h0.35v0.11h0.22v0.12h0.23v0.11h0.23v0.12h0.11v0.11h0.23v0.12h0.23v0.11h0.11v0.11h0.23v0.12h0.12v0.11h0.11v0.12h0.23v0.11h0.11v0.11h0.12v0.12h0.11v0.11h0.23v0.12h0.11v0.11h0.12v0.11h0.11v0.12h0.12v0.11h0.11v0.12h0.11v0.11h0.12v0.12h0.11v0.22h0.12v0.12h0.11v0.11h0.11v0.12h0.12v0.11h0.11v0.23h0.12v0.11h0.11v0.23h0.12v0.11h0.11v0.12h0.11v0.23h0.12v0.23h0.11v0.11h0.12v0.23h0.11v0.23h0.11v0.22h0.12v0.12h0.11v0.23h0.12v0.22h0.11v0.35h0.11v0.22h0.12v0.23h0.11v0.23h0.12v0.34h0.11v0.35h0.12v0.22h0.11v0.35h0.11v0.34h0.12v0.46h0.11v0.45h0.12v0.34h0.11v0.46h0.11v0.57h0.12v0.46h0.11v0.57h0.12v0.68h0.11v0.69h0.11v0.8h0.12v1.02h0.11v1.37h0.12v2.17h0.11v66.3h-0.11v2.05h-0.12v1.26h-0.11v1.14h-0.12v0.91h-0.11v0.8h-0.11v0.69h-0.12v0.68h-0.11v0.68h-0.12v0.58h-0.11v0.57h-0.11v0.57h-0.12v0.45h-0.11v0.46h-0.12v0.57h-0.11v0.46h-0.11v0.45h-0.12v0.34h-0.11v0.46h-0.12v0.46h-0.11v0.34h-0.12v0.46h-0.11v0.34h-0.11v0.34h-0.12v0.34h-0.11v0.46h-0.12v0.34h-0.11v0.23h-0.11v0.34h-0.12v0.35h-0.11v0.34h-0.12v0.34h-0.11v0.23h-0.11v0.34h-0.12v0.23h-0.11v0.34h-0.12v0.23h-0.11v0.34h-0.12v0.23h-0.11v0.34h-0.11v0.23h-0.12v0.23h-0.11v0.34h-0.12v0.23h-0.11v0.23h-0.11v0.23h-0.12v0.22h-0.11v0.23h-0.12v0.34h-0.11v0.23h-0.11v0.23h-0.12v0.34h-0.11v0.23h-0.12v0.23h-0.11v0.34h-0.11v0.23h-0.12v0.23h-0.11v0.34h-0.12v0.23h-0.11v0.23h-0.12v0.34h-0.11v0.23h-0.11v0.23h-0.12v0.34h-0.11v0.23h-0.12v0.22h-0.11v0.35h-0.11v0.23h-0.12v0.22h-0.11v0.35h-0.12v0.22h-0.11v0.23h-0.11v0.34h-0.12v0.23h-0.11v0.23h-0.12v0.34h-0.11v0.23h-0.12v0.23h-0.11v0.34h-0.11v0.23h-0.12v0.23h-0.11v0.34h-0.12v0.23h-0.11v0.23h-0.11v0.34h-0.12v0.23h-0.11v0.23h-0.12v0.34h-0.11v0.23h-0.11v0.34h-0.12v0.23h-0.11v0.23h-0.12v0.34h-0.11v0.23h-0.12v0.22h-0.11v0.35h-0.11v0.22h-0.12v0.23h-0.11v0.35h-0.12v0.22h-0.11v0.23h-0.11v0.34h-0.12v0.23h-0.11v0.23h-0.12v0.34h-0.11v0.23h-0.11v0.23h-0.12v0.34h-0.11v0.23h-0.12v0.23h-0.11v0.34h-0.12v0.23h-0.11v0.23h-0.11v0.34h-0.12v0.23h-0.11v0.23h-0.12v0.34h-0.11v0.23h-0.11v0.22h-0.12v0.35h-0.11v0.22h-0.12v0.23h-0.11v0.35h-0.11v0.22h-0.12v0.23h-0.11v0.34h-0.12v0.23h-0.11v0.23h-0.11v0.34h-0.12v0.23h-0.11v0.23h-0.12v0.34h-0.11v0.23h-0.12v0.23h-0.11v0.34h-0.11v0.23h-0.12v0.34h-0.11v0.23h-0.12v0.23h-0.11v0.34h-0.11v0.23h-0.12v0.23h-0.11v0.34h-0.12v0.23h-0.11v0.22h-0.11v0.35h-0.12v0.23h-0.11v0.22h-0.12v0.35h-0.11v0.22h-0.12v0.23h-0.11v0.34h-0.11v0.23h-0.12v0.23h-0.11v0.34h-0.12v0.23h-0.11v0.23h-0.11v0.34h-0.12v0.23h-0.11v0.23h-0.12v0.34h-0.11v0.23h-0.11v0.23h-0.12v0.34h-0.11v0.23h-0.12v0.23h-0.11v0.34h-0.12v0.23h-0.11v0.23h-0.11v0.34h-0.12v0.23h-0.11v0.22h-0.12v0.35h-0.11v0.22h-0.11v0.23h-0.12v0.34h-0.11v0.23h-0.12v0.23h-0.11v0.34h-0.11v0.23h-0.12v0.23h-0.11v0.34h-0.12v0.23h-0.11v0.23h-0.12v0.34h-0.11v0.23h-0.11v0.34h-0.12v0.23h-0.11v0.23h-0.12v0.34h-0.11v0.23h-0.11v0.23h-0.12v0.34h-0.11v0.23h-0.12v0.23h-0.11v0.34h-0.11v0.23h-0.12v0.22h-0.11v0.35h-0.12v0.23h-0.11v0.22h-0.12v0.35h-0.11v0.22h-0.11v0.23h-0.12v0.34h-0.11v0.23h-0.12v0.23h-0.11v0.34h-0.11v0.23h-0.12v0.23h-0.11v0.34h-0.12v0.23h-0.11v0.23h-0.11v0.34h-0.12v0.23h-0.11v0.23h-0.12v0.34h-0.11v0.23h-0.11v0.23h-0.12v0.34h-0.11v0.23h-0.12v0.22h-0.11v0.35h-0.12v0.23h-0.11v0.22h-0.11v0.35h-0.12v0.22h-0.11v0.23h-0.12v0.34h-0.11v0.23h-0.11v0.23h-0.12v0.34h-0.11v0.23h-0.12v0.34h-0.11v0.23h-0.11v0.23h-0.12v0.34h-0.11v0.23h-0.12v0.23h-0.11v0.34h-0.12v0.23h-0.11v0.23h-0.11v0.34h-0.12v0.23h-0.11v0.23h-0.12v0.34h-0.11v0.23h-0.11v0.23h-0.12v0.34h-0.11v0.23h-0.12v0.22h-0.11v0.35h-0.11v0.22h-0.12v0.23h-0.11v0.35h-0.12v0.22h-0.11v0.23h-0.12v0.34h-0.11v0.23h-0.11v0.23h-0.12v0.34h-0.11v0.23h-0.12v0.23h-0.11v0.34h-0.11v0.23h-0.12v0.23h-0.11v0.34h-0.12v0.23h-0.11v0.23h-0.11v0.34h-0.12v0.23h-0.11v0.23h-0.12v0.34h-0.11v0.23h-0.12v0.22h-0.11v0.35h-0.11v0.22h-0.12v0.23h-0.11v0.35h-0.12v0.22h-0.11v0.23h-0.11v0.34h-0.12v0.23h-0.11v0.34h-0.12v0.23h-0.11v0.23h-0.11v0.34h-0.12v0.23h-0.11v0.23h-0.12v0.34h-0.11v0.23h-0.11v0.23h-0.12v0.34h-0.11v0.23h-0.12v0.23h-0.11v0.34h-0.12v0.23h-0.11v0.23h-0.11v0.34h-0.12v0.23h-0.11v0.23h-0.12v0.34h-0.11v0.23h-0.11v0.22h-0.12v0.35h-0.11v0.22h-0.12v0.23h-0.11v0.35h-0.11v0.22h-0.12v0.23h-0.11v0.34h-0.12v0.23h-0.11v0.23h-0.12v0.34h-0.11v0.23h-0.11v0.23h-0.12v0.34h-0.11v0.23h-0.12v0.23h-0.11v0.34h-0.11v0.23h-0.12v0.23h-0.11v0.34h-0.12v0.23h-0.11v0.23h-0.11v0.34h-0.12v0.23h-0.11v0.22h-0.12v0.35h-0.11v0.22h-0.12v0.35h-0.11v0.23h-0.11v0.22h-0.12v0.35h-0.11v0.22h-0.12v0.23h-0.11v0.34h-0.11v0.23h-0.12v0.23h-0.11v0.34h-0.12v0.23h-0.11v0.23h-0.11v0.34h-0.12v0.23h-0.11v0.23h-0.12v0.34h-0.11v0.23h-0.12v0.23h-0.11v0.34h-0.11v0.23h-0.12v0.23h-0.11v0.34h-0.12v0.23h-0.11v0.22h-0.11v0.35h-0.12v0.23h-0.11v0.22h-0.12v0.35h-0.11v0.22h-0.11v0.23h-0.12v0.34h-0.11v0.23h-0.12v0.23h-0.11v0.34h-0.11v0.23h-0.12v0.23h-0.11v0.34h-0.12v0.23h-0.11v0.23h-0.12v0.34h-0.11v0.23h-0.11v0.23h-0.12v0.34h-0.11v0.23h-0.12v0.23h-0.11v0.34h-0.11v0.23h-0.12v0.22h-0.11v0.35h-0.12v0.23h-0.11v0.34h-0.11v0.23h-0.12v0.22h-0.11v0.35h-0.12v0.22h-0.11v0.23h-0.12v0.35h-0.11v0.22h-0.11v0.23h-0.12v0.34h-0.11v0.23h-0.12v0.23h-0.11v0.34h-0.11v0.23h-0.12v0.23h-0.11v0.34h-0.12v0.23h-0.11v0.23h-0.11v0.34h-0.12v0.23h-0.11v0.23h-0.12v0.34h-0.11v0.23h-0.12v0.23h-0.11v0.34h-0.11v0.23h-0.12v0.22h-0.11v0.35h-0.12v0.23h-0.11v0.22h-0.11v0.35h-0.12v0.22h-0.11v0.23h-0.12v0.34h-0.11v0.23h-0.11v0.23h-0.12v0.34h-0.11v0.23h-0.12v0.23h-0.11v0.34h-0.12v0.23h-0.11v0.23h-0.11v0.34h-0.12v0.23h-0.11v0.23h-0.12v0.34h-0.11v0.23h-0.11v0.34h-0.12v0.23h-0.11v0.23h-0.12v0.34h-0.11v0.23h-0.11v0.23h-0.12v0.34h-0.11v0.23h-0.12v0.22h-0.11v0.35h-0.12v0.22h-0.11v0.23h-0.11v0.35h-0.12v0.22h-0.11v0.23h-0.12v0.34h-0.11v0.23h-0.11v0.23h-0.12v0.34h-0.11v0.23h-0.12v0.23h-0.11v0.34h-0.11v0.23h-0.12v0.23h-0.11v0.34h-0.12v0.23h-0.11v0.23h-0.11v0.34h-0.12v0.23h-0.11v0.23h-0.12v0.34h-0.11v0.23h-0.12v0.22h-0.11v0.35h-0.11v0.22h-0.12v0.23h-0.11v0.35h-0.12v0.22h-0.11v0.23h-0.11v0.34h-0.12v0.23h-0.11v0.23h-0.12v0.34h-0.11v0.23h-0.11v0.23h-0.12v0.34h-0.11v0.23h-0.12v0.34h-0.11v0.23h-0.12v0.23h-0.11v0.34h-0.11v0.23h-0.12v0.23h-0.11v0.34h-0.12v0.23h-0.11v0.23h-0.11v0.34h-0.12v0.23h-0.11v0.22h-0.12v0.35h-0.11v0.23h-0.11v0.22h-0.12v0.35h-0.11v0.22h-0.12v0.23h-0.11v0.34h-0.12v0.23h-0.11v0.23h-0.11v0.34h-0.12v0.23h-0.11v0.23h-0.12v0.34h-0.11v0.23h-0.11v0.23h-0.12v0.34h-0.11v0.23h-0.12v0.23h-0.11v0.34h-0.11v0.23h-0.12v0.23h-0.11v0.34h-0.12v0.23h-0.11v0.23h-0.12v0.34h-0.11v0.23h-0.11v0.22h-0.12v0.35h-0.11v0.22h-0.12v0.23h-0.11v0.34h-0.11v0.23h-0.12v0.23h-0.11v0.34h-0.12v0.23h-0.11v0.23h-0.11v0.34h-0.12v0.23h-0.11v0.34h-0.12v0.23h-0.11v0.23h-0.11v0.34h-0.12v0.23h-0.11v0.23h-0.12v0.34h-0.11v0.23h-0.12v0.23h-0.11v0.34h-0.11v0.23h-0.12v0.23h-0.11v0.34h-0.12v0.23h-0.11v0.22h-0.11v0.35h-0.12v0.23h-0.11v0.22h-0.12v0.35h-0.11v0.22h-0.11v0.23h-0.12v0.34h-0.11v0.23h-0.12v0.23h-0.11v0.34h-0.12v0.23h-0.11v0.23h-0.11v0.34h-0.12v0.23h-0.11v0.23h-0.12v0.34h-0.11v0.23h-0.11v0.23h-0.12v0.34h-0.11v0.23h-0.12v0.23h-0.11v0.34h-0.11v0.23h-0.12v0.22h-0.11v0.35h-0.12v0.23h-0.11v0.22h-0.12v0.35h-0.11v0.22h-0.11v0.23h-0.12v0.34h-0.11v0.23h-0.12v0.35h-0.11v0.22h-0.11v0.23h-0.12v0.34h-0.11v0.23h-0.12v0.23h-0.11v0.34h-0.11v0.23h-0.12v0.23h-0.11v0.34h-0.12v0.23h-0.11v0.23h-0.12v0.34h-0.11v0.23h-0.11v0.23h-0.12v0.34h-0.11v0.23h-0.12v0.23h-0.11v0.34h-0.11v0.23h-0.12v0.22h-0.11v0.35h-0.12v0.22h-0.11v0.23h-0.11v0.35h-0.12v0.22h-0.11v0.23h-0.12v0.34h-0.11v0.23h-0.11v0.23h-0.12v0.34h-0.11v0.23h-0.12v0.23h-0.11v0.34h-0.12v0.23h-0.11v0.23h-0.11v0.34h-0.12v0.34h-0.11v0.35h-0.12v0.34h-0.11v0.68h-0.11v1.83h0.11v0.57h0.11v0.34h0.12v0.23h0.11v0.34h0.12v0.23h0.11v0.11h0.11v0.23h0.12v0.12h0.11v0.11h0.12v0.23h0.11v0.11h0.12v0.12h0.11v0.11h0.11v0.11h0.23v0.12h0.12v0.11h0.11v0.12h0.23v0.11h0.11v0.12h0.23v0.11h0.23v0.11h0.23v0.12h0.34v0.11h0.34v0.12h0.34v0.11h0.46v0.11h0.8v0.12h56.37v0.11h1.25v0.12h0.69v0.11h0.57v0.11h0.46v0.12h0.34v0.11h0.34v0.12h0.23v0.11h0.23v0.12h0.11v0.11h0.23v0.11h0.11v0.12h0.12v0.11h0.11v0.12h0.12v0.11h0.11v0.11h0.11v0.12h0.12v0.23h0.11v0.22h0.12v0.23h0.11v0.23h0.11v0.23h0.12v0.46h0.11v0.45h0.12v0.46h0.11v0.8h0.12v1.14h0.11v16.09h-0.11v1.14h-0.12v0.8h-0.11v0.45h-0.12v0.46h-0.11v0.34h-0.12v0.35h-0.11v0.22h-0.11v0.12h-0.12v0.23h-0.11v0.11h-0.12v0.11h-0.11v0.23h-0.11v0.12h-0.23v0.11h-0.12v0.11h-0.11v0.12h-0.23v0.11h-0.11v0.12h-0.23v0.11h-0.34v0.12h-0.35v0.11h-0.45v0.11h-0.46v0.12h-0.68v0.11h-1.14v0.12h-82.73v0.11h-5.48v-0.11h-1.94v-0.12h-0.57v-0.11h-0.46v-0.12h-0.45v-0.11h-0.46v-0.11h-0.46v-0.12h-0.34v-0.11h-0.34v-0.12h-0.23v-0.11h-0.34v-0.12h-0.23v-0.11h-0.23v-0.11h-0.23v-0.12h-0.23v-0.23h0.23v-0.11h0.34v-0.11h0.23v-0.12h0.23v-0.11h0.34v-0.12h0.23v-0.11h0.23v-0.11h0.23v-0.12h0.23v-0.11h0.11v-0.12h0.23v-0.11h0.23v-0.12h0.23v-0.11h0.11v-0.11h0.23v-0.12h0.23v-0.11h0.11v-0.12h0.23v-0.11h0.11v-0.11h0.23v-0.12h0.11v-0.11h0.23v-0.12h0.12v-0.11h0.11v-0.11h0.23v-0.12h0.11v-0.11h0.12v-0.12h0.23v-0.11h0.11v-0.12h0.11v-0.11h0.12v-0.11h0.11v-0.12h0.23v-0.11h0.11v-0.12h0.12v-0.11h0.11v-0.11h0.12v-0.12h0.11v-0.11h0.12v-0.12h0.11v-0.11h0.11v-0.11h0.12v-0.12h0.11v-0.11h0.12v-0.12h0.11v-0.11h0.11v-0.12h0.12v-0.11h0.11v-0.11h0.12v-0.23h0.11v-0.12h0.11v-0.11h0.12v-0.11h0.11v-0.12h0.12v-0.23h0.11v-0.11h0.11v-0.11h0.12v-0.12h0.11v-0.23h0.12v-0.11h0.11v-0.23h0.12v-0.11h0.11v-0.23h0.11v-0.12h0.12v-0.22h0.11v-0.12h0.12v-0.23h0.11v-0.11h0.11v-0.23h0.12v-0.23h0.11v-0.22h0.12v-0.12h0.11v-0.23h0.11v-0.23h0.12v-0.22h0.11v-0.23h0.12v-0.23h0.11v-0.23h0.12v-0.34h0.11v-0.23h0.11v-0.23h0.12v-0.34h0.11v-0.23h0.12v-0.34h0.11v-0.34h0.11v-0.34h0.12v-0.35h0.11v-0.34h0.12v-0.46h0.11v-0.34h0.11v-0.45h0.12v-0.58h0.11v-0.45h0.12v-0.69h0.11v-0.68h0.12v-0.8h0.11v-1.14h0.11v-2.05h0.12v-43.02h0.11v-0.23h0.12v-0.23h0.11v-0.23h0.11v-0.23h0.12v-0.23h0.11v-0.22h0.12v-0.23h0.11v-0.34h0.11v-0.23h0.12v-0.23h0.11v-0.34h0.12v-0.23h0.11v-0.23h0.12v-0.34h0.11v-0.23h0.11v-0.23h0.12v-0.34h0.11v-0.23h0.12v-0.23h0.11v-0.34h0.11v-0.23h0.12v-0.23h0.11v-0.22h0.12v-0.35h0.11v-0.22h0.11v-0.23h0.12v-0.34h0.11v-0.23h0.12v-0.23h0.11v-0.34h0.11v-0.23h0.12v-0.23h0.11v-0.34h0.12v-0.23h0.11v-0.23h0.12v-0.34h0.11v-0.23h0.11v-0.23h0.12v-0.23h0.11v-0.34h0.12v-0.23h0.11v-0.22h0.11v-0.35h0.12v-0.23h0.11v-0.22h0.12v-0.35h0.11v-0.22h0.11v-0.23h0.12v-0.34h0.11v-0.23h0.12v-0.23h0.11v-0.34h0.12v-0.23h0.11v-0.23h0.11v-0.23h0.12v-0.34h0.11v-0.23h0.12v-0.23h0.11v-0.34h0.11v-0.23h0.12v-0.23h0.11v-0.34h0.12v-0.23h0.11v-0.22h0.11v-0.35h0.12v-0.22h0.11v-0.23h0.12v-0.35h0.11v-0.22h0.12v-0.23h0.11v-0.23h0.11v-0.34h0.12v-0.23h0.11v-0.23h0.12v-0.34h0.11v-0.23h0.11v-0.23h0.12v-0.34h0.11v-0.23h0.12v-0.23h0.11v-0.34h0.11v-0.23h0.12v-0.23h0.11v-0.34h0.12v-0.23h0.11v-0.22h0.12v-0.23h0.11v-0.34h0.11v-0.23h0.12v-0.23h0.11v-0.34h0.12v-0.23h0.11v-0.23h0.11v-0.34h0.12v-0.23h0.11v-0.23h0.12v-0.34h0.11v-0.23h0.11v-0.23h0.12v-0.34h0.11v-0.23h0.12v-0.23h0.11v-0.22h0.11v-0.35h0.12v-0.22h0.11v-0.23h0.12v-0.35h0.11v-0.22h0.12v-0.23h0.11v-0.34h0.11v-0.23h0.12v-0.23h0.11v-0.34h0.12v-0.23h0.11v-0.23h0.11v-0.34h0.12v-0.23h0.11v-0.23h0.12v-0.23h0.11v-0.34h0.11v-0.23h0.12v-0.23h0.11v-0.34h0.12v-0.23h0.11v-0.22h0.12v-0.35h0.11v-0.22h0.11v-0.23h0.12v-0.34h0.11v-0.23h0.12v-0.23h0.11v-0.34h0.11v-0.23h0.12v-0.23h0.11v-0.23h0.12v-0.34h0.11v-0.23h0.11v-0.23h0.12v-0.34h0.11v-0.23h0.12v-0.23h0.11v-0.34h0.12v-0.23h0.11v-0.22h0.11v-0.35h0.12v-0.23h0.11v-0.22h0.12v-0.35h0.11v-0.22h0.11v-0.23h0.12v-0.23h0.11v-0.34h0.12v-0.23h0.11v-0.23h0.11v-0.34h0.12v-0.23h0.11v-0.23h0.12v-0.34h0.11v-0.23h0.12v-0.23h0.11v-0.34h0.11v-0.23h0.12v-0.23h0.11v-0.34h0.12v-0.23h0.11v-0.22h0.11v-0.23h0.12v-0.34h0.11v-0.23h0.12v-0.23h0.11v-0.34h0.11v-0.23h0.12v-0.23h0.11v-0.34h0.12v-0.23h0.11v-0.23h0.12v-0.34h0.11v-0.23h0.11v-0.23h0.12v-0.34h0.11v-0.23h0.12v-0.23h0.11v-0.22h0.11v-0.35h0.12v-0.23h0.11v-0.22h0.12v-0.35h0.11v-0.22h0.11v-0.23h0.12v-0.34h0.11v-0.23h0.12v-0.23h0.11v-0.34h0.11v-0.23h0.12v-0.23h0.11v-0.34h0.12v-0.23h0.11v-0.23h0.12v-0.23h0.11v-0.34h0.11v-0.23h0.12v-0.23h0.11v-0.34h0.12v-0.23h0.11v-0.22h0.11v-0.35h0.12v-0.22h0.11v-0.23h0.12v-0.35h0.11v-0.22h0.11v-0.23h0.12v-0.34h0.11v-0.23h0.12v-0.23h0.11v-0.23h0.12v-0.34h0.11v-0.23h0.11v-0.23h0.12v-0.34h0.11v-0.23h0.12v-0.23h0.11v-0.34h0.11v-0.23h0.12v-0.23h0.11v-0.34h0.12v-0.23h0.11v-0.22h0.11v-0.35h0.12v-0.22h0.11v-0.23h0.12v-0.23h0.11v-0.34h0.12v-0.23h0.11v-0.23h0.11v-0.34h0.12v-0.23h0.11v-0.23h0.12v-0.34h0.11v-0.23h0.11v-0.23h0.12v-0.34h0.11v-0.23h0.12v-0.23h0.11v-0.34h0.11v-0.23h0.12v-0.22h0.11v-0.23h0.12v-0.35h0.11v-0.22h0.12v-0.23h0.11v-0.34h0.11v-0.23h0.12v-0.23h0.11v-0.34h0.12v-0.23h0.11v-0.23h0.11v-0.34h0.12v-0.23h0.11v-0.23h0.12v-0.11z"></path> <path class="the-s" fill="#333" d="m127.12 126.89v-0.68h0.11v-0.57h0.12v-0.46h0.11v-0.46h0.12v-0.45h0.11v-0.46h0.11v-0.46h0.12v-0.34h0.11v-0.34h0.12v-0.34h0.11v-0.35h0.11v-0.22h0.12v-0.23h0.11v-0.35h0.12v-0.22h0.11v-0.23h0.11v-0.23h0.12v-0.23h0.11v-0.11h0.12v-0.23h0.11v-0.23h0.12v-0.11h0.11v-0.23h0.11v-0.11h0.12v-0.23h0.11v-0.12h0.12v-0.11h0.11v-0.12h0.11v-0.22h0.12v-0.12h0.11v-0.11h0.12v-0.12h0.11v-0.11h0.11v-0.11h0.12v-0.12h0.11v-0.11h0.12v-0.12h0.11v-0.11h0.11v-0.11h0.12v-0.12h0.11v-0.11h0.12v-0.12h0.11v-0.11h0.12v-0.12h0.22v-0.11h0.12v-0.11h0.11v-0.12h0.12v-0.11h0.22v-0.12h0.12v-0.11h0.11v-0.11h0.23v-0.12h0.11v-0.11h0.23v-0.12h0.12v-0.11h0.23v-0.11h0.11v-0.12h0.23v-0.11h0.23v-0.12h0.11v-0.11h0.23v-0.12h0.23v-0.11h0.22v-0.11h0.23v-0.12h0.23v-0.11h0.23v-0.12h0.23v-0.11h0.34v-0.11h0.23v-0.12h0.23v-0.11h0.34v-0.12h0.34v-0.11h0.34v-0.11h0.35v-0.12h0.45v-0.11h0.34v-0.12h0.46v-0.11h0.57v-0.12h0.46v-0.11h0.57v-0.11h0.68v-0.12h0.69v-0.11h0.91v-0.12h1.26v-0.11h2.28v-0.11h74.28v0.11h2.4v0.11h1.37v0.12h1.14v0.11h0.91v0.12h0.92v0.11h0.68v0.11h0.69v0.12h0.57v0.11h0.57v0.12h0.8v0.11h0.45v0.12h0.46v0.11h0.45v0.11h0.35v0.12h0.34v0.11h0.34v0.12h0.34v0.11h0.35v0.11h0.22v0.12h0.35v0.11h0.23v0.12h0.22v0.11h0.23v0.11h0.23v0.12h0.23v0.11h0.11v0.12h0.23v0.11h0.11v0.12h0.23v0.11h0.12v0.11h0.11v0.12h0.23v0.11h0.11v0.12h0.12v0.11h0.11v0.11h0.12v0.12h0.11v0.11h0.23v0.12h0.11v0.22h0.12v0.12h0.11v0.11h0.11v0.12h0.12v0.11h0.11v0.12h0.12v0.11h0.11v0.23h0.11v0.11h0.12v0.12h0.11v0.11h0.12v0.23h0.11v0.11h0.12v0.23h0.11v0.11h0.11v0.23h0.12v0.23h0.11v0.12h0.12v0.22h0.11v0.23h0.11v0.23h0.12v0.11h0.11v0.23h0.12v0.34h0.11v0.23h0.11v0.23h0.12v0.23h0.11v0.23h0.12v0.34h0.11v0.23h0.12v0.34h0.11v0.34h0.11v0.34h0.12v0.35h0.11v0.34h0.12v0.34h0.11v0.46h0.11v0.45h0.12v0.46h0.11v0.46h0.12v0.45h0.11v0.57h0.11v0.69h0.12v0.57h0.11v0.8h0.12v0.8h0.11v1.02h0.12v1.26h0.11v2.05h0.11v60.14h-0.11v2.62h-0.11v0.8h-0.12v0.8h-0.11v0.57h-0.12v0.46h-0.11v0.34h-0.12v0.34h-0.11v0.23h-0.11v0.23h-0.12v0.11h-0.11v0.23h-0.12v0.12h-0.11v0.11h-0.11v0.11h-0.12v0.12h-0.11v0.11h-0.12v0.12h-0.11v0.11h-0.11v0.11h-0.23v0.12h-0.23v0.11h-0.23v0.12h-0.23v0.11h-0.23v0.12h-0.45v0.11h-0.46v0.11h-0.57v0.12h-1.14v0.11h-1.26v0.12h-14.03v-0.12h-1.6v-0.11h-0.91v-0.12h-0.57v-0.11h-0.57v-0.11h-0.46v-0.12h-0.34v-0.11h-0.23v-0.12h-0.23v-0.11h-0.23v-0.12h-0.22v-0.11h-0.12v-0.11h-0.11v-0.12h-0.12v-0.11h-0.11v-0.12h-0.11v-0.11h-0.12v-0.11h-0.11v-0.12h-0.12v-0.11h-0.11v-0.23h-0.12v-0.11h-0.11v-0.23h-0.11v-0.34h-0.12v-0.35h-0.11v-0.45h-0.12v-0.46h-0.11v-1.26h-0.11v-0.79h-0.12v-47.47h-0.11v-0.92h-0.12v-0.45h-0.11v-0.35h-0.11v-0.34h-0.12v-0.34h-0.11v-0.23h-0.12v-0.34h-0.11v-0.23h-0.12v-0.23h-0.11v-0.23h-0.11v-0.11h-0.12v-0.23h-0.11v-0.23h-0.12v-0.11h-0.11v-0.23h-0.11v-0.23h-0.12v-0.11h-0.11v-0.11h-0.12v-0.12h-0.11v-0.11h-0.11v-0.12h-0.12v-0.11h-0.11v-0.12h-0.12v-0.11h-0.11v-0.11h-0.12v-0.12h-0.11v-0.11h-0.11v-0.12h-0.12v-0.11h-0.11v-0.11h-0.12v-0.12h-0.11v-0.11h-0.23v-0.12h-0.11v-0.11h-0.23v-0.11h-0.11v-0.12h-0.23v-0.11h-0.12v-0.12h-0.22v-0.11h-0.23v-0.12h-0.23v-0.11h-0.23v-0.11h-0.23v-0.12h-0.34v-0.11h-0.34v-0.12h-0.34v-0.11h-0.35v-0.11h-0.45v-0.12h-0.69v-0.11h-43.82v0.11h-0.45v0.12h-0.46v0.11h-0.34v0.11h-0.34v0.12h-0.35v0.11h-0.22v0.12h-0.35v0.11h-0.23v0.11h-0.22v0.12h-0.23v0.11h-0.12v0.12h-0.22v0.11h-0.12v0.12h-0.23v0.11h-0.22v0.11h-0.12v0.12h-0.23v0.11h-0.11v0.12h-0.12v0.11h-0.11v0.11h-0.11v0.12h-0.12v0.11h-0.11v0.12h-0.12v0.11h-0.11v0.11h-0.11v0.12h-0.12v0.11h-0.11v0.12h-0.12v0.11h-0.11v0.12h-0.11v0.11h-0.12v0.23h-0.11v0.23h-0.12v0.11h-0.11v0.23h-0.11v0.11h-0.12v0.23h-0.11v0.23h-0.12v0.23h-0.11v0.23h-0.12v0.22h-0.11v0.23h-0.11v0.34h-0.12v0.35h-0.11v0.34h-0.12v0.34h-0.11v0.57h-0.11v1.03h-0.12v44.96h0.12v2.28h0.11v1.03h0.11v0.91h0.12v0.46h0.11v0.57h0.12v0.34h0.11v0.46h0.11v0.34h0.12v0.34h0.11v0.34h0.12v0.23h0.11v0.34h0.12v0.23h0.11v0.34h0.11v0.23h0.12v0.23h0.11v0.23h0.12v0.23h0.11v0.22h0.11v0.23h0.12v0.12h0.11v0.23h0.12v0.22h0.11v0.12h0.11v0.23h0.12v0.11h0.11v0.23h0.12v0.11h0.11v0.23h0.11v0.11h0.12v0.12h0.11v0.23h0.12v0.23h0.11v0.11h0.12v0.11h0.11v0.12h0.11v0.11h0.12v0.23h0.11v0.11h0.12v0.12h0.11v0.11h0.11v0.12h0.12v0.11h0.11v0.11h0.12v0.12h0.11v0.11h0.11v0.12h0.12v0.11h0.11v0.12h0.12v0.11h0.11v0.11h0.12v0.12h0.11v0.11h0.11v0.12h0.12v0.11h0.11v0.11h0.12v0.12h0.11v0.11h0.11v0.23h0.12v0.11h0.11v0.12h0.12v0.11h0.11v0.12h0.11v0.11h0.12v0.12h0.11v0.22h0.12v0.12h0.11v0.11h0.12v0.12h0.11v0.11h0.11v0.11h0.12v0.12h0.11v0.23h0.12v0.11h0.11v0.11h0.11v0.12h0.12v0.11h0.11v0.12h0.12v0.11h0.11v0.23h0.11v0.11h0.12v0.12h0.11v0.11h0.12v0.12h0.11v0.11h0.12v0.11h0.11v0.23h0.11v0.12h0.12v0.11h0.11v0.11h0.12v0.12h0.11v0.11h0.11v0.12h0.12v0.22h0.11v0.12h0.12v0.11h0.11v0.12h0.11v0.11h0.12v0.23h0.11v0.11h0.12v0.12h0.11v0.11h0.11v0.12h0.12v0.11h0.11v0.11h0.12v0.23h0.11v0.12h0.12v0.11h0.11v0.11h0.11v0.12h0.12v0.11h0.11v0.12h0.12v0.23h0.11v0.11h0.11v0.11h0.12v0.12h0.11v0.11h0.12v0.12h0.11v0.11h0.11v0.23h0.12v0.11h0.11v0.12h0.12v0.11h0.11v0.11h0.12v0.12h0.11v0.11h0.11v0.23h0.12v0.12h0.11v0.11h0.12v0.11h0.11v0.12h0.11v0.11h0.12v0.12h0.11v0.22h0.12v0.12h0.11v0.11h0.11v0.12h0.12v0.11h0.11v0.11h0.12v0.12h0.11v0.23h0.12v0.11h0.11v0.11h0.11v0.12h0.12v0.11h0.11v0.23h0.12v0.12h0.11v0.11h0.11v0.11h0.12v0.12h0.11v0.11h0.12v0.12h0.11v0.22h0.11v0.12h0.12v0.11h0.11v0.12h0.12v0.11h0.11v0.11h0.12v0.12h0.11v0.23h0.11v0.11h0.12v0.12h0.11v0.11h0.12v0.11h0.11v0.12h0.11v0.11h0.12v0.23h0.11v0.11h0.12v0.12h0.11v0.11h0.11v0.12h0.12v0.11h0.11v0.11h0.12v0.23h0.11v0.12h0.11v0.11h0.12v0.12h0.11v0.11h0.12v0.11h0.11v0.12h0.12v0.23h0.11v0.11h0.11v0.11h0.12v0.12h0.11v0.11h0.12v0.12h0.11v0.11h0.11v0.23h0.12v0.11h0.11v0.12h0.12v0.11h0.11v0.12h0.11v0.11h0.12v0.11h0.11v0.23h0.12v0.12h0.11v0.11h0.12v0.11h0.11v0.12h0.11v0.11h0.12v0.12h0.11v0.11h0.12v0.11h0.11v0.12h0.11v0.11h0.12v0.12h0.11v0.22h0.12v0.12h0.11v0.11h0.11v0.12h0.12v0.11h0.11v0.12h0.12v0.11h0.11v0.23h0.12v0.11h0.11v0.12h0.11v0.11h0.12v0.11h0.11v0.12h0.12v0.11h0.11v0.23h0.11v0.11h0.12v0.12h0.11v0.11h0.12v0.12h0.11v0.11h0.11v0.12h0.12v0.22h0.11v0.12h0.12v0.11h0.11v0.12h0.12v0.11h0.11v0.11h0.11v0.12h0.12v0.23h0.11v0.11h0.12v0.11h0.11v0.12h0.11v0.11h0.12v0.12h0.11v0.11h0.12v0.23h0.11v0.11h0.11v0.12h0.12v0.11h0.11v0.12h0.12v0.11h0.11v0.11h0.12v0.23h0.11v0.12h0.11v0.11h0.12v0.11h0.11v0.12h0.12v0.23h0.11v0.11h0.11v0.12h0.12v0.11h0.11v0.11h0.12v0.12h0.11v0.11h0.11v0.23h0.12v0.11h0.11v0.12h0.12v0.11h0.11v0.12h0.11v0.11h0.12v0.11h0.11v0.23h0.12v0.12h0.11v0.11h0.12v0.12h0.11v0.11h0.11v0.11h0.12v0.12h0.11v0.23h0.12v0.11h0.11v0.11h0.11v0.12h0.12v0.11h0.11v0.12h0.12v0.11h0.11v0.23h0.11v0.11h0.12v0.12h0.11v0.11h0.12v0.11h0.11v0.12h0.12v0.11h0.11v0.23h0.11v0.12h0.12v0.11h0.11v0.11h0.12v0.12h0.11v0.11h0.11v0.12h0.12v0.22h0.11v0.12h0.12v0.11h0.11v0.12h0.11v0.11h0.12v0.23h0.11v0.11h0.12v0.12h0.11v0.11h0.12v0.12h0.11v0.11h0.11v0.11h0.12v0.23h0.11v0.12h0.12v0.11h0.11v0.11h0.11v0.12h0.12v0.11h0.11v0.12h0.12v0.22h0.11v0.12h0.11v0.11h0.12v0.12h0.11v0.11h0.12v0.12h0.11v0.11h0.12v0.23h0.11v0.11h0.11v0.12h0.12v0.11h0.11v0.11h0.12v0.12h0.11v0.11h0.11v0.23h0.12v0.11h0.11v0.12h0.12v0.11h0.11v0.12h0.11v0.11h0.12v0.12h0.11v0.22h0.12v0.12h0.11v0.11h0.11v0.12h0.12v0.11h0.11v0.11h0.12v0.12h0.11v0.23h0.12v0.11h0.11v0.11h0.11v0.12h0.12v0.11h0.11v0.12h0.12v0.11h0.11v0.23h0.11v0.11h0.12v0.12h0.11v0.11h0.12v0.12h0.11v0.22h0.11v0.12h0.12v0.11h0.11v0.12h0.12v0.11h0.11v0.11h0.12v0.12h0.11v0.23h0.11v0.11h0.12v0.11h0.11v0.12h0.12v0.11h0.11v0.12h0.11v0.11h0.12v0.23h0.11v0.11h0.12v0.12h0.11v0.11h0.11v0.12h0.12v0.11h0.11v0.11h0.12v0.23h0.11v0.12h0.12v0.11h0.11v0.11h0.11v0.12h0.12v0.11h0.11v0.12h0.12v0.23h0.11v0.11h0.11v0.11h0.12v0.12h0.11v0.11h0.12v0.12h0.11v0.11h0.11v0.23h0.12v0.11h0.11v0.12h0.12v0.11h0.11v0.11h0.12v0.12h0.11v0.11h0.11v0.23h0.12v0.12h0.11v0.11h0.12v0.11h0.11v0.12h0.11v0.11h0.12v0.12h0.11v0.11h0.12v0.11h0.11v0.12h0.11v0.11h0.12v0.12h0.11v0.22h0.12v0.12h0.11v0.11h0.11v0.12h0.12v0.11h0.11v0.11h0.12v0.12h0.11v0.23h0.12v0.11h0.11v0.12h0.11v0.11h0.12v0.11h0.11v0.12h0.12v0.11h0.11v0.23h0.11v0.11h0.12v0.12h0.11v0.11h0.12v0.12h0.11v0.11h0.11v0.11h0.12v0.23h0.11v0.12h0.12v0.11h0.11v0.12h0.12v0.11h0.11v0.11h0.11v0.12h0.12v0.23h0.11v0.11h0.12v0.11h0.11v0.12h0.11v0.11h0.12v0.12h0.11v0.11h0.12v0.23h0.11v0.11h0.11v0.12h0.12v0.11h0.11v0.12h0.12v0.11h0.11v0.11h0.12v0.23h0.11v0.12h0.11v0.11h0.12v0.11h0.11v0.12h0.12v0.23h0.11v0.11h0.11v0.11h0.12v0.12h0.11v0.11h0.12v0.12h0.11v0.11h0.11v0.23h0.12v0.11h0.11v0.12h0.12v0.11h0.11v0.12h0.12v0.11h0.11v0.11h0.11v0.23h0.12v0.12h0.11v0.11h0.12v0.11h0.11v0.12h0.11v0.11h0.12v0.12h0.11v0.23h0.12v0.11h0.11v0.11h0.11v0.12h0.12v0.11h0.11v0.12h0.12v0.11h0.11v0.23h0.12v0.11h0.11v0.12h0.11v0.11h0.12v0.11h0.11v0.12h0.12v0.11h0.11v0.23h0.11v0.11h0.12v0.12h0.11v0.11h0.12v0.12h0.11v0.11h0.11v0.12h0.12v0.22h0.11v0.12h0.12v0.11h0.11v0.12h0.11v0.11h0.12v0.11h0.11v0.12h0.12v0.23h0.11v0.11h0.12v0.11h0.11v0.12h0.11v0.11h0.12v0.23h0.11v0.12h0.12v0.11h0.11v0.11h0.11v0.12h0.12v0.11h0.11v0.12h0.12v0.22h0.11v0.12h0.11v0.11h0.12v0.12h0.11v0.11h0.12v0.11h0.11v0.12h0.12v0.23h0.11v0.11h0.11v0.12h0.12v0.11h0.11v0.11h0.12v0.12h0.11v0.11h0.11v0.23h0.12v0.11h0.11v0.12h0.12v0.11h0.11v0.12h0.11v0.11h0.12v0.11h0.11v0.23h0.12v0.12h0.11v0.11h0.12v0.12h0.11v0.11h0.11v0.11h0.12v0.12h0.11v0.23h0.12v0.11h0.11v0.11h0.11v0.12h0.12v0.11h0.11v0.12h0.12v0.11h0.11v0.23h0.11v0.11h0.12v0.12h0.11v0.11h0.12v0.11h0.11v0.23h0.12v0.12h0.11v0.11h0.11v0.12h0.12v0.11h0.11v0.11h0.12v0.12h0.11v0.23h0.11v0.11h0.12v0.11h0.11v0.12h0.12v0.11h0.11v0.12h0.11v0.11h0.12v0.23h0.11v0.11h0.12v0.12h0.11v0.11h0.11v0.12h0.12v0.11h0.11v0.11h0.12v0.23h0.11v0.12h0.12v0.11h0.11v0.11h0.11v0.12h0.12v0.11h0.11v0.12h0.12v0.22h0.11v0.12h0.11v0.11h0.12v0.12h0.11v0.11h0.12v0.12h0.11v0.11h0.11v0.23h0.12v0.11h0.11v0.12h0.12v0.11h0.11v0.11h0.12v0.12h0.11v0.11h0.11v0.23h0.12v0.11h0.11v0.12h0.12v0.11h0.11v0.12h0.11v0.11h0.12v0.12h0.11v0.22h0.12v0.12h0.11v0.11h0.11v0.12h0.12v0.11h0.11v0.11h0.12v0.12h0.11v0.11h0.12v0.12h0.11v0.11h0.11v0.11h0.12v0.12h0.11v0.23h0.12v0.11h0.11v0.11h0.11v0.12h0.12v0.11h0.11v0.12h0.12v0.11h0.11v0.23h0.11v0.11h0.12v0.12h0.11v0.11h0.12v0.12h0.11v0.11h0.12v0.11h0.11v0.23h0.11v0.12h0.12v0.11h0.11v0.11h0.12v0.12h0.11v0.11h0.11v0.12h0.12v0.23h0.11v0.11h0.12v0.11h0.11v0.12h0.11v0.11h0.12v0.12h0.11v0.11h0.12v0.23h0.11v0.11h0.11v0.12h0.12v0.11h0.11v0.11h0.12v0.12h0.11v0.11h0.12v0.23h0.11v0.12h0.11v0.11h0.12v0.11h0.11v0.12h0.12v0.23h0.11v0.11h0.11v0.11h0.12v0.12h0.11v0.11h0.12v0.12h0.11v0.11h0.11v0.23h0.12v0.11h0.11v0.12h0.12v0.11h0.11v0.12h0.12v0.11h0.11v0.11h0.11v0.23h0.12v0.12h0.11v0.11h0.12v0.11h0.11v0.12h0.11v0.11h0.12v0.12h0.11v0.22h0.12v0.12h0.11v0.11h0.11v0.12h0.12v0.11h0.11v0.12h0.12v0.11h0.11v0.23h0.12v0.11h0.11v0.12h0.11v0.11h0.12v0.11h0.11v0.12h0.12v0.11h0.11v0.23h0.11v0.11h0.12v0.12h0.11v0.11h0.12v0.12h0.11v0.11h0.11v0.11h0.12v0.12h0.11v0.11h0.12v0.12h0.11v0.11h0.12v0.23h0.11v0.11h0.11v0.12h0.12v0.11h0.11v0.12h0.12v0.11h0.11v0.11h0.11v0.12h0.12v0.11h0.11v0.12h0.12v0.11h0.11v0.23h0.11v0.11h0.12v0.12h0.11v0.11h0.12v0.12h0.11v0.11h0.12v0.11h0.11v0.12h0.11v0.23h0.12v0.11h0.11v0.11h0.12v0.12h0.11v0.11h0.11v0.12h0.12v0.11h0.11v0.11h0.12v0.12h0.11v0.11h0.11v0.23h0.12v0.12h0.11v0.11h0.12v0.23h0.11v0.11h0.11v0.12h0.12v0.11h0.11v0.11h0.12v0.12h0.11v0.23h0.12v0.11h0.11v0.11h0.11v0.23h0.12v0.12h0.11v0.11h0.12v0.23h0.11v0.11h0.11v0.12h0.12v0.23h0.11v0.11h0.12v0.23h0.11v0.11h0.11v0.23h0.12v0.23h0.11v0.11h0.12v0.23h0.11v0.23h0.12v0.23h0.11v0.23h0.11v0.22h0.12v0.35h0.11v0.22h0.12v0.35h0.11v0.34h0.11v0.46h0.12v0.45h0.11v0.57h0.12v0.57h0.11v0.57h0.11v0.69h0.12v1.48h0.11v0.46h0.12v1.02h0.11v1.49h0.12v1.94h0.11v4.11h0.11v68.12h-0.11v1.6h-0.11v1.02h-0.12v0.8h-0.11v0.69h-0.12v0.57h-0.11v0.57h-0.12v0.46h-0.11v0.45h-0.11v0.34h-0.12v0.46h-0.11v0.34h-0.12v0.35h-0.11v0.34h-0.11v0.34h-0.12v0.23h-0.11v0.34h-0.12v0.34h-0.11v0.23h-0.11v0.23h-0.12v0.23h-0.11v0.34h-0.12v0.23h-0.11v0.23h-0.12v0.22h-0.11v0.12h-0.11v0.23h-0.12v0.23h-0.11v0.22h-0.12v0.23h-0.11v0.12h-0.11v0.22h-0.12v0.12h-0.11v0.23h-0.12v0.22h-0.11v0.12h-0.11v0.23h-0.12v0.11h-0.11v0.12h-0.12v0.22h-0.11v0.12h-0.12v0.11h-0.11v0.23h-0.11v0.11h-0.12v0.12h-0.11v0.11h-0.12v0.23h-0.11v0.11h-0.11v0.12h-0.12v0.11h-0.11v0.12h-0.12v0.11h-0.11v0.11h-0.11v0.23h-0.12v0.12h-0.11v0.11h-0.12v0.12h-0.11v0.11h-0.11v0.11h-0.12v0.12h-0.11v0.11h-0.23v0.12h-0.12v0.11h-0.11v0.11h-0.11v0.12h-0.12v0.11h-0.11v0.12h-0.12v0.11h-0.22v0.11h-0.12v0.12h-0.11v0.11h-0.12v0.12h-0.22v0.11h-0.12v0.12h-0.11v0.11h-0.23v0.11h-0.12v0.12h-0.22v0.11h-0.12v0.12h-0.23v0.11h-0.11v0.11h-0.23v0.12h-0.11v0.11h-0.23v0.12h-0.23v0.11h-0.11v0.11h-0.23v0.12h-0.23v0.11h-0.23v0.12h-0.23v0.11h-0.22v0.12h-0.23v0.11h-0.23v0.11h-0.23v0.12h-0.23v0.11h-0.23v0.12h-0.34v0.11h-0.23v0.11h-0.34v0.12h-0.34v0.11h-0.34v0.12h-0.35v0.11h-0.45v0.11h-0.34v0.12h-0.46v0.11h-0.46v0.12h-0.45v0.11h-0.46v0.12h-0.57v0.11h-0.57v0.11h-0.69v0.12h-0.91v0.11h-1.14v0.12h-75.65v-0.12h-1.26v-0.11h-0.91v-0.12h-0.8v-0.11h-0.69v-0.11h-0.57v-0.12h-0.57v-0.11h-0.45v-0.12h-0.46v-0.11h-0.46v-0.12h-0.45v-0.11h-0.35v-0.11h-0.34v-0.12h-0.34v-0.11h-0.34v-0.12h-0.34v-0.11h-0.23v-0.11h-0.34v-0.12h-0.23v-0.11h-0.35v-0.12h-0.22v-0.11h-0.23v-0.11h-0.23v-0.12h-0.23v-0.11h-0.23v-0.12h-0.22v-0.11h-0.23v-0.12h-0.12v-0.11h-0.23v-0.11h-0.22v-0.12h-0.12v-0.11h-0.23v-0.12h-0.11v-0.11h-0.23v-0.11h-0.11v-0.12h-0.23v-0.11h-0.11v-0.12h-0.23v-0.11h-0.12v-0.11h-0.11v-0.12h-0.23v-0.11h-0.11v-0.12h-0.12v-0.11h-0.11v-0.12h-0.12v-0.11h-0.22v-0.11h-0.12v-0.12h-0.11v-0.11h-0.12v-0.12h-0.11v-0.11h-0.11v-0.11h-0.12v-0.12h-0.11v-0.11h-0.12v-0.12h-0.11v-0.11h-0.12v-0.11h-0.11v-0.12h-0.11v-0.11h-0.12v-0.12h-0.11v-0.11h-0.12v-0.23h-0.11v-0.11h-0.11v-0.12h-0.12v-0.11h-0.11v-0.12h-0.12v-0.22h-0.11v-0.12h-0.11v-0.11h-0.12v-0.23h-0.11v-0.11h-0.12v-0.23h-0.11v-0.12h-0.11v-0.22h-0.12v-0.12h-0.11v-0.23h-0.12v-0.11h-0.11v-0.23h-0.12v-0.23h-0.11v-0.23h-0.11v-0.11h-0.12v-0.23h-0.11v-0.23h-0.12v-0.22h-0.11v-0.23h-0.11v-0.35h-0.12v-0.22h-0.11v-0.23h-0.12v-0.23h-0.11v-0.34h-0.11v-0.34h-0.12v-0.23h-0.11v-0.35h-0.12v-0.34h-0.11v-0.45h-0.12v-0.35h-0.11v-0.45h-0.11v-0.46h-0.12v-0.46h-0.11v-0.45h-0.12v-0.57h-0.11v-0.57h-0.11v-0.69h-0.12v-0.8h-0.11v-1.02h-0.12v-1.37h-0.11v-68.58h0.11v-1.26h0.12v-0.8h0.11v-0.57h0.12v-0.45h0.11v-0.35h0.11v-0.34h0.12v-0.23h0.11v-0.23h0.12v-0.22h0.11v-0.12h0.11v-0.11h0.12v-0.12h0.11v-0.11h0.12v-0.11h0.11v-0.12h0.12v-0.11h0.11v-0.12h0.23v-0.11h0.11v-0.11h0.23v-0.12h0.34v-0.11h0.34v-0.12h0.46v-0.11h0.57v-0.12h0.69v-0.11h1.48v-0.11h16.43v0.11h1.37v0.11h0.8v0.12h0.46v0.11h0.45v0.12h0.34v0.11h0.23v0.12h0.23v0.11h0.23v0.11h0.11v0.12h0.12v0.11h0.11v0.12h0.12v0.11h0.11v0.11h0.11v0.23h0.12v0.12h0.11v0.22h0.12v0.35h0.11v0.34h0.11v0.46h0.12v0.68h0.11v1.03h0.12v53.52h0.11v1.25h0.12v0.57h0.11v0.34h0.11v0.35h0.12v0.34h0.11v0.34h0.12v0.23h0.11v0.23h0.11v0.22h0.12v0.23h0.11v0.23h0.12v0.23h0.11v0.11h0.11v0.23h0.12v0.12h0.11v0.22h0.12v0.12h0.11v0.11h0.12v0.23h0.11v0.11h0.11v0.12h0.12v0.11h0.11v0.12h0.12v0.11h0.11v0.12h0.11v0.11h0.12v0.11h0.11v0.12h0.12v0.11h0.11v0.12h0.11v0.11h0.12v0.11h0.23v0.12h0.11v0.11h0.11v0.12h0.23v0.11h0.12v0.11h0.23v0.12h0.22v0.11h0.23v0.12h0.12v0.11h0.22v0.12h0.35v0.11h0.22v0.11h0.23v0.12h0.35v0.11h0.34v0.12h0.34v0.11h0.57v0.11h0.91v0.12h43.48v-0.12h0.8v-0.11h0.57v-0.11h0.34v-0.12h0.34v-0.11h0.35v-0.12h0.22v-0.11h0.35v-0.11h0.22v-0.12h0.23v-0.11h0.23v-0.12h0.23v-0.11h0.11v-0.12h0.23v-0.11h0.12v-0.11h0.22v-0.12h0.12v-0.11h0.23v-0.12h0.11v-0.11h0.11v-0.11h0.12v-0.12h0.11v-0.11h0.23v-0.12h0.11v-0.11h0.12v-0.11h0.11v-0.12h0.12v-0.11h0.11v-0.23h0.12v-0.12h0.11v-0.11h0.11v-0.11h0.12v-0.12h0.11v-0.23h0.12v-0.11h0.11v-0.23h0.11v-0.11h0.12v-0.23h0.11v-0.11h0.12v-0.23h0.11v-0.23h0.11v-0.23h0.12v-0.23h0.11v-0.23h0.12v-0.34h0.11v-0.34h0.12v-0.34h0.11v-0.34h0.11v-0.46h0.12v-0.8h0.11v-50.09h-0.11v-1.49h-0.12v-0.91h-0.11v-0.57h-0.11v-0.57h-0.12v-0.46h-0.11v-0.34h-0.12v-0.34h-0.11v-0.35h-0.12v-0.34h-0.11v-0.34h-0.11v-0.23h-0.12v-0.34h-0.11v-0.23h-0.12v-0.23h-0.11v-0.23h-0.11v-0.34h-0.12v-0.23h-0.11v-0.22h-0.12v-0.12h-0.11v-0.23h-0.11v-0.22h-0.12v-0.23h-0.11v-0.23h-0.12v-0.12h-0.11v-0.22h-0.12v-0.12h-0.11v-0.23h-0.11v-0.22h-0.12v-0.12h-0.11v-0.23h-0.12v-0.11h-0.11v-0.23h-0.11v-0.11h-0.12v-0.23h-0.11v-0.12h-0.12v-0.11h-0.11v-0.23h-0.11v-0.11h-0.12v-0.12h-0.11v-0.22h-0.12v-0.12h-0.11v-0.11h-0.11v-0.23h-0.12v-0.11h-0.11v-0.12h-0.12v-0.23h-0.11v-0.11h-0.12v-0.11h-0.11v-0.12h-0.11v-0.23h-0.12v-0.11h-0.11v-0.12h-0.12v-0.11h-0.11v-0.11h-0.11v-0.23h-0.12v-0.12h-0.11v-0.11h-0.12v-0.11h-0.11v-0.12h-0.11v-0.11h-0.12v-0.12h-0.11v-0.22h-0.12v-0.12h-0.11v-0.11h-0.12v-0.12h-0.11v-0.11h-0.11v-0.12h-0.12v-0.11h-0.11v-0.23h-0.12v-0.11h-0.11v-0.12h-0.11v-0.11h-0.12v-0.11h-0.11v-0.12h-0.12v-0.11h-0.11v-0.23h-0.11v-0.11h-0.12v-0.12h-0.11v-0.11h-0.12v-0.12h-0.11v-0.11h-0.12v-0.12h-0.11v-0.22h-0.11v-0.12h-0.12v-0.11h-0.11v-0.12h-0.12v-0.11h-0.11v-0.11h-0.11v-0.12h-0.12v-0.23h-0.11v-0.11h-0.12v-0.11h-0.11v-0.12h-0.11v-0.11h-0.12v-0.12h-0.11v-0.11h-0.12v-0.23h-0.11v-0.11h-0.12v-0.12h-0.11v-0.11h-0.11v-0.12h-0.12v-0.11h-0.11v-0.11h-0.12v-0.23h-0.11v-0.12h-0.11v-0.11h-0.12v-0.11h-0.11v-0.12h-0.12v-0.11h-0.11v-0.12h-0.11v-0.22h-0.12v-0.12h-0.11v-0.11h-0.12v-0.12h-0.11v-0.11h-0.12v-0.12h-0.11v-0.11h-0.11v-0.23h-0.12v-0.11h-0.11v-0.12h-0.12v-0.11h-0.11v-0.11h-0.11v-0.12h-0.12v-0.11h-0.11v-0.23h-0.12v-0.11h-0.11v-0.12h-0.11v-0.11h-0.12v-0.12h-0.11v-0.11h-0.12v-0.12h-0.11v-0.22h-0.11v-0.12h-0.12v-0.11h-0.11v-0.12h-0.12v-0.11h-0.11v-0.11h-0.12v-0.12h-0.11v-0.23h-0.11v-0.11h-0.12v-0.11h-0.11v-0.12h-0.12v-0.11h-0.11v-0.12h-0.11v-0.11h-0.12v-0.23h-0.11v-0.11h-0.12v-0.12h-0.11v-0.11h-0.11v-0.12h-0.12v-0.11h-0.11v-0.11h-0.12v-0.23h-0.11v-0.12h-0.12v-0.11h-0.11v-0.11h-0.11v-0.12h-0.12v-0.11h-0.11v-0.12h-0.12v-0.23h-0.11v-0.11h-0.11v-0.11h-0.12v-0.12h-0.11v-0.11h-0.12v-0.12h-0.11v-0.11h-0.11v-0.23h-0.12v-0.11h-0.11v-0.12h-0.12v-0.11h-0.11v-0.11h-0.12v-0.12h-0.11v-0.11h-0.11v-0.23h-0.12v-0.11h-0.11v-0.12h-0.12v-0.11h-0.11v-0.12h-0.11v-0.11h-0.12v-0.12h-0.11v-0.22h-0.12v-0.12h-0.11v-0.11h-0.11v-0.12h-0.12v-0.11h-0.11v-0.11h-0.12v-0.12h-0.11v-0.23h-0.12v-0.11h-0.11v-0.11h-0.11v-0.12h-0.12v-0.11h-0.11v-0.12h-0.12v-0.11h-0.11v-0.23h-0.11v-0.11h-0.12v-0.12h-0.11v-0.11h-0.12v-0.12h-0.11v-0.11h-0.11v-0.11h-0.12v-0.23h-0.11v-0.12h-0.12v-0.11h-0.11v-0.11h-0.11v-0.12h-0.12v-0.11h-0.11v-0.12h-0.12v-0.23h-0.11v-0.11h-0.12v-0.11h-0.11v-0.12h-0.11v-0.11h-0.12v-0.12h-0.11v-0.22h-0.12v-0.12h-0.11v-0.11h-0.11v-0.12h-0.12v-0.11h-0.11v-0.11h-0.12v-0.12h-0.11v-0.23h-0.11v-0.11h-0.12v-0.12h-0.11v-0.11h-0.12v-0.11h-0.11v-0.12h-0.12v-0.11h-0.11v-0.23h-0.11v-0.11h-0.12v-0.12h-0.11v-0.11h-0.12v-0.12h-0.11v-0.11h-0.11v-0.11h-0.12v-0.23h-0.11v-0.12h-0.12v-0.11h-0.11v-0.12h-0.11v-0.11h-0.12v-0.11h-0.11v-0.12h-0.12v-0.23h-0.11v-0.11h-0.12v-0.11h-0.11v-0.12h-0.11v-0.11h-0.12v-0.12h-0.11v-0.11h-0.12v-0.23h-0.11v-0.11h-0.11v-0.12h-0.12v-0.11h-0.11v-0.11h-0.12v-0.12h-0.11v-0.11h-0.11v-0.23h-0.12v-0.12h-0.11v-0.11h-0.12v-0.11h-0.11v-0.12h-0.12v-0.11h-0.11v-0.12h-0.11v-0.22h-0.12v-0.12h-0.11v-0.11h-0.12v-0.12h-0.11v-0.11h-0.11v-0.11h-0.12v-0.12h-0.11v-0.23h-0.12v-0.11h-0.11v-0.12h-0.11v-0.11h-0.12v-0.11h-0.11v-0.12h-0.12v-0.11h-0.11v-0.23h-0.11v-0.11h-0.12v-0.12h-0.11v-0.11h-0.12v-0.12h-0.11v-0.11h-0.12v-0.11h-0.11v-0.23h-0.11v-0.12h-0.12v-0.11h-0.11v-0.12h-0.12v-0.11h-0.11v-0.11h-0.11v-0.12h-0.12v-0.23h-0.11v-0.11h-0.12v-0.11h-0.11v-0.12h-0.11v-0.11h-0.12v-0.12h-0.11v-0.11h-0.12v-0.23h-0.11v-0.11h-0.12v-0.12h-0.11v-0.11h-0.11v-0.12h-0.12v-0.11h-0.11v-0.11h-0.12v-0.23h-0.11v-0.12h-0.11v-0.11h-0.12v-0.11h-0.11v-0.12h-0.12v-0.11h-0.11v-0.12h-0.11v-0.22h-0.12v-0.12h-0.11v-0.11h-0.12v-0.12h-0.11v-0.11h-0.12v-0.11h-0.11v-0.12h-0.11v-0.23h-0.12v-0.11h-0.11v-0.12h-0.12v-0.11h-0.11v-0.11h-0.11v-0.12h-0.12v-0.11h-0.11v-0.23h-0.12v-0.11h-0.11v-0.12h-0.11v-0.11h-0.12v-0.12h-0.11v-0.11h-0.12v-0.11h-0.11v-0.23h-0.12v-0.12h-0.11v-0.11h-0.11v-0.12h-0.12v-0.11h-0.11v-0.11h-0.12v-0.12h-0.11v-0.23h-0.11v-0.11h-0.12v-0.11h-0.11v-0.12h-0.12v-0.11h-0.11v-0.12h-0.11v-0.11h-0.12v-0.23h-0.11v-0.11h-0.12v-0.12h-0.11v-0.11h-0.12v-0.12h-0.11v-0.11h-0.11v-0.11h-0.12v-0.23h-0.11v-0.12h-0.12v-0.11h-0.11v-0.11h-0.11v-0.12h-0.12v-0.11h-0.11v-0.12h-0.12v-0.22h-0.11v-0.12h-0.11v-0.11h-0.12v-0.12h-0.11v-0.11h-0.12v-0.12h-0.11v-0.11h-0.11v-0.23h-0.12v-0.11h-0.11v-0.12h-0.12v-0.11h-0.11v-0.11h-0.12v-0.12h-0.11v-0.11h-0.11v-0.23h-0.12v-0.11h-0.11v-0.12h-0.12v-0.11h-0.11v-0.12h-0.11v-0.11h-0.12v-0.11h-0.11v-0.23h-0.12v-0.12h-0.11v-0.11h-0.11v-0.12h-0.12v-0.11h-0.11v-0.11h-0.12v-0.12h-0.11v-0.23h-0.12v-0.11h-0.11v-0.11h-0.11v-0.12h-0.12v-0.11h-0.11v-0.12h-0.12v-0.11h-0.11v-0.23h-0.11v-0.11h-0.12v-0.12h-0.11v-0.11h-0.12v-0.12h-0.11v-0.11h-0.11v-0.11h-0.12v-0.23h-0.11v-0.12h-0.12v-0.11h-0.11v-0.11h-0.12v-0.12h-0.11v-0.11h-0.11v-0.12h-0.12v-0.22h-0.11v-0.12h-0.12v-0.11h-0.11v-0.12h-0.11v-0.11h-0.12v-0.12h-0.11v-0.11h-0.12v-0.23h-0.11v-0.11h-0.11v-0.12h-0.12v-0.11h-0.11v-0.11h-0.12v-0.12h-0.11v-0.11h-0.12v-0.23h-0.11v-0.11h-0.11v-0.12h-0.12v-0.11h-0.11v-0.12h-0.12v-0.11h-0.11v-0.23h-0.11v-0.11h-0.12v-0.12h-0.11v-0.11h-0.12v-0.12h-0.11v-0.11h-0.11v-0.11h-0.12v-0.23h-0.11v-0.12h-0.12v-0.11h-0.11v-0.11h-0.11v-0.12h-0.12v-0.11h-0.11v-0.12h-0.12v-0.23h-0.11v-0.11h-0.12v-0.11h-0.11v-0.12h-0.11v-0.11h-0.12v-0.12h-0.11v-0.11h-0.12v-0.23h-0.11v-0.11h-0.11v-0.12h-0.12v-0.11h-0.11v-0.11h-0.12v-0.12h-0.11v-0.11h-0.11v-0.23h-0.12v-0.11h-0.11v-0.12h-0.12v-0.11h-0.11v-0.12h-0.12v-0.11h-0.11v-0.12h-0.11v-0.22h-0.12v-0.12h-0.11v-0.11h-0.12v-0.12h-0.11v-0.11h-0.11v-0.11h-0.12v-0.12h-0.11v-0.23h-0.12v-0.11h-0.11v-0.11h-0.11v-0.12h-0.12v-0.11h-0.11v-0.12h-0.12v-0.11h-0.11v-0.23h-0.12v-0.11h-0.11v-0.12h-0.11v-0.11h-0.12v-0.12h-0.11v-0.11h-0.12v-0.11h-0.11v-0.23h-0.11v-0.12h-0.12v-0.11h-0.11v-0.11h-0.12v-0.12h-0.11v-0.11h-0.11v-0.12h-0.12v-0.23h-0.11v-0.11h-0.12v-0.11h-0.11v-0.12h-0.12v-0.11h-0.11v-0.12h-0.11v-0.11h-0.12v-0.23h-0.11v-0.11h-0.12v-0.12h-0.11v-0.11h-0.11v-0.11h-0.12v-0.12h-0.11v-0.11h-0.12v-0.23h-0.11v-0.12h-0.11v-0.11h-0.12v-0.11h-0.11v-0.12h-0.12v-0.11h-0.11v-0.12h-0.11v-0.22h-0.12v-0.12h-0.11v-0.11h-0.12v-0.12h-0.11v-0.11h-0.12v-0.11h-0.11v-0.12h-0.11v-0.23h-0.12v-0.11h-0.11v-0.11h-0.12v-0.12h-0.11v-0.11h-0.11v-0.12h-0.12v-0.11h-0.11v-0.23h-0.12v-0.11h-0.11v-0.12h-0.11v-0.11h-0.12v-0.12h-0.11v-0.11h-0.12v-0.11h-0.11v-0.23h-0.12v-0.12h-0.11v-0.11h-0.11v-0.11h-0.12v-0.12h-0.11v-0.11h-0.12v-0.12h-0.11v-0.23h-0.11v-0.11h-0.12v-0.11h-0.11v-0.12h-0.12v-0.11h-0.11v-0.12h-0.11v-0.11h-0.12v-0.23h-0.11v-0.11h-0.12v-0.12h-0.11v-0.11h-0.12v-0.11h-0.11v-0.12h-0.11v-0.11h-0.12v-0.23h-0.11v-0.12h-0.12v-0.11h-0.11v-0.11h-0.11v-0.12h-0.12v-0.11h-0.11v-0.12h-0.12v-0.22h-0.11v-0.12h-0.11v-0.11h-0.12v-0.12h-0.11v-0.11h-0.12v-0.11h-0.11v-0.12h-0.12v-0.23h-0.11v-0.11h-0.11v-0.12h-0.12v-0.11h-0.11v-0.11h-0.12v-0.12h-0.11v-0.11h-0.11v-0.23h-0.12v-0.11h-0.11v-0.12h-0.12v-0.11h-0.11v-0.12h-0.11v-0.11h-0.12v-0.11h-0.11v-0.23h-0.12v-0.12h-0.11v-0.11h-0.12v-0.11h-0.11v-0.12h-0.11v-0.11h-0.12v-0.12h-0.11v-0.23h-0.12v-0.11h-0.11v-0.11h-0.11v-0.12h-0.12v-0.11h-0.11v-0.12h-0.12v-0.11h-0.11v-0.23h-0.11v-0.11h-0.12v-0.12h-0.11v-0.11h-0.12v-0.11h-0.11v-0.12h-0.11v-0.11h-0.12v-0.23h-0.11v-0.12h-0.12v-0.11h-0.11v-0.11h-0.12v-0.12h-0.11v-0.11h-0.11v-0.12h-0.12v-0.22h-0.11v-0.12h-0.12v-0.11h-0.11v-0.12h-0.11v-0.11h-0.12v-0.11h-0.11v-0.12h-0.12v-0.23h-0.11v-0.11h-0.11v-0.12h-0.12v-0.11h-0.11v-0.11h-0.12v-0.12h-0.11v-0.11h-0.12v-0.23h-0.11v-0.11h-0.11v-0.12h-0.12v-0.11h-0.11v-0.12h-0.12v-0.11h-0.11v-0.11h-0.11v-0.23h-0.12v-0.12h-0.11v-0.11h-0.12v-0.12h-0.11v-0.11h-0.11v-0.11h-0.12v-0.23h-0.11v-0.12h-0.12v-0.11h-0.11v-0.11h-0.12v-0.12h-0.11v-0.11h-0.11v-0.12h-0.12v-0.22h-0.11v-0.12h-0.12v-0.11h-0.11v-0.12h-0.11v-0.11h-0.12v-0.12h-0.11v-0.11h-0.12v-0.23h-0.11v-0.11h-0.11v-0.12h-0.12v-0.11h-0.11v-0.11h-0.12v-0.12h-0.11v-0.11h-0.12v-0.23h-0.11v-0.11h-0.11v-0.12h-0.12v-0.11h-0.11v-0.12h-0.12v-0.11h-0.11v-0.11h-0.11v-0.23h-0.12v-0.12h-0.11v-0.11h-0.12v-0.12h-0.11v-0.11h-0.11v-0.11h-0.12v-0.12h-0.11v-0.23h-0.12v-0.11h-0.11v-0.11h-0.11v-0.12h-0.12v-0.11h-0.11v-0.12h-0.12v-0.11h-0.11v-0.23h-0.12v-0.11h-0.11v-0.12h-0.11v-0.11h-0.12v-0.12h-0.11v-0.11h-0.12v-0.11h-0.11v-0.23h-0.11v-0.12h-0.12v-0.11h-0.11v-0.11h-0.12v-0.12h-0.11v-0.11h-0.11v-0.12h-0.12v-0.22h-0.11v-0.12h-0.12v-0.11h-0.11v-0.12h-0.12v-0.11h-0.11v-0.12h-0.11v-0.11h-0.12v-0.11h-0.11v-0.23h-0.12v-0.12h-0.11v-0.11h-0.11v-0.11h-0.12v-0.12h-0.11v-0.11h-0.12v-0.12h-0.11v-0.11h-0.11v-0.23h-0.12v-0.11h-0.11v-0.12h-0.12v-0.11h-0.11v-0.12h-0.12v-0.11h-0.11v-0.11h-0.11v-0.23h-0.12v-0.12h-0.11v-0.11h-0.12v-0.11h-0.11v-0.12h-0.11v-0.11h-0.12v-0.12h-0.11v-0.22h-0.12v-0.12h-0.11v-0.11h-0.11v-0.12h-0.12v-0.11h-0.11v-0.11h-0.12v-0.23h-0.11v-0.12h-0.12v-0.11h-0.11v-0.12h-0.11v-0.11h-0.12v-0.23h-0.11v-0.11h-0.12v-0.12h-0.11v-0.11h-0.11v-0.23h-0.12v-0.11h-0.11v-0.12h-0.12v-0.22h-0.11v-0.12h-0.11v-0.11h-0.12v-0.23h-0.11v-0.12h-0.12v-0.11h-0.11v-0.23h-0.11v-0.11h-0.12v-0.23h-0.11v-0.11h-0.12v-0.23h-0.11v-0.12h-0.12v-0.22h-0.11v-0.12h-0.11v-0.23h-0.12v-0.23h-0.11v-0.22h-0.12v-0.12h-0.11v-0.23h-0.11v-0.22h-0.12v-0.23h-0.11v-0.34h-0.12v-0.23h-0.11v-0.35h-0.11v-0.45h-0.12v-0.46h-0.11v-0.45h-0.12v-0.57h-0.11v-0.58h-0.12v-0.68h-0.11v-0.8h-0.11v-1.03h-0.12v-1.25h-0.11v-2.06h-0.12v-71.66h0.12v-1.71h0.11v-1.14h0.12v-1.03h0.11v-0.79h0.11v-0.69h0.12z"></path></g></g></svg>